<svg xmlns="http://www.w3.org/2000/svg" xmlns:xlink="http://www.w3.org/1999/xlink" width="1366" zoomAndPan="magnify" viewBox="0 0 1024.5 576" height="768" preserveAspectRatio="xMidYMid meet" version="1.0"><defs><clipPath id="17cd7337ae"><path d="M 509 310 L 515 310 L 515 311.6875 L 509 311.6875 Z M 509 310 " clip-rule="nonzero"/></clipPath><clipPath id="7b7fcd1dc9"><path d="M 511 264.4375 L 513 264.4375 L 513 272 L 511 272 Z M 511 264.4375 " clip-rule="nonzero"/></clipPath><clipPath id="2ef9544cf9"><path d="M 491.214844 285 L 498 285 L 498 287 L 491.214844 287 Z M 491.214844 285 " clip-rule="nonzero"/></clipPath><clipPath id="02f0fd5e35"><path d="M 526 285 L 533.214844 285 L 533.214844 287 L 526 287 Z M 526 285 " clip-rule="nonzero"/></clipPath></defs><path fill="#ffdb4f" d="M 520.03125 276.726562 C 517.792969 274.542969 514.835938 273.382812 511.703125 273.457031 C 505.441406 273.605469 500.402344 278.816406 500.46875 285.074219 C 500.5 288.117188 501.714844 290.976562 503.890625 293.117188 C 505.304688 294.511719 506.117188 296.480469 506.117188 298.511719 L 506.117188 301.167969 C 506.117188 301.421875 506.324219 301.628906 506.578125 301.628906 C 506.835938 301.628906 507.042969 301.421875 507.042969 301.167969 L 507.042969 298.511719 C 507.042969 296.234375 506.132812 294.027344 504.539062 292.457031 C 502.542969 290.488281 501.425781 287.863281 501.394531 285.0625 C 501.332031 279.3125 505.96875 274.519531 511.726562 274.386719 C 514.601562 274.316406 517.324219 275.386719 519.378906 277.390625 C 521.4375 279.394531 522.570312 282.078125 522.570312 284.949219 C 522.570312 287.785156 521.457031 290.445312 519.4375 292.445312 C 517.835938 294.027344 516.921875 296.238281 516.921875 298.511719 L 516.921875 301.167969 C 516.921875 301.421875 517.128906 301.628906 517.382812 301.628906 C 517.640625 301.628906 517.847656 301.421875 517.847656 301.167969 L 517.847656 298.511719 C 517.847656 296.488281 518.664062 294.515625 520.09375 293.101562 C 522.289062 290.925781 523.5 288.03125 523.5 284.945312 C 523.5 281.828125 522.265625 278.90625 520.03125 276.726562 Z M 520.03125 276.726562 " fill-opacity="1" fill-rule="nonzero"/><path fill="#ffdb4f" d="M 517.421875 302.75 L 506.617188 302.75 C 506.363281 302.75 506.15625 302.953125 506.152344 303.207031 L 506.117188 305.164062 C 506.117188 306.605469 507.292969 307.777344 508.734375 307.777344 L 515.230469 307.777344 C 516.675781 307.777344 517.847656 306.605469 517.847656 305.171875 L 517.882812 303.222656 C 517.886719 303.097656 517.839844 302.980469 517.753906 302.890625 C 517.664062 302.800781 517.546875 302.75 517.421875 302.75 Z M 516.921875 305.164062 C 516.921875 306.09375 516.160156 306.851562 515.230469 306.851562 L 508.734375 306.851562 C 507.804688 306.851562 507.046875 306.09375 507.046875 305.171875 L 507.074219 303.675781 L 516.949219 303.675781 Z M 516.921875 305.164062 " fill-opacity="1" fill-rule="nonzero"/><path fill="#ffdb4f" d="M 515.394531 308.445312 L 508.792969 308.445312 C 508.539062 308.445312 508.332031 308.652344 508.332031 308.90625 C 508.332031 309.164062 508.539062 309.371094 508.792969 309.371094 L 515.394531 309.371094 C 515.648438 309.371094 515.855469 309.164062 515.855469 308.90625 C 515.855469 308.652344 515.648438 308.445312 515.394531 308.445312 Z M 515.394531 308.445312 " fill-opacity="1" fill-rule="nonzero"/><g clip-path="url(#17cd7337ae)"><path fill="#ffdb4f" d="M 514.023438 310.761719 L 510.089844 310.761719 C 509.832031 310.761719 509.625 310.96875 509.625 311.222656 C 509.625 311.480469 509.832031 311.6875 510.089844 311.6875 L 514.023438 311.6875 C 514.28125 311.6875 514.488281 311.480469 514.488281 311.222656 C 514.488281 310.96875 514.28125 310.761719 514.023438 310.761719 Z M 514.023438 310.761719 " fill-opacity="1" fill-rule="nonzero"/></g><path fill="#ffdb4f" d="M 510.089844 291.160156 C 510.421875 291.160156 510.734375 291.019531 510.957031 290.769531 L 518.25 282.570312 C 518.675781 282.089844 518.632812 281.359375 518.15625 280.933594 C 517.675781 280.507812 516.941406 280.550781 516.515625 281.03125 L 510.191406 288.144531 L 507.195312 283.941406 C 506.824219 283.421875 506.101562 283.300781 505.578125 283.671875 C 505.058594 284.039062 504.933594 284.761719 505.304688 285.285156 L 509.144531 290.671875 C 509.351562 290.957031 509.675781 291.136719 510.027344 291.15625 C 510.046875 291.15625 510.070312 291.160156 510.089844 291.160156 Z M 510.089844 291.160156 " fill-opacity="1" fill-rule="nonzero"/><g clip-path="url(#7b7fcd1dc9)"><path fill="#ffdb4f" d="M 512.214844 271.789062 C 512.472656 271.789062 512.679688 271.582031 512.679688 271.324219 L 512.679688 264.902344 C 512.679688 264.644531 512.472656 264.4375 512.214844 264.4375 C 511.957031 264.4375 511.75 264.644531 511.75 264.902344 L 511.75 271.324219 C 511.75 271.582031 511.957031 271.789062 512.214844 271.789062 Z M 512.214844 271.789062 " fill-opacity="1" fill-rule="nonzero"/></g><g clip-path="url(#2ef9544cf9)"><path fill="#ffdb4f" d="M 497.117188 285.925781 L 491.683594 285.925781 C 491.425781 285.925781 491.21875 286.132812 491.21875 286.386719 C 491.21875 286.644531 491.425781 286.851562 491.683594 286.851562 L 497.117188 286.851562 C 497.375 286.851562 497.582031 286.644531 497.582031 286.386719 C 497.582031 286.132812 497.375 285.925781 497.117188 285.925781 Z M 497.117188 285.925781 " fill-opacity="1" fill-rule="nonzero"/></g><g clip-path="url(#02f0fd5e35)"><path fill="#ffdb4f" d="M 532.742188 285.925781 L 527.308594 285.925781 C 527.050781 285.925781 526.84375 286.132812 526.84375 286.386719 C 526.84375 286.644531 527.050781 286.851562 527.308594 286.851562 L 532.742188 286.851562 C 533 286.851562 533.207031 286.644531 533.207031 286.386719 C 533.207031 286.132812 533 285.925781 532.742188 285.925781 Z M 532.742188 285.925781 " fill-opacity="1" fill-rule="nonzero"/></g><path fill="#ffdb4f" d="M 501.210938 296.710938 L 497.851562 300.066406 C 497.667969 300.246094 497.667969 300.539062 497.851562 300.722656 C 497.941406 300.8125 498.058594 300.859375 498.179688 300.859375 C 498.296875 300.859375 498.414062 300.8125 498.507812 300.722656 L 501.867188 297.367188 C 502.050781 297.1875 502.050781 296.894531 501.867188 296.710938 C 501.6875 296.53125 501.394531 296.53125 501.210938 296.710938 Z M 501.210938 296.710938 " fill-opacity="1" fill-rule="nonzero"/><path fill="#ffdb4f" d="M 522.886719 276.199219 C 523.003906 276.199219 523.125 276.152344 523.214844 276.0625 L 527.554688 271.730469 C 527.738281 271.550781 527.738281 271.257812 527.554688 271.074219 C 527.375 270.894531 527.082031 270.894531 526.898438 271.074219 L 522.558594 275.40625 C 522.378906 275.589844 522.378906 275.882812 522.558594 276.0625 C 522.648438 276.152344 522.765625 276.199219 522.886719 276.199219 Z M 522.886719 276.199219 " fill-opacity="1" fill-rule="nonzero"/><path fill="#ffdb4f" d="M 523.214844 296.710938 C 523.035156 296.53125 522.738281 296.53125 522.558594 296.710938 C 522.378906 296.890625 522.378906 297.183594 522.558594 297.367188 L 525.921875 300.722656 C 526.011719 300.8125 526.128906 300.859375 526.25 300.859375 C 526.367188 300.859375 526.488281 300.8125 526.578125 300.722656 C 526.757812 300.542969 526.757812 300.25 526.578125 300.066406 Z M 523.214844 296.710938 " fill-opacity="1" fill-rule="nonzero"/><path fill="#ffdb4f" d="M 501.210938 276.0625 C 501.300781 276.152344 501.421875 276.199219 501.539062 276.199219 C 501.660156 276.199219 501.777344 276.152344 501.867188 276.0625 C 502.050781 275.882812 502.050781 275.589844 501.867188 275.40625 L 497.527344 271.074219 C 497.347656 270.894531 497.054688 270.894531 496.871094 271.074219 C 496.691406 271.257812 496.691406 271.550781 496.871094 271.730469 Z M 501.210938 276.0625 " fill-opacity="1" fill-rule="nonzero"/></svg>