<svg xmlns="http://www.w3.org/2000/svg" xmlns:xlink="http://www.w3.org/1999/xlink" width="1366" zoomAndPan="magnify" viewBox="0 0 1024.5 576" height="768" preserveAspectRatio="xMidYMid meet" version="1.0"><defs><clipPath id="7a10994ace"><path d="M 420.480469 207.15625 L 543 207.15625 L 543 355 L 420.480469 355 Z M 420.480469 207.15625 " clip-rule="nonzero"/></clipPath><clipPath id="8e70063621"><path d="M 484 269 L 586 269 L 586 369.15625 L 484 369.15625 Z M 484 269 " clip-rule="nonzero"/></clipPath></defs><g clip-path="url(#7a10994ace)"><path fill="#ffdb4f" d="M 480.957031 351.988281 L 421.65625 351.988281 L 422.757812 353.09375 L 422.757812 214.148438 C 422.757812 212.28125 422.847656 210.382812 422.757812 208.535156 C 422.757812 208.453125 422.757812 208.371094 422.757812 208.289062 L 421.65625 209.375 L 536.484375 209.375 C 538.035156 209.375 539.609375 209.472656 541.152344 209.375 L 541.355469 209.375 L 540.253906 208.273438 L 540.253906 256.347656 C 540.253906 258.566406 540.15625 260.8125 540.253906 263.03125 L 540.253906 263.125 C 540.253906 264.546875 542.460938 264.546875 542.460938 263.125 L 542.460938 215.050781 C 542.460938 212.832031 542.554688 210.585938 542.460938 208.367188 C 542.457031 208.335938 542.457031 208.304688 542.460938 208.273438 C 542.460938 208.125 542.429688 207.984375 542.375 207.847656 C 542.320312 207.714844 542.242188 207.59375 542.136719 207.488281 C 542.035156 207.382812 541.914062 207.300781 541.78125 207.246094 C 541.644531 207.1875 541.503906 207.15625 541.355469 207.15625 L 426.523438 207.15625 C 424.96875 207.15625 423.410156 207.15625 421.855469 207.15625 L 421.65625 207.15625 C 421.507812 207.15625 421.363281 207.183594 421.226562 207.238281 C 421.089844 207.296875 420.96875 207.378906 420.863281 207.480469 C 420.757812 207.585938 420.675781 207.707031 420.621094 207.84375 C 420.5625 207.980469 420.535156 208.125 420.535156 208.273438 L 420.535156 347.210938 C 420.535156 349.085938 420.5 350.96875 420.535156 352.824219 L 420.535156 353.09375 C 420.539062 353.238281 420.566406 353.378906 420.621094 353.511719 C 420.679688 353.644531 420.757812 353.765625 420.863281 353.867188 C 420.964844 353.96875 421.082031 354.050781 421.21875 354.105469 C 421.351562 354.164062 421.492188 354.191406 421.636719 354.195312 L 480.957031 354.195312 C 482.375 354.195312 482.375 351.992188 480.957031 351.992188 Z M 480.957031 351.988281 " fill-opacity="1" fill-rule="nonzero"/></g><g clip-path="url(#8e70063621)"><path fill="#ffdb4f" d="M 495.304688 336.746094 C 492.734375 345.226562 489.488281 353.472656 486.410156 361.789062 C 485.683594 363.75 484.972656 365.710938 484.300781 367.683594 C 484.277344 367.777344 484.265625 367.871094 484.265625 367.96875 C 484.265625 368.066406 484.277344 368.160156 484.304688 368.253906 C 484.328125 368.347656 484.367188 368.433594 484.414062 368.519531 C 484.464844 368.601562 484.523438 368.679688 484.589844 368.746094 C 484.660156 368.816406 484.734375 368.875 484.816406 368.921875 C 484.902344 368.972656 484.992188 369.007812 485.082031 369.035156 C 485.175781 369.058594 485.273438 369.074219 485.371094 369.074219 C 485.464844 369.074219 485.5625 369.0625 485.65625 369.039062 C 490.914062 367.652344 496.160156 366.234375 501.394531 364.777344 C 507.070312 363.195312 512.734375 361.582031 518.371094 359.890625 C 521.175781 359.027344 523.992188 358.160156 526.765625 357.277344 C 526.859375 357.25 526.945312 357.210938 527.027344 357.160156 C 527.109375 357.113281 527.179688 357.050781 527.246094 356.984375 C 527.316406 356.914062 527.371094 356.839844 527.417969 356.757812 C 527.464844 356.671875 527.5 356.585938 527.523438 356.492188 C 527.550781 356.402344 527.5625 356.304688 527.5625 356.210938 C 527.5625 356.117188 527.550781 356.023438 527.527344 355.929688 C 527.5 355.835938 527.464844 355.75 527.417969 355.664062 C 527.371094 355.582031 527.316406 355.507812 527.25 355.4375 C 522.582031 350.183594 517.414062 345.394531 512.355469 340.519531 C 509.792969 338.050781 507.242188 335.566406 504.777344 333.003906 C 503.660156 331.835938 502.480469 330.679688 501.472656 329.417969 C 501.328125 329.238281 501.097656 328.960938 501.125 328.714844 C 501.148438 328.46875 501.449219 328.167969 501.628906 327.976562 C 502.339844 327.242188 503.078125 326.535156 503.789062 325.816406 L 521.464844 308.257812 L 539.132812 290.699219 L 556.804688 273.136719 L 559.019531 270.9375 L 557.464844 270.9375 L 577.855469 291.863281 L 583.648438 297.828125 L 583.648438 296.269531 C 577.632812 303.640625 571.378906 310.808594 564.890625 317.773438 C 558.402344 324.738281 551.667969 331.511719 544.6875 338.09375 C 540.789062 341.765625 536.824219 345.363281 532.785156 348.886719 C 532.683594 348.992188 532.601562 349.109375 532.546875 349.246094 C 532.492188 349.378906 532.464844 349.519531 532.464844 349.667969 C 532.464844 349.8125 532.492188 349.953125 532.546875 350.089844 C 532.601562 350.222656 532.683594 350.34375 532.785156 350.445312 C 532.890625 350.550781 533.007812 350.628906 533.144531 350.683594 C 533.28125 350.742188 533.421875 350.769531 533.566406 350.769531 C 533.714844 350.769531 533.855469 350.742188 533.988281 350.683594 C 534.125 350.628906 534.242188 350.550781 534.347656 350.445312 C 541.507812 344.175781 548.460938 337.679688 555.210938 330.957031 C 561.957031 324.230469 568.496094 317.273438 574.832031 310.078125 C 578.371094 306.050781 581.828125 301.960938 585.203125 297.8125 C 585.410156 297.59375 585.515625 297.335938 585.515625 297.035156 C 585.515625 296.734375 585.410156 296.472656 585.203125 296.253906 L 564.8125 275.3125 L 559.015625 269.359375 C 558.914062 269.257812 558.792969 269.179688 558.660156 269.125 C 558.523438 269.070312 558.382812 269.042969 558.238281 269.042969 C 558.09375 269.042969 557.953125 269.070312 557.820312 269.125 C 557.683594 269.179688 557.566406 269.257812 557.460938 269.359375 L 539.40625 287.300781 L 521.351562 305.238281 L 503.375 323.101562 L 501.082031 325.382812 C 500.429688 326.03125 499.640625 326.675781 499.222656 327.507812 C 498.242188 329.433594 499.878906 330.960938 501.074219 332.253906 C 503.457031 334.847656 505.960938 337.355469 508.488281 339.816406 C 513.695312 344.898438 519.078125 349.820312 524.046875 355.152344 C 524.605469 355.75 525.15625 356.351562 525.695312 356.957031 L 526.179688 355.117188 C 520.992188 356.792969 515.804688 358.34375 510.582031 359.867188 C 504.925781 361.5 499.253906 363.082031 493.566406 364.617188 C 490.738281 365.386719 487.90625 366.140625 485.070312 366.886719 L 486.429688 368.242188 C 489.117188 360.328125 492.308594 352.585938 495.035156 344.6875 C 495.898438 342.246094 496.683594 339.792969 497.433594 337.324219 C 497.84375 335.964844 495.703125 335.382812 495.304688 336.738281 Z M 495.304688 336.746094 " fill-opacity="1" fill-rule="nonzero"/></g><path fill="#ffdb4f" d="M 569.382812 283.46875 L 552.355469 301.933594 L 535.328125 320.394531 L 525.6875 330.855469 C 524.726562 331.898438 526.277344 333.449219 527.242188 332.410156 L 544.269531 313.949219 L 561.292969 295.484375 L 570.941406 285.023438 C 571.902344 283.984375 570.34375 282.433594 569.382812 283.46875 Z M 569.382812 283.46875 " fill-opacity="1" fill-rule="nonzero"/><path fill="#ffdb4f" d="M 565.253906 264.441406 C 570.945312 256.867188 582.207031 252.742188 591.183594 256.671875 C 595.507812 258.566406 599.542969 262.089844 600.824219 266.761719 C 602.382812 272.453125 598.847656 277.796875 595.417969 282.027344 C 591.128906 287.316406 586.960938 292.714844 582.40625 297.777344 C 581.460938 298.832031 583.015625 300.371094 583.96875 299.335938 C 588.226562 294.589844 592.148438 289.566406 596.152344 284.605469 C 600.050781 279.761719 604.21875 274.222656 603.226562 267.601562 C 602.425781 262.304688 598.316406 257.976562 593.742188 255.511719 C 588.988281 252.953125 583.519531 252.429688 578.292969 253.640625 C 575.664062 254.25 573.1875 255.238281 570.863281 256.613281 C 568.539062 257.988281 566.476562 259.679688 564.675781 261.6875 C 564.210938 262.214844 563.769531 262.765625 563.347656 263.332031 C 563.277344 263.457031 563.230469 263.59375 563.210938 263.738281 C 563.191406 263.882812 563.203125 264.027344 563.238281 264.167969 C 563.277344 264.308594 563.339844 264.4375 563.425781 264.550781 C 563.511719 264.667969 563.621094 264.765625 563.746094 264.839844 C 563.871094 264.910156 564.007812 264.953125 564.152344 264.972656 C 564.296875 264.988281 564.4375 264.980469 564.578125 264.941406 C 564.71875 264.90625 564.847656 264.84375 564.964844 264.757812 C 565.082031 264.671875 565.175781 264.566406 565.253906 264.441406 Z M 565.253906 264.441406 " fill-opacity="1" fill-rule="nonzero"/><path fill="#ffdb4f" d="M 442.515625 243.382812 L 524.332031 243.382812 C 525.75 243.382812 525.753906 241.183594 524.332031 241.183594 L 442.515625 241.183594 C 441.101562 241.183594 441.101562 243.382812 442.515625 243.382812 Z M 442.515625 243.382812 " fill-opacity="1" fill-rule="nonzero"/><path fill="#ffdb4f" d="M 441.96875 272.457031 L 497.429688 272.457031 C 498.847656 272.457031 498.851562 270.253906 497.429688 270.253906 L 441.96875 270.253906 C 440.550781 270.253906 440.550781 272.457031 441.96875 272.457031 Z M 441.96875 272.457031 " fill-opacity="1" fill-rule="nonzero"/><path fill="#ffdb4f" d="M 441.96875 302.679688 L 475.816406 302.679688 C 477.234375 302.679688 477.242188 300.476562 475.816406 300.476562 L 441.96875 300.476562 C 440.550781 300.476562 440.550781 302.679688 441.96875 302.679688 Z M 441.96875 302.679688 " fill-opacity="1" fill-rule="nonzero"/></svg>