<svg xmlns="http://www.w3.org/2000/svg" xmlns:xlink="http://www.w3.org/1999/xlink" width="1366" zoomAndPan="magnify" viewBox="0 0 1024.5 576" height="768" preserveAspectRatio="xMidYMid meet" version="1.0"><defs><clipPath id="057a260fe9"><path d="M 455.808594 256 L 507 256 L 507 297 L 455.808594 297 Z M 455.808594 256 " clip-rule="nonzero"/></clipPath><clipPath id="dbdfa9d0a4"><path d="M 466 308 L 567 308 L 567 350.992188 L 466 350.992188 Z M 466 308 " clip-rule="nonzero"/></clipPath></defs><path fill="#ffffff" d="M 464.871094 296.027344 C 464.800781 296.027344 464.726562 296.007812 464.664062 295.976562 C 464.554688 295.921875 464.472656 295.828125 464.4375 295.710938 L 456.429688 271.113281 C 456.351562 270.875 456.484375 270.621094 456.722656 270.542969 L 497.570312 257.394531 C 497.613281 257.378906 497.664062 257.371094 497.710938 257.371094 C 497.78125 257.371094 497.851562 257.390625 497.917969 257.421875 C 498.027344 257.476562 498.105469 257.570312 498.144531 257.6875 L 506.152344 282.285156 C 506.230469 282.523438 506.097656 282.777344 505.859375 282.855469 L 465.011719 296.003906 C 464.964844 296.019531 464.917969 296.027344 464.871094 296.027344 " fill-opacity="1" fill-rule="nonzero"/><g clip-path="url(#057a260fe9)"><path fill="#ffffff" d="M 497.710938 256.917969 C 497.617188 256.917969 497.519531 256.933594 497.429688 256.960938 L 456.582031 270.109375 C 456.101562 270.265625 455.839844 270.777344 455.996094 271.253906 L 464 295.851562 C 464.078125 296.082031 464.238281 296.273438 464.457031 296.378906 C 464.585938 296.445312 464.726562 296.480469 464.871094 296.480469 C 464.964844 296.480469 465.0625 296.464844 465.152344 296.4375 L 506 283.289062 C 506.480469 283.132812 506.742188 282.621094 506.585938 282.144531 L 498.578125 257.546875 C 498.503906 257.316406 498.339844 257.128906 498.125 257.015625 C 497.996094 256.949219 497.851562 256.917969 497.710938 256.917969 Z M 497.710938 257.828125 L 505.71875 282.425781 L 464.871094 295.570312 L 456.863281 270.976562 L 497.710938 257.828125 " fill-opacity="1" fill-rule="nonzero"/></g><path fill="#2b3974" d="M 505.71875 282.425781 L 464.871094 295.570312 L 456.863281 270.976562 L 497.710938 257.828125 L 505.71875 282.425781 " fill-opacity="1" fill-rule="nonzero"/><path fill="#ffffff" d="M 497.710938 257.828125 L 492.34375 259.550781 L 480.492188 273.667969 L 462.566406 269.136719 L 456.929688 270.953125 L 456.886719 271.042969 L 457.878906 274.09375 L 476.238281 278.734375 L 464.097656 293.195312 L 464.871094 295.570312 L 471.761719 293.355469 L 482.667969 280.359375 L 499.167969 284.53125 L 505.71875 282.425781 L 504.875 279.835938 L 486.921875 275.296875 L 498.792969 261.160156 L 497.710938 257.828125 " fill-opacity="1" fill-rule="nonzero"/><path fill="#ed1c24" d="M 494.277344 258.929688 L 481.132812 276.21875 L 460.292969 269.871094 L 457.410156 270.800781 L 480.019531 277.6875 L 466.921875 294.910156 L 469.804688 293.984375 L 481.789062 278.222656 L 500.78125 284.011719 L 503.667969 283.082031 L 482.902344 276.757812 L 497.164062 258 L 494.277344 258.929688 " fill-opacity="1" fill-rule="nonzero"/><path fill="#ffffff" d="M 488.117188 288.089844 L 482.46875 289.90625 L 474.460938 265.308594 L 480.109375 263.492188 L 488.117188 288.089844 " fill-opacity="1" fill-rule="nonzero"/><path fill="#ed1c24" d="M 486.917969 288.472656 L 483.671875 289.519531 L 475.664062 264.921875 L 478.910156 263.878906 L 486.917969 288.472656 " fill-opacity="1" fill-rule="nonzero"/><path fill="#ffffff" d="M 461.78125 286.082031 L 459.953125 280.464844 L 500.796875 267.316406 L 502.628906 272.933594 L 461.78125 286.082031 " fill-opacity="1" fill-rule="nonzero"/><path fill="#ed1c24" d="M 461.394531 284.886719 L 460.339844 281.660156 L 501.1875 268.511719 L 502.238281 271.742188 L 461.394531 284.886719 " fill-opacity="1" fill-rule="nonzero"/><path fill="#ffffff" d="M 524.472656 253.835938 C 524.488281 253.828125 524.558594 253.804688 524.722656 253.757812 C 524.871094 253.726562 524.988281 253.695312 525.078125 253.675781 C 525.472656 253.585938 525.851562 253.542969 526.214844 253.542969 C 527.046875 253.542969 527.800781 253.769531 528.511719 254.238281 C 529.53125 254.898438 530.191406 255.851562 530.539062 257.164062 C 530.898438 258.476562 530.804688 259.632812 530.261719 260.699219 C 529.710938 261.789062 528.820312 262.507812 527.546875 262.910156 L 527.519531 262.914062 C 527.449219 262.941406 527.351562 262.96875 527.230469 263.003906 C 527.121094 263.027344 527.035156 263.046875 526.96875 263.058594 C 526.894531 263.070312 526.820312 263.089844 526.75 263.117188 C 526.40625 263.183594 526.070312 263.21875 525.75 263.21875 C 524.914062 263.21875 524.164062 262.988281 523.449219 262.523438 C 522.433594 261.859375 521.773438 260.902344 521.421875 259.59375 C 521.070312 258.285156 521.164062 257.128906 521.703125 256.054688 C 522.253906 254.964844 523.140625 254.246094 524.410156 253.855469 Z M 505.859375 262.757812 L 505.859375 253.867188 L 507.507812 253.867188 C 508.792969 253.902344 509.800781 254.328125 510.585938 255.175781 C 511.363281 256.015625 511.738281 257.042969 511.738281 258.3125 C 511.738281 259.585938 511.363281 260.609375 510.585938 261.445312 C 509.800781 262.296875 508.792969 262.722656 507.507812 262.757812 Z M 500.824219 267.773438 L 507.671875 267.773438 C 507.75 267.773438 507.828125 267.765625 507.902344 267.753906 C 510.460938 267.628906 512.671875 266.671875 514.480469 264.910156 C 515.375 264.039062 515.949219 263.097656 516.320312 262.167969 C 517.152344 264.273438 518.617188 265.925781 520.699219 267.082031 C 522.277344 267.953125 523.941406 268.394531 525.652344 268.394531 C 526.558594 268.394531 527.488281 268.269531 528.421875 268.023438 C 528.480469 268.011719 528.542969 267.992188 528.605469 267.972656 L 528.617188 267.96875 L 528.675781 267.953125 C 531.402344 267.230469 533.503906 265.660156 534.929688 263.292969 C 536.363281 260.902344 536.730469 258.347656 536.019531 255.699219 C 535.300781 253.058594 533.703125 251.03125 531.265625 249.675781 C 529.691406 248.808594 528.027344 248.367188 526.316406 248.367188 C 525.421875 248.367188 524.503906 248.488281 523.578125 248.726562 C 523.511719 248.742188 523.441406 248.757812 523.375 248.78125 L 523.371094 248.78125 C 523.324219 248.792969 523.277344 248.804688 523.230469 248.820312 C 520.535156 249.550781 518.449219 251.113281 517.035156 253.46875 C 516.902344 253.683594 516.785156 253.902344 516.671875 254.121094 C 515.714844 251.261719 512.625 248.851562 509.476562 248.851562 L 500.824219 248.851562 C 500.085938 248.851562 499.492188 249.441406 499.492188 250.175781 L 499.492188 252.546875 C 499.492188 253.171875 499.929688 253.699219 500.519531 253.832031 L 500.519531 262.789062 C 499.929688 262.925781 499.492188 263.453125 499.492188 264.078125 L 499.492188 266.449219 C 499.492188 267.179688 500.085938 267.773438 500.824219 267.773438 " fill-opacity="1" fill-rule="nonzero"/><path fill="#ffffff" d="M 516.683594 294.949219 L 515.976562 294.949219 L 515.976562 293.796875 L 517.703125 293.796875 C 517.742188 293.964844 517.8125 294.121094 517.910156 294.253906 L 517.855469 294.253906 C 517.347656 294.253906 516.910156 294.535156 516.683594 294.949219 Z M 517.523438 273.726562 C 517.496094 273.84375 517.46875 273.96875 517.429688 274.105469 C 517.363281 274.125 517.300781 274.144531 517.234375 274.167969 C 517.332031 274.003906 517.429688 273.855469 517.523438 273.726562 Z M 497.972656 297.761719 C 497.117188 296.851562 495.882812 296.101562 494.207031 295.472656 C 492.957031 295.007812 492.511719 294.699219 492.382812 294.585938 C 492.242188 294.464844 492.175781 294.324219 492.152344 294.113281 C 492.140625 293.988281 492.164062 293.964844 492.199219 293.929688 C 492.3125 293.816406 492.621094 293.742188 493.03125 293.742188 C 493.457031 293.742188 493.84375 293.789062 494.199219 293.886719 L 494.199219 294.003906 C 494.199219 294.734375 494.796875 295.328125 495.53125 295.328125 L 497.820312 295.328125 C 498.140625 295.328125 498.429688 295.210938 498.660156 295.023438 L 498.660156 298.660156 C 498.460938 298.339844 498.234375 298.039062 497.972656 297.761719 Z M 504.589844 295.5 L 503.917969 295.5 L 503.917969 293.753906 L 505.582031 293.753906 C 505.820312 293.804688 506.007812 293.914062 506.175781 294.09375 C 506.332031 294.265625 506.398438 294.433594 506.390625 294.652344 C 506.386719 294.84375 506.375 295.109375 505.695312 295.335938 C 505.367188 295.445312 505.035156 295.5 504.714844 295.5 Z M 547.757812 302.363281 L 546.8125 302.363281 L 543.394531 298.007812 L 546.613281 293.765625 L 547.457031 293.765625 C 548.191406 293.765625 548.789062 293.171875 548.789062 292.441406 L 548.789062 290.175781 C 548.789062 289.445312 548.191406 288.855469 547.457031 288.855469 L 544.757812 288.855469 C 544.34375 288.855469 543.949219 289.046875 543.699219 289.378906 L 541.972656 291.644531 C 541.945312 291.679688 541.917969 291.71875 541.894531 291.757812 L 541.894531 290.132812 C 541.894531 289.402344 541.300781 288.808594 540.566406 288.808594 L 536.128906 288.808594 C 535.394531 288.808594 534.800781 289.402344 534.800781 290.132812 L 534.800781 292.398438 C 534.800781 292.984375 535.1875 293.484375 535.71875 293.65625 L 535.71875 302.425781 C 535.664062 302.445312 535.613281 302.464844 535.5625 302.492188 C 535.503906 302.484375 535.441406 302.472656 535.378906 302.472656 L 535.082031 302.472656 L 531.261719 289.863281 C 531.09375 289.300781 530.578125 288.921875 529.992188 288.921875 L 525.621094 288.921875 C 524.886719 288.921875 524.289062 289.511719 524.289062 290.242188 L 524.289062 292.308594 C 524.289062 292.644531 524.417969 292.949219 524.621094 293.183594 L 522.226562 301.09375 C 521.984375 300.847656 521.648438 300.691406 521.273438 300.691406 L 518.996094 300.691406 C 518.261719 300.691406 517.664062 301.28125 517.664062 302.011719 L 517.664062 302.285156 L 515.976562 302.285156 L 515.976562 299.945312 L 516.683594 299.945312 C 516.910156 300.359375 517.347656 300.640625 517.855469 300.640625 L 520.132812 300.640625 C 520.867188 300.640625 521.464844 300.046875 521.464844 299.316406 L 521.464844 295.578125 C 521.464844 295.292969 521.371094 295.027344 521.214844 294.8125 L 521.273438 294.8125 C 522.007812 294.8125 522.601562 294.21875 522.601562 293.488281 L 522.601562 290.132812 C 522.601562 289.402344 522.007812 288.808594 521.273438 288.808594 L 511.195312 288.808594 C 510.460938 288.808594 509.867188 289.402344 509.867188 290.132812 L 509.867188 290.355469 C 508.804688 289.296875 507.511719 288.753906 506.019531 288.753906 L 503.261719 288.753906 C 504.765625 287.492188 505.53125 285.648438 505.910156 284.738281 C 506.007812 284.503906 506.136719 284.175781 506.246094 283.910156 C 507.6875 283.214844 509.179688 282.378906 510.660156 280.96875 C 511.636719 282.390625 513.292969 283.191406 515.402344 283.191406 C 517.445312 283.191406 519.277344 282.417969 520.75 280.949219 C 521.273438 280.933594 521.800781 280.851562 522.316406 280.699219 C 522.511719 281.285156 522.804688 281.714844 523.078125 282.011719 C 523.777344 282.773438 524.820312 283.191406 526.007812 283.191406 C 527.199219 283.191406 528.296875 282.800781 529.339844 282.007812 C 530.039062 282.761719 531.066406 283.191406 532.296875 283.191406 C 535.066406 283.191406 537.691406 281.046875 540.105469 276.816406 C 540.308594 276.457031 540.332031 276.027344 540.171875 275.648438 C 539.804688 274.78125 538.761719 274.027344 537.792969 273.9375 C 537.753906 273.933594 537.710938 273.929688 537.667969 273.929688 C 537.195312 273.929688 536.757812 274.179688 536.515625 274.589844 C 536.089844 275.320312 535.710938 275.910156 535.378906 276.382812 L 537.851562 270.269531 C 538.015625 269.859375 537.964844 269.398438 537.71875 269.035156 C 537.472656 268.671875 537.058594 268.453125 536.617188 268.453125 L 532.980469 268.453125 C 532.4375 268.453125 531.949219 268.78125 531.746094 269.28125 L 531.65625 269.507812 C 531.621094 269.34375 531.554688 269.179688 531.453125 269.035156 C 531.207031 268.671875 530.792969 268.453125 530.351562 268.453125 L 526.71875 268.453125 C 526.175781 268.453125 525.6875 268.78125 525.484375 269.277344 L 523.726562 273.59375 C 523.679688 270.238281 521.535156 268.15625 518.101562 268.15625 C 513.628906 268.15625 511.011719 271.730469 510.09375 274.863281 C 509.933594 275.132812 509.773438 275.390625 509.613281 275.636719 L 511.8125 270.273438 C 511.980469 269.867188 511.933594 269.402344 511.683594 269.035156 C 511.4375 268.671875 511.023438 268.453125 510.582031 268.453125 L 506.945312 268.453125 C 506.40625 268.453125 505.917969 268.777344 505.714844 269.277344 L 505.621094 269.507812 C 505.585938 269.339844 505.519531 269.179688 505.417969 269.035156 C 505.171875 268.671875 504.757812 268.453125 504.316406 268.453125 L 500.683594 268.453125 C 500.140625 268.453125 499.652344 268.78125 499.449219 269.277344 L 496.867188 275.621094 C 495.820312 278.207031 495.777344 280.230469 496.738281 281.640625 C 496.980469 282 497.28125 282.300781 497.632812 282.539062 C 496.289062 283.492188 495.507812 284.8125 495.488281 286.238281 C 495.472656 287.261719 495.839844 288.210938 496.53125 288.910156 C 496.738281 289.121094 497.019531 289.347656 497.378906 289.542969 C 496.980469 289.425781 496.417969 289.261719 495.617188 289.039062 C 494.769531 288.792969 493.84375 288.667969 492.875 288.667969 C 490.988281 288.667969 489.449219 289.203125 488.300781 290.261719 C 487.101562 291.375 486.554688 292.863281 486.707031 294.574219 C 486.949219 297.195312 488.800781 299.128906 492.210938 300.332031 C 493.277344 300.71875 493.699219 301.042969 493.855469 301.203125 L 493.871094 301.222656 C 493.957031 301.308594 494.058594 301.441406 494.085938 301.734375 C 494.113281 302.050781 494.027344 302.125 493.964844 302.179688 C 493.773438 302.34375 493.417969 302.429688 492.929688 302.429688 C 492.476562 302.429688 492.039062 302.371094 491.605469 302.25 L 491.605469 302.078125 C 491.605469 301.347656 491.011719 300.757812 490.277344 300.757812 L 487.984375 300.757812 C 487.25 300.757812 486.65625 301.347656 486.65625 302.078125 L 486.65625 305.015625 C 486.65625 305.585938 487.023438 306.089844 487.566406 306.269531 C 490.152344 307.125 491.882812 307.527344 493.019531 307.527344 C 495.050781 307.527344 496.65625 307 497.808594 305.964844 C 497.816406 306.6875 498.40625 307.273438 499.136719 307.273438 L 503.40625 307.273438 C 504.140625 307.273438 504.738281 306.679688 504.738281 305.953125 L 504.738281 303.605469 C 504.738281 303.058594 504.398438 302.585938 503.917969 302.386719 L 503.917969 300.449219 C 504.109375 300.449219 504.289062 300.453125 504.464844 300.453125 C 506.027344 300.453125 507.15625 300.339844 507.914062 300.109375 C 509.039062 299.757812 509.953125 298.992188 510.636719 297.832031 C 510.664062 297.785156 510.691406 297.738281 510.71875 297.6875 L 510.71875 302.375 C 510.21875 302.566406 509.867188 303.042969 509.867188 303.605469 L 509.867188 305.953125 C 509.867188 306.679688 510.460938 307.273438 511.195312 307.273438 L 521.265625 307.273438 C 521.425781 307.34375 521.605469 307.382812 521.792969 307.382812 L 524.703125 307.382812 C 525.289062 307.382812 525.808594 307 525.976562 306.441406 L 526.863281 303.511719 L 530.023438 303.511719 L 530.921875 306.445312 C 531.089844 307 531.605469 307.382812 532.191406 307.382812 L 535.378906 307.382812 C 535.582031 307.382812 535.769531 307.335938 535.941406 307.253906 C 536.003906 307.261719 536.066406 307.273438 536.128906 307.273438 L 540.566406 307.273438 C 541.300781 307.273438 541.894531 306.679688 541.894531 305.953125 L 541.894531 304.46875 L 543.375 306.320312 L 543.695312 306.746094 C 543.945312 307.078125 544.339844 307.273438 544.757812 307.273438 L 547.757812 307.273438 C 548.492188 307.273438 549.085938 306.679688 549.085938 305.953125 L 549.085938 303.683594 C 549.085938 302.953125 548.492188 302.363281 547.757812 302.363281 " fill-opacity="1" fill-rule="nonzero"/><path fill="#2b3974" d="M 507.511719 264.078125 C 509.171875 264.042969 510.515625 263.460938 511.550781 262.34375 C 512.558594 261.257812 513.058594 259.917969 513.058594 258.3125 C 513.058594 256.707031 512.558594 255.363281 511.550781 254.28125 C 510.515625 253.164062 509.171875 252.585938 507.511719 252.546875 L 504.519531 252.546875 L 504.519531 264.078125 Z M 515.640625 258.3125 C 515.640625 260.507812 515.152344 262.390625 513.539062 263.964844 C 511.925781 265.539062 509.964844 266.363281 507.660156 266.441406 L 507.660156 266.449219 L 500.8125 266.449219 L 500.8125 264.078125 L 501.839844 264.078125 L 501.839844 252.546875 L 500.8125 252.546875 L 500.8125 250.175781 L 509.464844 250.175781 C 512.507812 250.175781 515.640625 253.082031 515.640625 255.894531 C 515.640625 257.855469 515.640625 256.117188 515.640625 258.3125 " fill-opacity="1" fill-rule="nonzero"/><path fill="#2b3974" d="M 527.933594 264.167969 C 529.554688 263.660156 530.722656 262.703125 531.4375 261.296875 C 532.128906 259.933594 532.257812 258.445312 531.816406 256.824219 C 531.382812 255.199219 530.523438 253.96875 529.234375 253.136719 C 527.910156 252.265625 526.417969 252.015625 524.761719 252.386719 C 524.667969 252.410156 524.542969 252.441406 524.382812 252.476562 C 524.214844 252.523438 524.089844 252.558594 524.007812 252.589844 C 522.386719 253.089844 521.21875 254.046875 520.503906 255.464844 C 519.816406 256.824219 519.691406 258.316406 520.125 259.933594 C 520.558594 261.554688 521.421875 262.785156 522.707031 263.625 C 524.03125 264.496094 525.523438 264.742188 527.179688 264.375 L 527.179688 264.363281 C 527.273438 264.347656 527.398438 264.320312 527.558594 264.285156 C 527.71875 264.238281 527.84375 264.199219 527.933594 264.167969 Z M 523.835938 250.027344 C 526.226562 249.390625 528.480469 249.660156 530.605469 250.832031 C 532.726562 252.011719 534.101562 253.75 534.726562 256.042969 C 535.34375 258.34375 535.027344 260.535156 533.777344 262.613281 C 532.53125 264.6875 530.710938 266.042969 528.320312 266.675781 L 528.265625 266.691406 L 528.21875 266.699219 L 528.164062 266.722656 L 528.105469 266.734375 C 525.722656 267.371094 523.46875 267.101562 521.335938 265.929688 C 519.210938 264.75 517.839844 263.007812 517.214844 260.707031 C 516.597656 258.40625 516.914062 256.21875 518.164062 254.144531 C 519.410156 252.074219 521.230469 250.71875 523.617188 250.082031 L 523.734375 250.058594 L 523.777344 250.035156 L 523.835938 250.027344 " fill-opacity="1" fill-rule="nonzero"/><path fill="#2b3974" d="M 498.195312 301.472656 C 498.316406 302.734375 497.992188 303.792969 497.234375 304.652344 C 496.328125 305.6875 494.917969 306.203125 493.007812 306.203125 C 492.042969 306.203125 490.367188 305.808594 487.976562 305.015625 L 487.976562 302.078125 L 490.265625 302.078125 L 490.265625 303.167969 C 491.121094 303.554688 492.007812 303.75 492.921875 303.75 C 493.746094 303.75 494.378906 303.5625 494.824219 303.179688 C 495.265625 302.796875 495.457031 302.28125 495.398438 301.628906 C 495.355469 301.085938 495.15625 300.636719 494.800781 300.285156 C 494.378906 299.851562 493.660156 299.453125 492.644531 299.085938 C 489.753906 298.066406 488.210938 296.523438 488.019531 294.457031 C 487.902344 293.140625 488.292969 292.066406 489.191406 291.234375 C 490.09375 290.402344 491.316406 289.988281 492.867188 289.988281 C 493.714844 289.988281 494.507812 290.09375 495.242188 290.308594 C 496.851562 290.761719 497.707031 291.019531 497.808594 291.078125 L 497.808594 294.003906 L 495.519531 294.003906 L 495.519531 292.992188 C 494.789062 292.609375 493.957031 292.417969 493.019531 292.417969 C 492.214844 292.417969 491.617188 292.617188 491.230469 293.015625 C 490.910156 293.34375 490.773438 293.75 490.820312 294.234375 C 490.871094 294.785156 491.097656 295.238281 491.503906 295.589844 C 491.917969 295.941406 492.660156 296.3125 493.726562 296.710938 C 495.195312 297.261719 496.285156 297.914062 496.992188 298.667969 C 497.699219 299.417969 498.101562 300.351562 498.195312 301.472656 " fill-opacity="1" fill-rule="nonzero"/><path fill="#2b3974" d="M 504.578125 296.820312 C 505.089844 296.835938 505.597656 296.757812 506.105469 296.589844 C 507.140625 296.246094 507.675781 295.609375 507.710938 294.6875 C 507.726562 294.128906 507.539062 293.632812 507.144531 293.199219 C 506.753906 292.777344 506.269531 292.519531 505.6875 292.433594 L 502.578125 292.433594 L 502.578125 296.820312 Z M 506.007812 290.078125 C 507.171875 290.078125 508.167969 290.507812 508.992188 291.363281 C 509.820312 292.214844 510.234375 293.25 510.234375 294.464844 C 510.234375 295.429688 509.980469 296.324219 509.480469 297.160156 C 508.964844 298.035156 508.308594 298.59375 507.511719 298.84375 C 506.648438 299.109375 505.019531 299.191406 502.621094 299.085938 L 502.578125 299.085938 L 502.578125 303.605469 L 503.394531 303.605469 L 503.394531 305.949219 L 499.125 305.949219 L 499.125 303.605469 L 499.976562 303.605469 L 499.976562 292.433594 L 499.125 292.433594 L 499.125 290.078125 L 506.007812 290.078125 " fill-opacity="1" fill-rule="nonzero"/><path fill="#2b3974" d="M 521.261719 290.132812 L 521.261719 293.488281 L 518.984375 293.488281 L 518.984375 292.476562 L 514.636719 292.476562 L 514.636719 296.269531 L 517.84375 296.269531 L 517.84375 295.578125 L 520.125 295.578125 L 520.125 299.316406 L 517.84375 299.316406 L 517.84375 298.625 L 514.636719 298.625 L 514.636719 303.605469 L 518.984375 303.605469 L 518.984375 302.011719 L 521.261719 302.011719 L 521.261719 305.949219 L 511.183594 305.949219 L 511.183594 303.605469 L 512.035156 303.605469 L 512.035156 292.476562 L 511.183594 292.476562 L 511.183594 290.132812 L 521.261719 290.132812 " fill-opacity="1" fill-rule="nonzero"/><path fill="#2b3974" d="M 526.648438 299.613281 L 530.222656 299.613281 L 528.429688 293.71875 Z M 529.980469 290.242188 L 534.085938 303.792969 L 535.367188 303.792969 L 535.367188 306.0625 L 532.179688 306.0625 L 530.996094 302.1875 L 525.863281 302.1875 L 524.691406 306.0625 L 521.78125 306.0625 L 521.78125 303.792969 L 522.789062 303.792969 L 526.261719 292.308594 L 525.609375 292.308594 L 525.609375 290.242188 L 529.980469 290.242188 " fill-opacity="1" fill-rule="nonzero"/><path fill="#2b3974" d="M 540.554688 290.132812 L 540.554688 292.398438 L 539.636719 292.398438 L 539.636719 296.941406 L 543.054688 292.441406 L 543.023438 292.441406 L 544.746094 290.175781 L 547.449219 290.175781 L 547.449219 292.441406 L 545.941406 292.441406 L 541.707031 298.019531 L 546.152344 303.683594 L 547.746094 303.683594 L 547.746094 305.949219 L 544.746094 305.949219 L 544.417969 305.511719 L 539.636719 299.527344 L 539.636719 303.683594 L 540.554688 303.683594 L 540.554688 305.949219 L 536.121094 305.949219 L 536.121094 303.683594 L 537.039062 303.683594 L 537.039062 292.398438 L 536.121094 292.398438 L 536.121094 290.132812 L 540.554688 290.132812 " fill-opacity="1" fill-rule="nonzero"/><path fill="#2e2a2b" d="M 499.140625 286.550781 C 499.640625 286.550781 500.417969 285.984375 501.171875 283.957031 C 500.488281 284.277344 500.007812 284.457031 499.390625 284.824219 C 498.867188 285.140625 498.523438 285.550781 498.523438 285.9375 C 498.523438 286.277344 498.75 286.550781 499.140625 286.550781 Z M 512.671875 276.164062 C 510.316406 280.253906 507.871094 281.6875 505.195312 282.9375 C 505.195312 282.9375 504.855469 283.777344 504.671875 284.230469 C 503.734375 286.480469 502.363281 288.753906 499.621094 288.753906 C 497.675781 288.753906 496.785156 287.550781 496.808594 286.253906 C 496.832031 284.640625 498.226562 283.570312 499.390625 283.050781 C 500.238281 282.640625 501.515625 282.117188 502.019531 281.84375 L 502.589844 280.460938 C 502.589844 280.460938 501.539062 281.867188 499.824219 281.867188 C 497.996094 281.867188 496.394531 280.300781 498.089844 276.117188 L 500.671875 269.777344 L 504.304688 269.777344 L 501.496094 276.730469 C 500.558594 279.003906 500.875 279.324219 501.332031 279.324219 C 502.226562 279.324219 503.117188 278.09375 504.488281 275.753906 L 506.933594 269.777344 L 510.570312 269.777344 L 506.089844 280.707031 C 508.238281 279.617188 509.769531 278.074219 511.390625 275.253906 C 511.871094 275.300781 512.488281 275.730469 512.671875 276.164062 " fill-opacity="1" fill-rule="nonzero"/><path fill="#2e2a2b" d="M 516.992188 278.390625 C 516.671875 278.050781 516.488281 277.617188 516.488281 277.117188 C 516.488281 276.09375 517.3125 275.253906 518.429688 275.300781 C 518.753906 274.414062 518.933594 273.59375 518.933594 273.027344 C 518.933594 272.1875 518.523438 271.84375 518.042969 271.84375 C 516.238281 271.84375 514.476562 276.617188 514.476562 278.300781 C 514.476562 279.027344 514.820312 279.503906 515.367188 279.503906 C 515.917969 279.503906 516.488281 279.050781 516.992188 278.390625 Z M 525.816406 276.164062 C 524.582031 278.277344 522.5 279.800781 520.167969 279.617188 C 519.027344 280.9375 517.425781 281.867188 515.390625 281.867188 C 512.558594 281.867188 511.003906 280.140625 511.003906 277.550781 C 511.003906 274.503906 513.242188 269.480469 518.089844 269.480469 C 520.855469 269.480469 522.386719 271.070312 522.386719 273.707031 C 522.386719 274.957031 522.042969 276.480469 521.359375 277.867188 C 522.476562 277.6875 523.597656 276.84375 524.535156 275.253906 C 525.015625 275.300781 525.632812 275.730469 525.816406 276.164062 " fill-opacity="1" fill-rule="nonzero"/><path fill="#2e2a2b" d="M 538.933594 276.164062 C 537.199219 279.207031 534.890625 281.867188 532.285156 281.867188 C 531.027344 281.867188 529.953125 281.253906 529.699219 279.824219 C 528.648438 281.050781 527.460938 281.867188 525.996094 281.867188 C 523.941406 281.867188 522.457031 280.230469 524.125 276.117188 L 526.707031 269.777344 L 530.339844 269.777344 L 527.527344 276.730469 C 526.59375 279.003906 526.910156 279.324219 527.371094 279.324219 C 528.261719 279.324219 529.152344 278.09375 530.523438 275.800781 L 532.96875 269.777344 L 536.605469 269.777344 L 533.792969 276.730469 C 532.765625 279.253906 533.152344 279.640625 533.609375 279.640625 C 534.570312 279.640625 536.011719 278.074219 537.65625 275.253906 C 538.136719 275.300781 538.753906 275.730469 538.933594 276.164062 " fill-opacity="1" fill-rule="nonzero"/><g clip-path="url(#dbdfa9d0a4)"><path fill="#ee2628" d="M 560.953125 308.710938 L 471.925781 308.710938 C 468.675781 308.710938 466.042969 311.328125 466.042969 314.5625 L 466.042969 337.480469 C 466.042969 340.710938 468.675781 343.332031 471.925781 343.332031 L 478.488281 343.332031 L 476.578125 350.972656 L 487.734375 343.332031 L 560.953125 343.332031 C 564.203125 343.332031 566.839844 340.710938 566.839844 337.480469 L 566.839844 314.5625 C 566.839844 311.328125 564.203125 308.710938 560.953125 308.710938 " fill-opacity="1" fill-rule="nonzero"/></g><path fill="#ffffff" d="M 556.078125 333.84375 C 555.890625 334.800781 555.445312 335.617188 554.742188 336.296875 C 554.039062 336.972656 553.0625 337.308594 551.820312 337.308594 C 550.574219 337.308594 549.691406 336.972656 549.160156 336.296875 C 548.632812 335.617188 548.460938 334.800781 548.652344 333.84375 C 548.839844 332.863281 549.289062 332.042969 550.007812 331.375 C 550.722656 330.710938 551.714844 330.378906 552.980469 330.378906 C 554.226562 330.378906 555.097656 330.710938 555.605469 331.375 C 556.109375 332.042969 556.265625 332.863281 556.078125 333.84375 Z M 563.578125 319.738281 C 563.410156 320.601562 563.125 321.347656 562.714844 321.976562 C 562.304688 322.609375 561.824219 323.15625 561.269531 323.625 C 560.71875 324.089844 560.136719 324.488281 559.527344 324.816406 C 558.917969 325.140625 558.339844 325.4375 557.785156 325.707031 C 557.234375 325.976562 556.746094 326.230469 556.324219 326.476562 C 555.902344 326.722656 555.621094 326.972656 555.480469 327.230469 C 555.222656 327.695312 554.886719 328.039062 554.476562 328.261719 C 554.066406 328.484375 553.671875 328.566406 553.296875 328.507812 C 552.921875 328.449219 552.601562 328.253906 552.332031 327.929688 C 552.058594 327.601562 551.925781 327.113281 551.925781 326.460938 C 551.925781 325.945312 552.023438 325.527344 552.222656 325.199219 C 552.425781 324.875 552.664062 324.585938 552.945312 324.339844 C 553.226562 324.097656 553.542969 323.875 553.898438 323.675781 C 554.25 323.476562 554.589844 323.238281 554.917969 322.957031 C 555.621094 322.375 556.132812 321.808594 556.449219 321.261719 C 556.765625 320.710938 556.941406 320.226562 556.976562 319.808594 C 557.011719 319.386719 556.921875 319.054688 556.710938 318.8125 C 556.5 318.566406 556.21875 318.445312 555.867188 318.445312 C 555.210938 318.445312 554.710938 318.722656 554.371094 319.285156 C 554.03125 319.84375 553.917969 320.613281 554.039062 321.59375 C 554.085938 322.035156 553.929688 322.445312 553.578125 322.820312 C 553.226562 323.191406 552.773438 323.484375 552.222656 323.695312 C 551.671875 323.902344 551.085938 324.015625 550.464844 324.027344 C 549.84375 324.039062 549.285156 323.917969 548.792969 323.660156 C 548.300781 323.402344 547.917969 322.992188 547.648438 322.433594 C 547.378906 321.871094 547.324219 321.117188 547.488281 320.160156 C 547.703125 319.015625 548.074219 317.984375 548.617188 317.0625 C 549.15625 316.136719 549.835938 315.359375 550.660156 314.714844 C 551.480469 314.074219 552.40625 313.578125 553.4375 313.226562 C 554.472656 312.878906 555.585938 312.703125 556.78125 312.703125 C 557.839844 312.703125 558.820312 312.878906 559.722656 313.226562 C 560.625 313.578125 561.394531 314.0625 562.027344 314.679688 C 562.660156 315.300781 563.125 316.039062 563.417969 316.902344 C 563.710938 317.765625 563.765625 318.710938 563.578125 319.738281 " fill-opacity="1" fill-rule="nonzero"/><path fill="#ffffff" d="M 480.742188 320.746094 C 481.339844 321.386719 482.050781 321.738281 482.871094 321.738281 C 483.625 321.738281 484.316406 321.40625 484.316406 320.789062 C 484.316406 320.214844 483.691406 319.820312 482.851562 319.820312 C 482.09375 319.820312 481.320312 320.128906 480.742188 320.746094 Z M 479.921875 323.238281 C 479.964844 325.113281 481.074219 326.082031 481.207031 326.171875 L 479.523438 328.664062 C 479.523438 328.664062 478.480469 327.757812 476.882812 327.757812 C 474.976562 327.757812 473.710938 329.082031 473.710938 331.070312 C 473.710938 332.964844 474.910156 334.554688 476.949219 334.554688 C 479.523438 334.554688 480.964844 331.929688 480.03125 329.769531 L 482.984375 328.929688 C 484.601562 333.828125 481.140625 337.640625 476.839844 337.640625 C 473.023438 337.640625 470.316406 334.730469 470.316406 331.15625 C 470.316406 327.1875 473.6875 324.382812 476.992188 324.695312 C 476.992188 324.695312 476.769531 324.097656 476.769531 323.148438 C 476.769531 322.003906 477.058594 320.878906 477.636719 319.90625 C 477.195312 318.671875 477.015625 317.28125 477.082031 315.890625 L 479.34375 316.203125 C 479.324219 316.820312 479.367188 317.390625 479.476562 317.921875 C 480.453125 317.257812 481.675781 316.820312 483.074219 316.820312 C 486.089844 316.820312 487.308594 318.757812 487.308594 320.480469 C 487.308594 322.464844 485.734375 324.296875 483.074219 324.296875 C 481.828125 324.296875 480.765625 323.898438 479.921875 323.238281 " fill-opacity="1" fill-rule="nonzero"/><path fill="#ffffff" d="M 500.042969 330.011719 C 498.265625 333.078125 496.136719 335.546875 493.472656 335.546875 C 491.167969 335.546875 490.214844 333.78125 491.789062 329.878906 L 492.121094 329.0625 C 492.542969 328.003906 492.898438 327.164062 492.898438 326.832031 C 492.898438 326.527344 492.632812 326.347656 492.296875 326.347656 C 491.765625 326.347656 490.746094 326.855469 489.8125 327.914062 L 486.820312 335.261719 L 483.292969 335.261719 L 487.949219 323.8125 L 491.476562 323.8125 L 491.011719 324.980469 C 491.121094 324.871094 492.765625 323.523438 494.648438 323.523438 C 496.046875 323.523438 496.78125 324.273438 496.78125 325.445312 C 496.78125 326.039062 496.582031 326.789062 496.113281 327.9375 L 495.027344 330.5625 C 494.007812 333.097656 494.429688 333.386719 494.804688 333.386719 C 495.691406 333.386719 497.222656 331.839844 498.800781 329.128906 C 499.265625 329.171875 499.863281 329.589844 500.042969 330.011719 " fill-opacity="1" fill-rule="nonzero"/><path fill="#ffffff" d="M 504.433594 331.15625 L 505.875 327.628906 C 505.875 327.628906 505.851562 326.394531 504.898438 326.394531 C 503.144531 326.394531 501.503906 330.515625 501.503906 331.929688 C 501.503906 332.503906 501.769531 332.746094 502.214844 332.746094 C 503.433594 332.746094 504.433594 331.15625 504.433594 331.15625 Z M 499.863281 340.113281 C 500.351562 340.113281 501.105469 339.582031 501.859375 337.574219 C 501.214844 337.949219 500.726562 338.128906 500.195312 338.480469 C 499.75 338.746094 499.308594 339.121094 499.308594 339.5625 C 499.308594 339.9375 499.574219 340.113281 499.863281 340.113281 Z M 513.015625 330.011719 C 510.730469 333.980469 508.359375 335.371094 505.742188 336.585938 C 505.742188 336.585938 505.410156 337.398438 505.253906 337.839844 C 504.34375 340.027344 503.011719 342.230469 500.351562 342.230469 C 498.464844 342.230469 497.597656 341.082031 497.597656 339.804688 C 497.621094 338.261719 498.929688 337.265625 500.128906 336.695312 C 500.839844 336.363281 502.191406 335.789062 502.679688 335.523438 L 503.277344 334.023438 C 503.277344 334.023438 502.082031 335.546875 500.527344 335.546875 C 498.90625 335.546875 498.042969 334.246094 498.042969 332.632812 C 498.042969 330.273438 499.972656 323.523438 504.1875 323.523438 C 506.230469 323.523438 506.785156 325.179688 506.828125 325.3125 L 507.449219 323.8125 L 510.976562 323.8125 L 506.628906 334.421875 C 508.714844 333.363281 510.199219 331.863281 511.773438 329.128906 C 512.242188 329.171875 512.839844 329.589844 513.015625 330.011719 " fill-opacity="1" fill-rule="nonzero"/><path fill="#ffffff" d="M 519.695312 330.011719 C 517.984375 332.988281 515.765625 335.546875 513.214844 335.546875 C 511.195312 335.546875 509.777344 333.957031 511.398438 329.964844 L 515.679688 319.445312 L 519.207031 319.445312 L 514.703125 330.5625 C 513.679688 333.078125 514.082031 333.386719 514.457031 333.386719 C 515.347656 333.386719 516.875 331.839844 518.453125 329.128906 C 518.917969 329.171875 519.515625 329.589844 519.695312 330.011719 " fill-opacity="1" fill-rule="nonzero"/><path fill="#ffffff" d="M 521.535156 320.945312 C 521.535156 319.863281 522.398438 319.023438 523.488281 319.023438 C 524.53125 319.023438 525.4375 319.863281 525.4375 320.945312 C 525.4375 321.980469 524.53125 322.886719 523.488281 322.886719 C 522.398438 322.886719 521.535156 321.980469 521.535156 320.945312 Z M 526.371094 330.011719 C 524.664062 332.988281 522.445312 335.546875 519.894531 335.546875 C 517.875 335.546875 516.453125 333.957031 518.074219 329.964844 L 520.582031 323.8125 L 524.109375 323.8125 L 521.378906 330.5625 C 520.359375 333.078125 520.757812 333.386719 521.136719 333.386719 C 522.023438 333.386719 523.554688 331.839844 525.128906 329.128906 C 525.59375 329.171875 526.191406 329.589844 526.371094 330.011719 " fill-opacity="1" fill-rule="nonzero"/><path fill="#ffffff" d="M 525.128906 329.128906 C 526.015625 327.628906 527.457031 324.894531 528.300781 323.039062 L 531.363281 323.8125 C 530.785156 326.921875 531.25 330.386719 531.273438 331.773438 C 531.273438 332.390625 531.230469 332.699219 531.164062 332.964844 C 532.339844 332.039062 533.246094 330.847656 534.246094 329.128906 C 534.710938 329.171875 535.308594 329.589844 535.488281 330.011719 C 533.867188 332.898438 531.691406 335.546875 527.964844 335.546875 C 525.214844 335.546875 524.242188 334.070312 524.21875 334.046875 L 526.171875 332.832031 C 526.371094 333.054688 526.546875 333.144531 526.859375 333.144531 C 527.566406 333.144531 528.011719 332.546875 528.011719 330.40625 C 528.011719 329.4375 527.921875 328.070312 527.964844 326.964844 C 527.390625 328.089844 526.8125 329.238281 526.371094 330.011719 C 525.902344 329.964844 525.304688 329.546875 525.128906 329.128906 " fill-opacity="1" fill-rule="nonzero"/><path fill="#ffffff" d="M 548.464844 330.011719 C 546.667969 333.121094 544.558594 335.546875 541.875 335.546875 C 539.566406 335.546875 538.679688 333.738281 540.234375 329.878906 L 540.566406 329.0625 C 540.988281 327.960938 541.34375 327.164062 541.34375 326.832031 C 541.34375 326.527344 541.078125 326.347656 540.722656 326.347656 C 540.191406 326.347656 539.167969 326.855469 538.238281 327.914062 L 535.242188 335.261719 L 531.714844 335.261719 L 538.148438 319.445312 L 541.675781 319.445312 L 539.433594 324.980469 C 539.433594 324.980469 541.097656 323.523438 543.074219 323.523438 C 544.472656 323.523438 545.203125 324.273438 545.203125 325.445312 C 545.203125 326.039062 545.003906 326.789062 544.539062 327.9375 L 543.449219 330.5625 C 542.429688 333.097656 542.851562 333.386719 543.226562 333.386719 C 544.117188 333.386719 545.648438 331.839844 547.222656 329.128906 C 547.6875 329.171875 548.289062 329.589844 548.464844 330.011719 " fill-opacity="1" fill-rule="nonzero"/><path fill="#ee2628" d="M 550.105469 268.417969 L 537.554688 261.992188 L 550.566406 236.867188 L 563.117188 243.292969 L 550.105469 268.417969 " fill-opacity="1" fill-rule="nonzero"/><path fill="#fab40a" d="M 550.105469 268.417969 L 537.554688 261.992188 L 550.566406 236.867188 L 563.117188 243.292969 L 550.105469 268.417969 " fill-opacity="1" fill-rule="nonzero"/><path fill="#fdd834" d="M 542.53125 264.535156 L 539.757812 263.117188 L 552.769531 237.996094 L 555.539062 239.414062 L 542.53125 264.535156 " fill-opacity="1" fill-rule="nonzero"/><path fill="#2e2a2b" d="M 563.117188 243.292969 L 550.566406 236.867188 L 553.042969 232.085938 L 565.59375 238.511719 L 563.117188 243.292969 " fill-opacity="1" fill-rule="nonzero"/><path fill="#f9a674" d="M 537.832031 276.792969 L 537.554688 261.992188 L 550.105469 268.417969 Z M 537.832031 276.792969 " fill-opacity="1" fill-rule="nonzero"/><path fill="#231f20" d="M 543.085938 273.203125 L 537.710938 270.453125 L 537.832031 276.792969 Z M 543.085938 273.203125 " fill-opacity="1" fill-rule="nonzero"/><path fill="#f03933" d="M 565.59375 238.511719 L 568.457031 232.984375 C 569.039062 231.855469 568.59375 230.472656 567.457031 229.890625 L 559.015625 225.570312 C 557.882812 224.988281 556.488281 225.433594 555.90625 226.558594 L 553.042969 232.085938 L 565.59375 238.511719 " fill-opacity="1" fill-rule="nonzero"/><path fill="#322f30" d="M 531.855469 248.664062 L 516.675781 244.300781 L 501.023438 248.664062 L 501.023438 229.328125 L 531.855469 229.328125 L 531.855469 248.664062 " fill-opacity="1" fill-rule="nonzero"/><path fill="#231f20" d="M 541.480469 231.804688 L 491.402344 231.804688 L 491.402344 228.914062 L 541.480469 228.914062 L 541.480469 231.804688 " fill-opacity="1" fill-rule="nonzero"/><path fill="#fbc707" d="M 517.871094 228.902344 C 517.875 228.902344 518.386719 228.902344 519.21875 228.902344 C 521.71875 228.902344 527.066406 228.902344 529.875 228.902344 C 530.503906 228.902344 531.601562 229.039062 532.46875 229.546875 C 532.902344 229.800781 533.285156 230.140625 533.5625 230.601562 C 533.839844 231.066406 534.023438 231.660156 534.023438 232.46875 L 534.023438 244.183594 C 534.023438 244.476562 534.261719 244.714844 534.558594 244.714844 C 534.851562 244.714844 535.09375 244.476562 535.09375 244.183594 L 535.089844 232.46875 C 535.09375 231.5 534.863281 230.695312 534.480469 230.058594 C 534.191406 229.578125 533.824219 229.199219 533.417969 228.902344 C 532.816406 228.457031 532.136719 228.195312 531.511719 228.042969 C 530.886719 227.890625 530.304688 227.84375 529.875 227.84375 C 528.003906 227.84375 525 227.84375 522.46875 227.84375 C 521.203125 227.84375 520.054688 227.84375 519.21875 227.84375 C 518.386719 227.84375 517.875 227.84375 517.871094 227.84375 C 517.578125 227.84375 517.335938 228.082031 517.335938 228.375 C 517.335938 228.664062 517.578125 228.902344 517.871094 228.902344 " fill-opacity="1" fill-rule="nonzero"/><path fill="#393536" d="M 518.222656 228.910156 C 518.160156 227.988281 517.386719 227.257812 516.441406 227.257812 C 515.496094 227.257812 514.722656 227.988281 514.65625 228.910156 L 518.222656 228.910156 " fill-opacity="1" fill-rule="nonzero"/><path fill="#f9b00b" d="M 536.570312 247.242188 L 532.546875 247.242188 L 533.808594 243.242188 L 535.304688 243.242188 L 536.570312 247.242188 " fill-opacity="1" fill-rule="nonzero"/></svg>