<svg xmlns="http://www.w3.org/2000/svg" xmlns:xlink="http://www.w3.org/1999/xlink" width="1366" zoomAndPan="magnify" viewBox="0 0 1024.5 576" height="768" preserveAspectRatio="xMidYMid meet" version="1.0"><defs><g/></defs><path fill="#8c65c4" d="M 520.722656 191.308594 C 520.371094 191.308594 520.019531 191.296875 519.664062 191.269531 C 512.289062 190.691406 506.777344 184.242188 507.351562 176.867188 C 508.203125 165.988281 508.203125 154.976562 507.351562 144.132812 C 506.027344 127.273438 502.636719 110.539062 497.277344 94.390625 C 494.949219 87.371094 498.753906 79.789062 505.773438 77.457031 C 512.789062 75.125 520.371094 78.929688 522.703125 85.949219 C 528.746094 104.15625 532.570312 123.023438 534.0625 142.042969 C 535.019531 154.273438 535.019531 166.699219 534.0625 178.96875 C 533.511719 185.988281 527.644531 191.320312 520.722656 191.320312 Z M 520.722656 191.308594 " fill-opacity="1" fill-rule="nonzero"/><path fill="#ee9600" d="M 766.269531 362.671875 C 749.390625 497.542969 626.183594 563.957031 596.175781 571.019531 C 573.519531 576.351562 558.308594 573.089844 558.308594 573.089844 C 554.34375 572.03125 552.660156 571.078125 545.101562 569.089844 C 529.125 564.890625 520.125 564.855469 517.464844 564.800781 C 498.027344 564.421875 495.511719 571.910156 473.28125 573.777344 C 473.28125 573.777344 457.527344 575.105469 435.996094 570.328125 C 402.648438 562.925781 289.867188 493.371094 270.882812 362.671875 C 268.675781 347.449219 250.4375 209.039062 333.808594 155.339844 C 376.554688 127.808594 441.527344 125.429688 461.980469 134.011719 C 464.554688 135.089844 477.976562 140.402344 497.023438 144.78125 C 501.710938 145.859375 507.089844 146.691406 513.742188 147.09375 C 543.109375 148.859375 581.910156 137.5 592.0625 134.855469 C 636.578125 123.265625 681.804688 150.058594 694.210938 157.40625 C 760.972656 196.957031 774.355469 298.027344 766.265625 362.671875 Z M 766.269531 362.671875 " fill-opacity="1" fill-rule="nonzero"/><path fill="#fefcdc" d="M 441.871094 555.183594 C 461.863281 559.617188 476.484375 558.390625 476.484375 558.390625 C 497.125 556.65625 499.460938 549.703125 517.507812 550.058594 C 517.660156 550.058594 517.835938 550.058594 518.035156 550.066406 L 518.035156 421.042969 L 305.054688 421.042969 C 340.699219 504.625 416.34375 549.523438 441.871094 555.191406 Z M 441.871094 555.183594 " fill-opacity="1" fill-rule="nonzero"/><path fill="#fefcdc" d="M 498.53125 160.113281 C 480.851562 156.046875 468.390625 151.113281 466 150.113281 C 447.011719 142.148438 386.6875 144.351562 347.003906 169.914062 C 307.019531 195.667969 292.210938 242.410156 287.515625 283.53125 L 518.035156 283.53125 L 518.035156 162.410156 C 516.6875 162.386719 515.363281 162.339844 514.050781 162.257812 C 507.875 161.890625 502.886719 161.113281 498.53125 160.113281 Z M 498.53125 160.113281 " fill-opacity="1" fill-rule="nonzero"/><path fill="#f7e96f" d="M 287.515625 283.53125 L 518.035156 283.53125 L 518.035156 421.042969 L 305.054688 421.042969 C 297.46875 403.246094 291.679688 383.707031 288.585938 362.40625 C 287.59375 355.574219 283.128906 322.011719 287.515625 283.539062 Z M 692.480469 22.71875 L 693.097656 18.15625 C 693.539062 14.90625 691.242188 11.886719 687.988281 11.445312 L 683.425781 10.828125 C 605.40625 0.246094 532.917969 55.425781 522.339844 133.453125 L 521.726562 138.015625 C 521.285156 141.265625 523.582031 144.285156 526.835938 144.726562 L 531.398438 145.34375 C 609.417969 155.925781 681.90625 100.746094 692.480469 22.71875 Z M 407.054688 69.820312 L 404.394531 70.652344 C 402.5 71.238281 401.433594 73.277344 402.023438 75.171875 L 402.855469 77.832031 C 417.042969 123.339844 465.875 148.96875 511.371094 134.78125 L 514.03125 133.949219 C 515.925781 133.359375 516.992188 131.324219 516.402344 129.429688 L 515.570312 126.769531 C 501.382812 81.261719 452.550781 55.632812 407.054688 69.820312 Z M 407.054688 69.820312 " fill-opacity="1" fill-rule="nonzero"/><g fill="#43256f" fill-opacity="1"><g transform="translate(570.986806, 258.092421)"><g><path d="M 21.90625 -34.3125 L 26.421875 -34.3125 C 30.648438 -34.3125 33.8125 -35.144531 35.90625 -36.8125 C 38.007812 -38.488281 39.0625 -40.921875 39.0625 -44.109375 C 39.0625 -47.328125 38.179688 -49.707031 36.421875 -51.25 C 34.660156 -52.789062 31.90625 -53.5625 28.15625 -53.5625 L 21.90625 -53.5625 Z M 52.9375 -44.59375 C 52.9375 -37.625 50.753906 -32.289062 46.390625 -28.59375 C 42.035156 -24.894531 35.835938 -23.046875 27.796875 -23.046875 L 21.90625 -23.046875 L 21.90625 0 L 8.15625 0 L 8.15625 -64.8125 L 28.859375 -64.8125 C 36.722656 -64.8125 42.703125 -63.117188 46.796875 -59.734375 C 50.890625 -56.359375 52.9375 -51.3125 52.9375 -44.59375 Z M 52.9375 -44.59375 "/></g></g></g><g fill="#43256f" fill-opacity="1"><g transform="translate(569.513362, 384.874063)"><g><path d="M 21.90625 -36.046875 L 26.328125 -36.046875 C 30.679688 -36.046875 33.890625 -36.769531 35.953125 -38.21875 C 38.023438 -39.664062 39.0625 -41.941406 39.0625 -45.046875 C 39.0625 -48.117188 38.003906 -50.304688 35.890625 -51.609375 C 33.773438 -52.910156 30.5 -53.5625 26.0625 -53.5625 L 21.90625 -53.5625 Z M 21.90625 -24.875 L 21.90625 0 L 8.15625 0 L 8.15625 -64.8125 L 27.046875 -64.8125 C 35.847656 -64.8125 42.363281 -63.207031 46.59375 -60 C 50.820312 -56.800781 52.9375 -51.9375 52.9375 -45.40625 C 52.9375 -41.582031 51.882812 -38.1875 49.78125 -35.21875 C 47.6875 -32.25 44.71875 -29.921875 40.875 -28.234375 C 50.625 -13.671875 56.976562 -4.257812 59.9375 0 L 44.6875 0 L 29.21875 -24.875 Z M 21.90625 -24.875 "/></g></g></g><g fill="#43256f" fill-opacity="1"><g transform="translate(563.357642, 511.655706)"><g><path d="M 66.984375 -32.5 C 66.984375 -21.769531 64.320312 -13.519531 59 -7.75 C 53.6875 -1.988281 46.0625 0.890625 36.125 0.890625 C 26.195312 0.890625 18.570312 -1.988281 13.25 -7.75 C 7.9375 -13.519531 5.28125 -21.796875 5.28125 -32.578125 C 5.28125 -43.367188 7.945312 -51.609375 13.28125 -57.296875 C 18.613281 -62.992188 26.257812 -65.84375 36.21875 -65.84375 C 46.175781 -65.84375 53.789062 -62.972656 59.0625 -57.234375 C 64.34375 -51.503906 66.984375 -43.257812 66.984375 -32.5 Z M 19.6875 -32.5 C 19.6875 -25.257812 21.0625 -19.804688 23.8125 -16.140625 C 26.5625 -12.472656 30.664062 -10.640625 36.125 -10.640625 C 47.09375 -10.640625 52.578125 -17.925781 52.578125 -32.5 C 52.578125 -47.09375 47.125 -54.390625 36.21875 -54.390625 C 30.75 -54.390625 26.625 -52.550781 23.84375 -48.875 C 21.070312 -45.195312 19.6875 -39.738281 19.6875 -32.5 Z M 19.6875 -32.5 "/></g></g></g><g fill="#43256f" fill-opacity="1"><g transform="translate(321.012888, 250.338694)"><g><path d="M 7.40625 -11.609375 L 8.9375 -11.609375 C 10.375 -11.609375 11.445312 -11.890625 12.15625 -12.453125 C 12.863281 -13.023438 13.21875 -13.851562 13.21875 -14.9375 C 13.21875 -16.019531 12.921875 -16.820312 12.328125 -17.34375 C 11.734375 -17.863281 10.800781 -18.125 9.53125 -18.125 L 7.40625 -18.125 Z M 17.921875 -15.09375 C 17.921875 -12.738281 17.179688 -10.929688 15.703125 -9.671875 C 14.222656 -8.421875 12.125 -7.796875 9.40625 -7.796875 L 7.40625 -7.796875 L 7.40625 0 L 2.765625 0 L 2.765625 -21.9375 L 9.765625 -21.9375 C 12.429688 -21.9375 14.457031 -21.363281 15.84375 -20.21875 C 17.226562 -19.070312 17.921875 -17.363281 17.921875 -15.09375 Z M 17.921875 -15.09375 "/></g></g></g><g fill="#43256f" fill-opacity="1"><g transform="translate(340.308845, 250.338694)"><g><path d="M 11.765625 -17.09375 C 12.390625 -17.09375 12.90625 -17.046875 13.3125 -16.953125 L 12.96875 -12.671875 C 12.59375 -12.765625 12.140625 -12.8125 11.609375 -12.8125 C 10.148438 -12.8125 9.015625 -12.4375 8.203125 -11.6875 C 7.390625 -10.9375 6.984375 -9.882812 6.984375 -8.53125 L 6.984375 0 L 2.40625 0 L 2.40625 -16.78125 L 5.875 -16.78125 L 6.546875 -13.953125 L 6.765625 -13.953125 C 7.285156 -14.898438 7.988281 -15.660156 8.875 -16.234375 C 9.757812 -16.804688 10.722656 -17.09375 11.765625 -17.09375 Z M 11.765625 -17.09375 "/></g></g></g><g fill="#43256f" fill-opacity="1"><g transform="translate(354.263152, 250.338694)"><g><path d="M 6.046875 -8.421875 C 6.046875 -6.753906 6.316406 -5.492188 6.859375 -4.640625 C 7.410156 -3.796875 8.300781 -3.375 9.53125 -3.375 C 10.75 -3.375 11.625 -3.796875 12.15625 -4.640625 C 12.695312 -5.484375 12.96875 -6.742188 12.96875 -8.421875 C 12.96875 -10.078125 12.695312 -11.320312 12.15625 -12.15625 C 11.613281 -12.988281 10.726562 -13.40625 9.5 -13.40625 C 8.28125 -13.40625 7.398438 -12.988281 6.859375 -12.15625 C 6.316406 -11.332031 6.046875 -10.085938 6.046875 -8.421875 Z M 17.640625 -8.421875 C 17.640625 -5.691406 16.921875 -3.554688 15.484375 -2.015625 C 14.046875 -0.472656 12.039062 0.296875 9.46875 0.296875 C 7.851562 0.296875 6.429688 -0.0507812 5.203125 -0.75 C 3.972656 -1.457031 3.023438 -2.472656 2.359375 -3.796875 C 1.703125 -5.117188 1.375 -6.660156 1.375 -8.421875 C 1.375 -11.160156 2.085938 -13.289062 3.515625 -14.8125 C 4.953125 -16.332031 6.96875 -17.09375 9.5625 -17.09375 C 11.164062 -17.09375 12.582031 -16.738281 13.8125 -16.03125 C 15.050781 -15.332031 16 -14.328125 16.65625 -13.015625 C 17.3125 -11.710938 17.640625 -10.179688 17.640625 -8.421875 Z M 17.640625 -8.421875 "/></g></g></g><g fill="#43256f" fill-opacity="1"><g transform="translate(373.289026, 250.338694)"><g><path d="M 17.890625 0 L 13.3125 0 L 13.3125 -9.796875 C 13.3125 -11.003906 13.09375 -11.910156 12.65625 -12.515625 C 12.226562 -13.128906 11.546875 -13.4375 10.609375 -13.4375 C 9.328125 -13.4375 8.398438 -13.003906 7.828125 -12.140625 C 7.265625 -11.285156 6.984375 -9.867188 6.984375 -7.890625 L 6.984375 0 L 2.40625 0 L 2.40625 -16.78125 L 5.890625 -16.78125 L 6.515625 -14.625 L 6.765625 -14.625 C 7.273438 -15.4375 7.976562 -16.050781 8.875 -16.46875 C 9.769531 -16.882812 10.789062 -17.09375 11.9375 -17.09375 C 13.882812 -17.09375 15.363281 -16.5625 16.375 -15.5 C 17.382812 -14.445312 17.890625 -12.925781 17.890625 -10.9375 Z M 17.890625 0 "/></g></g></g><g fill="#43256f" fill-opacity="1"><g transform="translate(393.485261, 250.338694)"><g><path d="M 14.28125 0 L 13.671875 -2.140625 L 13.4375 -2.140625 C 12.945312 -1.359375 12.25 -0.753906 11.34375 -0.328125 C 10.445312 0.0859375 9.421875 0.296875 8.265625 0.296875 C 6.296875 0.296875 4.8125 -0.226562 3.8125 -1.28125 C 2.8125 -2.332031 2.3125 -3.851562 2.3125 -5.84375 L 2.3125 -16.78125 L 6.890625 -16.78125 L 6.890625 -6.984375 C 6.890625 -5.765625 7.101562 -4.851562 7.53125 -4.25 C 7.957031 -3.644531 8.644531 -3.34375 9.59375 -3.34375 C 10.875 -3.34375 11.796875 -3.769531 12.359375 -4.625 C 12.929688 -5.476562 13.21875 -6.898438 13.21875 -8.890625 L 13.21875 -16.78125 L 17.796875 -16.78125 L 17.796875 0 Z M 7.46875 -18.625 L 7.46875 -19.03125 C 9.1875 -21.03125 10.363281 -22.535156 11 -23.546875 L 16.125 -23.546875 L 16.125 -23.234375 C 15.601562 -22.710938 14.710938 -21.9375 13.453125 -20.90625 C 12.203125 -19.882812 11.222656 -19.125 10.515625 -18.625 Z M 7.46875 -18.625 "/></g></g></g><g fill="#43256f" fill-opacity="1"><g transform="translate(413.681496, 250.338694)"><g><path d="M 17.890625 0 L 13.3125 0 L 13.3125 -9.796875 C 13.3125 -11.003906 13.09375 -11.910156 12.65625 -12.515625 C 12.226562 -13.128906 11.546875 -13.4375 10.609375 -13.4375 C 9.328125 -13.4375 8.398438 -13.003906 7.828125 -12.140625 C 7.265625 -11.285156 6.984375 -9.867188 6.984375 -7.890625 L 6.984375 0 L 2.40625 0 L 2.40625 -16.78125 L 5.890625 -16.78125 L 6.515625 -14.625 L 6.765625 -14.625 C 7.273438 -15.4375 7.976562 -16.050781 8.875 -16.46875 C 9.769531 -16.882812 10.789062 -17.09375 11.9375 -17.09375 C 13.882812 -17.09375 15.363281 -16.5625 16.375 -15.5 C 17.382812 -14.445312 17.890625 -12.925781 17.890625 -10.9375 Z M 17.890625 0 "/></g></g></g><g fill="#43256f" fill-opacity="1"><g transform="translate(433.877731, 250.338694)"><g><path d="M 9.21875 0.296875 C 3.988281 0.296875 1.375 -2.566406 1.375 -8.296875 C 1.375 -11.148438 2.082031 -13.328125 3.5 -14.828125 C 4.925781 -16.335938 6.96875 -17.09375 9.625 -17.09375 C 11.5625 -17.09375 13.300781 -16.710938 14.84375 -15.953125 L 13.484375 -12.40625 C 12.765625 -12.695312 12.09375 -12.9375 11.46875 -13.125 C 10.851562 -13.3125 10.238281 -13.40625 9.625 -13.40625 C 7.238281 -13.40625 6.046875 -11.710938 6.046875 -8.328125 C 6.046875 -5.046875 7.238281 -3.40625 9.625 -3.40625 C 10.5 -3.40625 11.3125 -3.519531 12.0625 -3.75 C 12.8125 -3.988281 13.5625 -4.359375 14.3125 -4.859375 L 14.3125 -0.953125 C 13.570312 -0.472656 12.820312 -0.144531 12.0625 0.03125 C 11.3125 0.207031 10.363281 0.296875 9.21875 0.296875 Z M 9.21875 0.296875 "/></g></g></g><g fill="#43256f" fill-opacity="1"><g transform="translate(449.677617, 250.338694)"><g><path d="M 2.203125 -21.109375 C 2.203125 -22.597656 3.035156 -23.34375 4.703125 -23.34375 C 6.359375 -23.34375 7.1875 -22.597656 7.1875 -21.109375 C 7.1875 -20.398438 6.976562 -19.847656 6.5625 -19.453125 C 6.144531 -19.054688 5.523438 -18.859375 4.703125 -18.859375 C 3.035156 -18.859375 2.203125 -19.609375 2.203125 -21.109375 Z M 6.984375 0 L 2.40625 0 L 2.40625 -16.78125 L 6.984375 -16.78125 Z M 6.984375 0 "/></g></g></g><g fill="#43256f" fill-opacity="1"><g transform="translate(459.05552, 250.338694)"><g><path d="M 13.0625 0 L 12.171875 -2.28125 L 12.046875 -2.28125 C 11.273438 -1.3125 10.484375 -0.640625 9.671875 -0.265625 C 8.859375 0.109375 7.796875 0.296875 6.484375 0.296875 C 4.867188 0.296875 3.597656 -0.160156 2.671875 -1.078125 C 1.753906 -2.003906 1.296875 -3.316406 1.296875 -5.015625 C 1.296875 -6.796875 1.914062 -8.109375 3.15625 -8.953125 C 4.40625 -9.796875 6.285156 -10.265625 8.796875 -10.359375 L 11.703125 -10.4375 L 11.703125 -11.1875 C 11.703125 -12.882812 10.832031 -13.734375 9.09375 -13.734375 C 7.75 -13.734375 6.171875 -13.328125 4.359375 -12.515625 L 2.84375 -15.609375 C 4.78125 -16.617188 6.925781 -17.125 9.28125 -17.125 C 11.53125 -17.125 13.253906 -16.632812 14.453125 -15.65625 C 15.648438 -14.675781 16.25 -13.1875 16.25 -11.1875 L 16.25 0 Z M 11.703125 -7.78125 L 9.9375 -7.71875 C 8.601562 -7.675781 7.609375 -7.429688 6.953125 -6.984375 C 6.304688 -6.546875 5.984375 -5.878906 5.984375 -4.984375 C 5.984375 -3.691406 6.722656 -3.046875 8.203125 -3.046875 C 9.265625 -3.046875 10.113281 -3.347656 10.75 -3.953125 C 11.382812 -4.566406 11.703125 -5.378906 11.703125 -6.390625 Z M 11.703125 -7.78125 "/></g></g></g><g fill="#43256f" fill-opacity="1"><g transform="translate(340.9285, 361.822845)"><g><path d="M 7.40625 -12.203125 L 8.921875 -12.203125 C 10.390625 -12.203125 11.472656 -12.445312 12.171875 -12.9375 C 12.867188 -13.425781 13.21875 -14.195312 13.21875 -15.25 C 13.21875 -16.289062 12.859375 -17.03125 12.140625 -17.46875 C 11.429688 -17.90625 10.328125 -18.125 8.828125 -18.125 L 7.40625 -18.125 Z M 7.40625 -8.421875 L 7.40625 0 L 2.765625 0 L 2.765625 -21.9375 L 9.15625 -21.9375 C 12.132812 -21.9375 14.335938 -21.394531 15.765625 -20.3125 C 17.203125 -19.226562 17.921875 -17.582031 17.921875 -15.375 C 17.921875 -14.082031 17.5625 -12.929688 16.84375 -11.921875 C 16.132812 -10.921875 15.132812 -10.132812 13.84375 -9.5625 C 17.132812 -4.625 19.285156 -1.4375 20.296875 0 L 15.125 0 L 9.890625 -8.421875 Z M 7.40625 -8.421875 "/></g></g></g><g fill="#43256f" fill-opacity="1"><g transform="translate(361.214763, 361.822845)"><g><path d="M 9.34375 -13.84375 C 8.375 -13.84375 7.613281 -13.53125 7.0625 -12.90625 C 6.519531 -12.289062 6.207031 -11.421875 6.125 -10.296875 L 12.546875 -10.296875 C 12.523438 -11.421875 12.226562 -12.289062 11.65625 -12.90625 C 11.09375 -13.53125 10.320312 -13.84375 9.34375 -13.84375 Z M 10 0.296875 C 7.289062 0.296875 5.175781 -0.445312 3.65625 -1.9375 C 2.132812 -3.425781 1.375 -5.535156 1.375 -8.265625 C 1.375 -11.078125 2.078125 -13.25 3.484375 -14.78125 C 4.890625 -16.320312 6.832031 -17.09375 9.3125 -17.09375 C 11.6875 -17.09375 13.535156 -16.414062 14.859375 -15.0625 C 16.179688 -13.71875 16.84375 -11.851562 16.84375 -9.46875 L 16.84375 -7.25 L 6.015625 -7.25 C 6.066406 -5.945312 6.453125 -4.929688 7.171875 -4.203125 C 7.890625 -3.472656 8.898438 -3.109375 10.203125 -3.109375 C 11.210938 -3.109375 12.164062 -3.210938 13.0625 -3.421875 C 13.96875 -3.628906 14.910156 -3.960938 15.890625 -4.421875 L 15.890625 -0.890625 C 15.085938 -0.484375 14.226562 -0.1875 13.3125 0 C 12.40625 0.195312 11.300781 0.296875 10 0.296875 Z M 10 0.296875 "/></g></g></g><g fill="#43256f" fill-opacity="1"><g transform="translate(379.370368, 361.822845)"><g><path d="M 11.609375 0.296875 C 9.640625 0.296875 8.097656 -0.414062 6.984375 -1.84375 L 6.734375 -1.84375 C 6.898438 -0.445312 6.984375 0.359375 6.984375 0.578125 L 6.984375 7.390625 L 2.40625 7.390625 L 2.40625 -16.78125 L 6.125 -16.78125 L 6.765625 -14.609375 L 6.984375 -14.609375 C 8.046875 -16.265625 9.628906 -17.09375 11.734375 -17.09375 C 13.710938 -17.09375 15.257812 -16.328125 16.375 -14.796875 C 17.5 -13.265625 18.0625 -11.140625 18.0625 -8.421875 C 18.0625 -6.628906 17.800781 -5.070312 17.28125 -3.75 C 16.757812 -2.425781 16.007812 -1.421875 15.03125 -0.734375 C 14.0625 -0.046875 12.921875 0.296875 11.609375 0.296875 Z M 10.265625 -13.4375 C 9.128906 -13.4375 8.300781 -13.085938 7.78125 -12.390625 C 7.269531 -11.691406 7.003906 -10.539062 6.984375 -8.9375 L 6.984375 -8.453125 C 6.984375 -6.648438 7.25 -5.359375 7.78125 -4.578125 C 8.3125 -3.796875 9.160156 -3.40625 10.328125 -3.40625 C 12.378906 -3.40625 13.40625 -5.097656 13.40625 -8.484375 C 13.40625 -10.128906 13.148438 -11.363281 12.640625 -12.1875 C 12.140625 -13.019531 11.347656 -13.4375 10.265625 -13.4375 Z M 10.265625 -13.4375 "/></g></g></g><g fill="#43256f" fill-opacity="1"><g transform="translate(398.816371, 361.822845)"><g><path d="M 9.34375 -13.84375 C 8.375 -13.84375 7.613281 -13.53125 7.0625 -12.90625 C 6.519531 -12.289062 6.207031 -11.421875 6.125 -10.296875 L 12.546875 -10.296875 C 12.523438 -11.421875 12.226562 -12.289062 11.65625 -12.90625 C 11.09375 -13.53125 10.320312 -13.84375 9.34375 -13.84375 Z M 10 0.296875 C 7.289062 0.296875 5.175781 -0.445312 3.65625 -1.9375 C 2.132812 -3.425781 1.375 -5.535156 1.375 -8.265625 C 1.375 -11.078125 2.078125 -13.25 3.484375 -14.78125 C 4.890625 -16.320312 6.832031 -17.09375 9.3125 -17.09375 C 11.6875 -17.09375 13.535156 -16.414062 14.859375 -15.0625 C 16.179688 -13.71875 16.84375 -11.851562 16.84375 -9.46875 L 16.84375 -7.25 L 6.015625 -7.25 C 6.066406 -5.945312 6.453125 -4.929688 7.171875 -4.203125 C 7.890625 -3.472656 8.898438 -3.109375 10.203125 -3.109375 C 11.210938 -3.109375 12.164062 -3.210938 13.0625 -3.421875 C 13.96875 -3.628906 14.910156 -3.960938 15.890625 -4.421875 L 15.890625 -0.890625 C 15.085938 -0.484375 14.226562 -0.1875 13.3125 0 C 12.40625 0.195312 11.300781 0.296875 10 0.296875 Z M 10 0.296875 "/></g></g></g><g fill="#43256f" fill-opacity="1"><g transform="translate(416.971976, 361.822845)"><g><path d="M 9.46875 -3.34375 C 10.269531 -3.34375 11.226562 -3.519531 12.34375 -3.875 L 12.34375 -0.46875 C 11.207031 0.0390625 9.8125 0.296875 8.15625 0.296875 C 6.320312 0.296875 4.984375 -0.160156 4.140625 -1.078125 C 3.304688 -2.003906 2.890625 -3.394531 2.890625 -5.25 L 2.890625 -13.34375 L 0.703125 -13.34375 L 0.703125 -15.28125 L 3.21875 -16.8125 L 4.546875 -20.34375 L 7.46875 -20.34375 L 7.46875 -16.78125 L 12.171875 -16.78125 L 12.171875 -13.34375 L 7.46875 -13.34375 L 7.46875 -5.25 C 7.46875 -4.601562 7.648438 -4.125 8.015625 -3.8125 C 8.378906 -3.5 8.863281 -3.34375 9.46875 -3.34375 Z M 9.46875 -3.34375 "/></g></g></g><g fill="#43256f" fill-opacity="1"><g transform="translate(430.311101, 361.822845)"><g><path d="M 2.203125 -21.109375 C 2.203125 -22.597656 3.035156 -23.34375 4.703125 -23.34375 C 6.359375 -23.34375 7.1875 -22.597656 7.1875 -21.109375 C 7.1875 -20.398438 6.976562 -19.847656 6.5625 -19.453125 C 6.144531 -19.054688 5.523438 -18.859375 4.703125 -18.859375 C 3.035156 -18.859375 2.203125 -19.609375 2.203125 -21.109375 Z M 6.984375 0 L 2.40625 0 L 2.40625 -16.78125 L 6.984375 -16.78125 Z M 6.984375 0 "/></g></g></g><g fill="#43256f" fill-opacity="1"><g transform="translate(439.689005, 361.822845)"><g><path d="M 9.21875 0.296875 C 3.988281 0.296875 1.375 -2.566406 1.375 -8.296875 C 1.375 -11.148438 2.082031 -13.328125 3.5 -14.828125 C 4.925781 -16.335938 6.96875 -17.09375 9.625 -17.09375 C 11.5625 -17.09375 13.300781 -16.710938 14.84375 -15.953125 L 13.484375 -12.40625 C 12.765625 -12.695312 12.09375 -12.9375 11.46875 -13.125 C 10.851562 -13.3125 10.238281 -13.40625 9.625 -13.40625 C 7.238281 -13.40625 6.046875 -11.710938 6.046875 -8.328125 C 6.046875 -5.046875 7.238281 -3.40625 9.625 -3.40625 C 10.5 -3.40625 11.3125 -3.519531 12.0625 -3.75 C 12.8125 -3.988281 13.5625 -4.359375 14.3125 -4.859375 L 14.3125 -0.953125 C 13.570312 -0.472656 12.820312 -0.144531 12.0625 0.03125 C 11.3125 0.207031 10.363281 0.296875 9.21875 0.296875 Z M 12.078125 3.75 C 12.078125 5.03125 11.695312 5.957031 10.9375 6.53125 C 10.1875 7.101562 9.023438 7.390625 7.453125 7.390625 C 6.671875 7.390625 5.9375 7.28125 5.25 7.0625 L 5.25 4.546875 C 5.519531 4.617188 5.882812 4.6875 6.34375 4.75 C 6.800781 4.820312 7.15625 4.859375 7.40625 4.859375 C 8.125 4.859375 8.484375 4.550781 8.484375 3.9375 C 8.484375 3.101562 7.65625 2.5625 6 2.3125 L 7.15625 0 L 10.0625 0 L 9.65625 0.921875 C 10.394531 1.160156 10.984375 1.53125 11.421875 2.03125 C 11.859375 2.539062 12.078125 3.113281 12.078125 3.75 Z M 12.078125 3.75 "/></g></g></g><g fill="#43256f" fill-opacity="1"><g transform="translate(455.48889, 361.822845)"><g><path d="M 13.0625 0 L 12.171875 -2.28125 L 12.046875 -2.28125 C 11.273438 -1.3125 10.484375 -0.640625 9.671875 -0.265625 C 8.859375 0.109375 7.796875 0.296875 6.484375 0.296875 C 4.867188 0.296875 3.597656 -0.160156 2.671875 -1.078125 C 1.753906 -2.003906 1.296875 -3.316406 1.296875 -5.015625 C 1.296875 -6.796875 1.914062 -8.109375 3.15625 -8.953125 C 4.40625 -9.796875 6.285156 -10.265625 8.796875 -10.359375 L 11.703125 -10.4375 L 11.703125 -11.1875 C 11.703125 -12.882812 10.832031 -13.734375 9.09375 -13.734375 C 7.75 -13.734375 6.171875 -13.328125 4.359375 -12.515625 L 2.84375 -15.609375 C 4.78125 -16.617188 6.925781 -17.125 9.28125 -17.125 C 11.53125 -17.125 13.253906 -16.632812 14.453125 -15.65625 C 15.648438 -14.675781 16.25 -13.1875 16.25 -11.1875 L 16.25 0 Z M 11.703125 -7.78125 L 9.9375 -7.71875 C 8.601562 -7.675781 7.609375 -7.429688 6.953125 -6.984375 C 6.304688 -6.546875 5.984375 -5.878906 5.984375 -4.984375 C 5.984375 -3.691406 6.722656 -3.046875 8.203125 -3.046875 C 9.265625 -3.046875 10.113281 -3.347656 10.75 -3.953125 C 11.382812 -4.566406 11.703125 -5.378906 11.703125 -6.390625 Z M 7.015625 -20.203125 C 6.703125 -20.203125 6.398438 -20.066406 6.109375 -19.796875 C 5.828125 -19.535156 5.625 -19.132812 5.5 -18.59375 L 3.265625 -18.59375 C 3.367188 -20.039062 3.78125 -21.175781 4.5 -22 C 5.21875 -22.820312 6.164062 -23.234375 7.34375 -23.234375 C 7.75 -23.234375 8.148438 -23.148438 8.546875 -22.984375 C 8.941406 -22.816406 9.332031 -22.632812 9.71875 -22.4375 C 10.101562 -22.25 10.476562 -22.070312 10.84375 -21.90625 C 11.21875 -21.75 11.585938 -21.671875 11.953125 -21.671875 C 12.265625 -21.671875 12.5625 -21.800781 12.84375 -22.0625 C 13.125 -22.320312 13.332031 -22.722656 13.46875 -23.265625 L 15.703125 -23.265625 C 15.585938 -21.804688 15.164062 -20.664062 14.4375 -19.84375 C 13.71875 -19.03125 12.78125 -18.625 11.625 -18.625 C 11.207031 -18.625 10.800781 -18.707031 10.40625 -18.875 C 10.019531 -19.039062 9.632812 -19.21875 9.25 -19.40625 C 8.863281 -19.601562 8.484375 -19.785156 8.109375 -19.953125 C 7.742188 -20.117188 7.378906 -20.203125 7.015625 -20.203125 Z M 7.015625 -20.203125 "/></g></g></g><g fill="#43256f" fill-opacity="1"><g transform="translate(474.049628, 361.822845)"><g><path d="M 6.046875 -8.421875 C 6.046875 -6.753906 6.316406 -5.492188 6.859375 -4.640625 C 7.410156 -3.796875 8.300781 -3.375 9.53125 -3.375 C 10.75 -3.375 11.625 -3.796875 12.15625 -4.640625 C 12.695312 -5.484375 12.96875 -6.742188 12.96875 -8.421875 C 12.96875 -10.078125 12.695312 -11.320312 12.15625 -12.15625 C 11.613281 -12.988281 10.726562 -13.40625 9.5 -13.40625 C 8.28125 -13.40625 7.398438 -12.988281 6.859375 -12.15625 C 6.316406 -11.332031 6.046875 -10.085938 6.046875 -8.421875 Z M 17.640625 -8.421875 C 17.640625 -5.691406 16.921875 -3.554688 15.484375 -2.015625 C 14.046875 -0.472656 12.039062 0.296875 9.46875 0.296875 C 7.851562 0.296875 6.429688 -0.0507812 5.203125 -0.75 C 3.972656 -1.457031 3.023438 -2.472656 2.359375 -3.796875 C 1.703125 -5.117188 1.375 -6.660156 1.375 -8.421875 C 1.375 -11.160156 2.085938 -13.289062 3.515625 -14.8125 C 4.953125 -16.332031 6.96875 -17.09375 9.5625 -17.09375 C 11.164062 -17.09375 12.582031 -16.738281 13.8125 -16.03125 C 15.050781 -15.332031 16 -14.328125 16.65625 -13.015625 C 17.3125 -11.710938 17.640625 -10.179688 17.640625 -8.421875 Z M 17.640625 -8.421875 "/></g></g></g><g fill="#43256f" fill-opacity="1"><g transform="translate(368.694744, 476.170858)"><g><path d="M 22.671875 -11 C 22.671875 -7.363281 21.769531 -4.570312 19.96875 -2.625 C 18.164062 -0.675781 15.585938 0.296875 12.234375 0.296875 C 8.867188 0.296875 6.285156 -0.675781 4.484375 -2.625 C 2.679688 -4.570312 1.78125 -7.375 1.78125 -11.03125 C 1.78125 -14.675781 2.679688 -17.460938 4.484375 -19.390625 C 6.296875 -21.316406 8.890625 -22.28125 12.265625 -22.28125 C 15.628906 -22.28125 18.203125 -21.3125 19.984375 -19.375 C 21.773438 -17.4375 22.671875 -14.644531 22.671875 -11 Z M 6.65625 -11 C 6.65625 -8.550781 7.117188 -6.707031 8.046875 -5.46875 C 8.984375 -4.226562 10.378906 -3.609375 12.234375 -3.609375 C 15.941406 -3.609375 17.796875 -6.070312 17.796875 -11 C 17.796875 -15.9375 15.953125 -18.40625 12.265625 -18.40625 C 10.410156 -18.40625 9.007812 -17.78125 8.0625 -16.53125 C 7.125 -15.289062 6.65625 -13.445312 6.65625 -11 Z M 6.65625 -11 "/></g></g></g><g fill="#43256f" fill-opacity="1"><g transform="translate(393.152295, 476.170858)"><g><path d="M 11.734375 -17.09375 C 13.710938 -17.09375 15.257812 -16.316406 16.375 -14.765625 C 17.5 -13.222656 18.0625 -11.109375 18.0625 -8.421875 C 18.0625 -5.648438 17.484375 -3.503906 16.328125 -1.984375 C 15.179688 -0.460938 13.609375 0.296875 11.609375 0.296875 C 9.640625 0.296875 8.097656 -0.414062 6.984375 -1.84375 L 6.65625 -1.84375 L 5.890625 0 L 2.40625 0 L 2.40625 -23.34375 L 6.984375 -23.34375 L 6.984375 -17.921875 C 6.984375 -17.234375 6.921875 -16.128906 6.796875 -14.609375 L 6.984375 -14.609375 C 8.046875 -16.265625 9.628906 -17.09375 11.734375 -17.09375 Z M 10.265625 -13.4375 C 9.128906 -13.4375 8.300781 -13.085938 7.78125 -12.390625 C 7.269531 -11.691406 7.003906 -10.539062 6.984375 -8.9375 L 6.984375 -8.453125 C 6.984375 -6.648438 7.25 -5.359375 7.78125 -4.578125 C 8.3125 -3.796875 9.160156 -3.40625 10.328125 -3.40625 C 11.265625 -3.40625 12.007812 -3.835938 12.5625 -4.703125 C 13.125 -5.566406 13.40625 -6.828125 13.40625 -8.484375 C 13.40625 -10.128906 13.125 -11.363281 12.5625 -12.1875 C 12 -13.019531 11.234375 -13.4375 10.265625 -13.4375 Z M 10.265625 -13.4375 "/></g></g></g><g fill="#43256f" fill-opacity="1"><g transform="translate(412.598298, 476.170858)"><g><path d="M 1.046875 7.390625 C -0.117188 7.390625 -1.125 7.265625 -1.96875 7.015625 L -1.96875 3.40625 C -1.269531 3.59375 -0.550781 3.6875 0.1875 3.6875 C 0.945312 3.6875 1.503906 3.472656 1.859375 3.046875 C 2.222656 2.617188 2.40625 1.984375 2.40625 1.140625 L 2.40625 -16.78125 L 6.984375 -16.78125 L 6.984375 1.8125 C 6.984375 3.59375 6.46875 4.96875 5.4375 5.9375 C 4.40625 6.90625 2.941406 7.390625 1.046875 7.390625 Z M 2.203125 -21.109375 C 2.203125 -22.597656 3.035156 -23.34375 4.703125 -23.34375 C 6.359375 -23.34375 7.1875 -22.597656 7.1875 -21.109375 C 7.1875 -20.398438 6.976562 -19.847656 6.5625 -19.453125 C 6.144531 -19.054688 5.523438 -18.859375 4.703125 -18.859375 C 3.035156 -18.859375 2.203125 -19.609375 2.203125 -21.109375 Z M 2.203125 -21.109375 "/></g></g></g><g fill="#43256f" fill-opacity="1"><g transform="translate(421.976201, 476.170858)"><g><path d="M 9.34375 -13.84375 C 8.375 -13.84375 7.613281 -13.53125 7.0625 -12.90625 C 6.519531 -12.289062 6.207031 -11.421875 6.125 -10.296875 L 12.546875 -10.296875 C 12.523438 -11.421875 12.226562 -12.289062 11.65625 -12.90625 C 11.09375 -13.53125 10.320312 -13.84375 9.34375 -13.84375 Z M 10 0.296875 C 7.289062 0.296875 5.175781 -0.445312 3.65625 -1.9375 C 2.132812 -3.425781 1.375 -5.535156 1.375 -8.265625 C 1.375 -11.078125 2.078125 -13.25 3.484375 -14.78125 C 4.890625 -16.320312 6.832031 -17.09375 9.3125 -17.09375 C 11.6875 -17.09375 13.535156 -16.414062 14.859375 -15.0625 C 16.179688 -13.71875 16.84375 -11.851562 16.84375 -9.46875 L 16.84375 -7.25 L 6.015625 -7.25 C 6.066406 -5.945312 6.453125 -4.929688 7.171875 -4.203125 C 7.890625 -3.472656 8.898438 -3.109375 10.203125 -3.109375 C 11.210938 -3.109375 12.164062 -3.210938 13.0625 -3.421875 C 13.96875 -3.628906 14.910156 -3.960938 15.890625 -4.421875 L 15.890625 -0.890625 C 15.085938 -0.484375 14.226562 -0.1875 13.3125 0 C 12.40625 0.195312 11.300781 0.296875 10 0.296875 Z M 10 0.296875 "/></g></g></g><g fill="#43256f" fill-opacity="1"><g transform="translate(440.131805, 476.170858)"><g><path d="M 9.46875 -3.34375 C 10.269531 -3.34375 11.226562 -3.519531 12.34375 -3.875 L 12.34375 -0.46875 C 11.207031 0.0390625 9.8125 0.296875 8.15625 0.296875 C 6.320312 0.296875 4.984375 -0.160156 4.140625 -1.078125 C 3.304688 -2.003906 2.890625 -3.394531 2.890625 -5.25 L 2.890625 -13.34375 L 0.703125 -13.34375 L 0.703125 -15.28125 L 3.21875 -16.8125 L 4.546875 -20.34375 L 7.46875 -20.34375 L 7.46875 -16.78125 L 12.171875 -16.78125 L 12.171875 -13.34375 L 7.46875 -13.34375 L 7.46875 -5.25 C 7.46875 -4.601562 7.648438 -4.125 8.015625 -3.8125 C 8.378906 -3.5 8.863281 -3.34375 9.46875 -3.34375 Z M 9.46875 -3.34375 "/></g></g></g><g fill="#43256f" fill-opacity="1"><g transform="translate(453.470931, 476.170858)"><g><path d="M 2.203125 -21.109375 C 2.203125 -22.597656 3.035156 -23.34375 4.703125 -23.34375 C 6.359375 -23.34375 7.1875 -22.597656 7.1875 -21.109375 C 7.1875 -20.398438 6.976562 -19.847656 6.5625 -19.453125 C 6.144531 -19.054688 5.523438 -18.859375 4.703125 -18.859375 C 3.035156 -18.859375 2.203125 -19.609375 2.203125 -21.109375 Z M 6.984375 0 L 2.40625 0 L 2.40625 -16.78125 L 6.984375 -16.78125 Z M 6.984375 0 "/></g></g></g><g fill="#43256f" fill-opacity="1"><g transform="translate(462.848834, 476.170858)"><g><path d="M 6.390625 0 L 0 -16.78125 L 4.78125 -16.78125 L 8.03125 -7.21875 C 8.382812 -6.007812 8.609375 -4.863281 8.703125 -3.78125 L 8.796875 -3.78125 C 8.847656 -4.738281 9.070312 -5.882812 9.46875 -7.21875 L 12.703125 -16.78125 L 17.484375 -16.78125 L 11.09375 0 Z M 6.390625 0 "/></g></g></g><g fill="#43256f" fill-opacity="1"><g transform="translate(480.329239, 476.170858)"><g><path d="M 6.046875 -8.421875 C 6.046875 -6.753906 6.316406 -5.492188 6.859375 -4.640625 C 7.410156 -3.796875 8.300781 -3.375 9.53125 -3.375 C 10.75 -3.375 11.625 -3.796875 12.15625 -4.640625 C 12.695312 -5.484375 12.96875 -6.742188 12.96875 -8.421875 C 12.96875 -10.078125 12.695312 -11.320312 12.15625 -12.15625 C 11.613281 -12.988281 10.726562 -13.40625 9.5 -13.40625 C 8.28125 -13.40625 7.398438 -12.988281 6.859375 -12.15625 C 6.316406 -11.332031 6.046875 -10.085938 6.046875 -8.421875 Z M 17.640625 -8.421875 C 17.640625 -5.691406 16.921875 -3.554688 15.484375 -2.015625 C 14.046875 -0.472656 12.039062 0.296875 9.46875 0.296875 C 7.851562 0.296875 6.429688 -0.0507812 5.203125 -0.75 C 3.972656 -1.457031 3.023438 -2.472656 2.359375 -3.796875 C 1.703125 -5.117188 1.375 -6.660156 1.375 -8.421875 C 1.375 -11.160156 2.085938 -13.289062 3.515625 -14.8125 C 4.953125 -16.332031 6.96875 -17.09375 9.5625 -17.09375 C 11.164062 -17.09375 12.582031 -16.738281 13.8125 -16.03125 C 15.050781 -15.332031 16 -14.328125 16.65625 -13.015625 C 17.3125 -11.710938 17.640625 -10.179688 17.640625 -8.421875 Z M 17.640625 -8.421875 "/></g></g></g></svg>