<?xml version="1.0" standalone="no"?>
<!DOCTYPE svg PUBLIC "-//W3C//DTD SVG 20010904//EN"
 "http://www.w3.org/TR/2001/REC-SVG-20010904/DTD/svg10.dtd">
<svg version="1.0" xmlns="http://www.w3.org/2000/svg"
 width="626.000000pt" height="417.000000pt" viewBox="0 0 626.000000 417.000000"
 preserveAspectRatio="xMidYMid meet">

<g transform="translate(0.000000,417.000000) scale(0.100000,-0.100000)"
fill="#000000" stroke="none">
<path d="M4970 3911 c-5 -11 -10 -33 -10 -50 0 -45 -14 -38 -28 15 -7 26 -15
45 -17 42 -5 -4 31 -147 38 -155 3 -2 8 22 12 54 13 123 37 130 67 20 15 -53
17 -56 13 -19 -11 92 -50 140 -75 93z"/>
<path d="M5108 3913 c-35 -41 -51 -104 -29 -118 11 -6 47 37 56 66 13 41 25
15 25 -56 0 -81 -17 -131 -47 -138 -15 -3 -15 -4 1 -3 10 1 28 14 40 29 17 23
20 40 18 114 -1 47 -4 94 -7 104 -8 24 -37 24 -57 2z m26 -29 c-30 -72 -54
-95 -54 -51 0 29 36 87 54 87 13 0 13 -5 0 -36z"/>
<path d="M2577 3913 c-4 -3 -7 -246 -7 -540 0 -524 0 -533 20 -533 18 0 20 8
22 153 l3 152 118 65 117 65 -120 3 -120 3 0 24 0 25 285 0 285 0 0 -100 0
-100 45 0 45 0 0 -45 c0 -48 15 -60 29 -22 5 13 16 29 24 36 14 11 17 8 22
-23 l7 -35 62 -3 61 -3 -3 -42 -3 -43 42 0 42 0 -22 19 c-18 16 -19 20 -7 31
17 13 40 8 108 -26 28 -14 65 -24 90 -24 l43 1 -70 37 c-39 20 -84 47 -102 60
-22 15 -33 18 -35 10 -5 -13 -94 29 -168 79 -35 23 -35 23 -42 2 -5 -14 -15
-19 -30 -17 -22 3 -23 8 -26 106 l-3 102 31 0 c29 0 30 -1 30 -48 l0 -48 105
4 105 4 0 -42 c0 -36 -2 -41 -17 -34 -10 4 -40 9 -68 11 l-50 4 60 -36 c65
-38 80 -42 72 -21 -7 18 41 26 166 26 l97 0 0 65 0 65 -97 0 c-54 0 -115 3
-135 6 -35 6 -38 9 -38 38 1 27 8 36 63 70 34 21 95 56 135 77 58 32 72 44 72
64 0 23 -3 22 -99 -31 -55 -30 -114 -59 -130 -65 -25 -9 -31 -17 -31 -41 l0
-29 -104 2 -104 2 -7 35 c-3 19 -5 35 -3 36 64 43 195 116 207 116 6 0 11 -11
11 -25 0 -18 -9 -31 -31 -43 -16 -9 -47 -27 -67 -39 l-37 -22 46 -1 c30 0 52
6 65 18 32 30 104 76 197 126 87 47 87 47 87 87 l0 39 -135 0 -135 0 0 45 0
45 -100 0 -100 0 0 -165 0 -165 -30 0 -30 0 0 210 0 210 -55 0 -55 0 -2 -207
-3 -208 -280 0 -280 0 -3 28 -3 27 123 0 123 0 -122 66 c-115 61 -123 67 -123
95 0 16 3 29 6 29 3 0 83 -43 179 -95 144 -79 181 -95 217 -95 41 0 33 6 -179
122 -212 116 -223 123 -223 151 0 21 4 28 14 24 7 -3 121 -64 252 -136 l239
-130 3 161 c2 122 -1 164 -10 170 -7 5 -122 7 -255 5 -228 -4 -242 -3 -246 15
-5 18 -18 23 -30 11z"/>
<path d="M4888 3820 c14 -43 28 -78 29 -76 6 6 -41 156 -48 156 -4 0 5 -36 19
-80z"/>
<path d="M4780 3860 c-6 -10 -8 -39 -5 -62 l6 -43 -20 37 c-38 68 -43 51 -6
-21 19 -39 37 -71 40 -71 2 0 2 36 -2 80 -5 70 -4 80 10 80 10 0 29 -23 46
-57 17 -32 30 -52 31 -45 1 30 -61 122 -81 122 -5 0 -13 -9 -19 -20z"/>
<path d="M1257 3853 c-2 -5 -1 -19 4 -33 7 -23 7 -23 8 8 1 31 -3 40 -12 25z"/>
<path d="M827 3784 c-16 -9 -26 -18 -23 -22 4 -3 12 0 18 6 16 16 58 15 58 -1
0 -15 -67 -83 -74 -76 -3 3 -7 22 -9 42 -4 36 -13 55 -21 46 -6 -6 40 -199 49
-207 7 -7 5 2 -10 57 -7 23 -5 24 26 18 99 -17 105 -18 79 -8 -14 6 -44 15
-68 21 l-44 11 46 49 c44 47 56 70 37 70 -5 0 -15 2 -23 5 -7 2 -26 -3 -41
-11z"/>
<path d="M5360 3790 c0 -6 10 -14 23 -19 12 -5 37 -27 55 -50 27 -34 39 -41
68 -41 30 0 44 8 84 50 27 28 54 50 60 50 6 0 33 -22 60 -50 40 -42 54 -50 84
-50 29 0 41 7 72 44 20 25 48 47 61 51 13 3 21 10 18 15 -14 22 -48 7 -94 -40
-27 -27 -54 -50 -61 -50 -6 0 -33 23 -60 50 -38 39 -55 50 -80 50 -25 0 -42
-11 -80 -50 -27 -27 -54 -50 -60 -50 -7 0 -34 23 -61 50 -44 46 -89 66 -89 40z"/>
<path d="M4643 3783 c-8 -3 -13 -25 -13 -59 0 -31 4 -53 9 -50 4 3 16 -3 26
-14 26 -29 44 -25 61 15 16 40 18 65 4 65 -5 0 -10 -15 -10 -34 0 -19 -7 -39
-16 -47 -14 -11 -19 -10 -35 9 -17 22 -17 24 1 65 14 31 16 43 7 49 -13 9 -16
9 -34 1z m27 -22 c0 -17 -12 -41 -21 -41 -5 0 -9 11 -9 25 0 16 6 25 15 25 8
0 15 -4 15 -9z"/>
<path d="M1111 3734 c-23 -29 -37 -85 -27 -110 6 -15 8 -15 26 1 11 10 22 26
25 36 10 30 25 22 25 -13 0 -17 2 -29 5 -26 3 3 3 35 -1 72 -7 73 -20 82 -53
40z m39 -4 c0 -17 -38 -88 -51 -96 -16 -10 -4 52 16 83 16 24 35 31 35 13z"/>
<path d="M1234 3753 c-23 -4 -44 -42 -43 -76 1 -19 2 -18 9 6 10 32 28 57 41
57 14 0 10 -59 -6 -90 -16 -32 -30 -38 -38 -17 -3 7 -6 5 -6 -5 -1 -25 25 -22
43 3 14 21 15 20 19 -17 2 -22 4 3 5 54 1 50 1 91 0 91 -2 -1 -13 -4 -24 -6z"/>
<path d="M1296 3749 c-7 -21 -15 -151 -9 -145 7 6 23 150 17 155 -2 2 -6 -2
-8 -10z"/>
<path d="M1336 3699 c-13 -104 -5 -113 31 -36 21 44 38 67 49 67 15 0 16 -9
12 -71 -3 -41 -2 -65 3 -58 12 19 11 136 -1 144 -18 11 -49 -15 -62 -52 l-13
-37 -5 55 -6 54 -8 -66z"/>
<path d="M959 3703 c-11 -26 -16 -49 -11 -52 6 -3 11 -15 13 -26 3 -11 12 -21
23 -23 20 -4 76 44 76 66 0 8 -10 0 -23 -19 -12 -19 -33 -35 -45 -37 -19 -3
-22 1 -22 27 0 21 9 36 31 54 35 27 34 57 -1 57 -15 0 -26 -13 -41 -47z m55
28 c7 -10 -32 -47 -40 -38 -7 7 14 47 26 47 5 0 11 -4 14 -9z"/>
<path d="M4499 3733 c6 -12 16 -25 21 -28 6 -3 10 -17 10 -31 0 -16 4 -23 11
-18 6 3 31 -13 55 -37 24 -24 44 -39 44 -33 0 5 -20 29 -45 54 -35 34 -42 47
-35 61 15 27 11 37 -5 15 -13 -18 -15 -17 -40 10 -20 23 -24 24 -16 7z"/>
<path d="M1495 3675 c-34 -35 -48 -85 -23 -85 7 0 30 17 51 38 29 27 38 32 34
17 -3 -11 -13 -48 -22 -82 -17 -62 -43 -97 -80 -106 -17 -4 -17 -5 3 -6 43 -2
78 50 102 150 11 49 18 94 15 99 -12 20 -45 9 -80 -25z m65 17 c0 -4 -19 -28
-42 -52 -36 -38 -43 -41 -47 -25 -2 12 10 31 33 52 35 32 56 41 56 25z"/>
<path d="M4044 3676 c-10 -26 4 -48 28 -44 17 2 23 10 23 28 0 18 -6 26 -23
28 -13 2 -25 -3 -28 -12z"/>
<path d="M2349 3629 c-17 -33 3 -69 39 -69 33 0 52 16 52 45 0 29 -19 45 -52
45 -18 0 -31 -7 -39 -21z"/>
<path d="M4482 3630 c-12 -32 -3 -69 19 -81 16 -8 22 -5 37 20 23 42 32 39 33
-11 0 -36 2 -40 10 -23 12 25 -4 75 -24 75 -8 0 -19 -11 -25 -25 -6 -14 -16
-25 -22 -25 -17 0 -29 43 -18 63 5 10 7 21 4 24 -3 3 -9 -4 -14 -17z"/>
<path d="M5171 3575 c-112 -25 -187 -68 -269 -152 -52 -53 -82 -77 -101 -78
-41 -3 -102 -39 -141 -82 l-35 -38 40 36 c55 49 171 103 150 69 -10 -17 11
-11 38 10 39 31 164 88 210 95 29 5 52 18 75 41 44 45 101 73 170 85 53 8 59
7 95 -18 86 -60 151 -172 163 -281 4 -38 10 -59 15 -51 9 16 182 17 202 1 6
-5 21 -12 32 -16 48 -16 129 -114 117 -144 -3 -10 -1 -13 6 -8 7 4 12 2 12 -5
0 -7 3 -10 6 -7 7 8 -29 78 -60 115 -14 16 -46 41 -71 54 -37 19 -53 36 -75
79 -71 140 -169 232 -297 280 -74 28 -198 34 -282 15z"/>
<path d="M4410 3574 c1 -11 119 -98 125 -92 3 2 -10 15 -28 28 -17 13 -47 35
-64 48 -18 13 -33 20 -33 16z"/>
<path d="M4472 3475 c0 -16 2 -22 5 -12 2 9 2 23 0 30 -3 6 -5 -1 -5 -18z"/>
<path d="M3723 3396 c-51 -29 -95 -54 -97 -57 -3 -2 40 -3 95 -1 l99 3 0 55
c0 30 -1 54 -2 53 -2 -1 -45 -25 -95 -53z"/>
<path d="M4300 3435 c0 -3 36 -23 80 -45 88 -44 95 -42 87 22 l-4 33 -1 -37
c-1 -21 -5 -38 -8 -38 -3 0 -34 16 -68 35 -58 32 -86 42 -86 30z"/>
<path d="M960 3420 c-80 -13 -110 -26 -110 -50 0 -11 3 -20 8 -21 30 -3 58
-11 67 -20 9 -10 -20 -7 -62 7 -9 2 -13 -8 -12 -34 0 -20 3 -31 6 -24 2 6 10
9 16 6 8 -5 8 -2 0 7 -7 7 -13 17 -13 21 0 12 48 10 55 -2 3 -5 18 -10 33 -9
15 0 21 3 15 6 -24 9 -13 23 17 23 17 0 30 -4 30 -10 0 -5 7 -10 15 -10 8 0
15 -7 15 -15 0 -8 -6 -15 -14 -15 -8 0 -17 -4 -20 -9 -3 -4 6 -6 19 -3 22 4
25 10 25 43 0 45 27 79 63 79 28 0 57 -28 57 -55 0 -16 7 -17 68 -11 37 4 82
9 101 13 20 3 32 2 28 -4 -3 -5 -2 -15 4 -23 7 -12 9 -11 9 6 0 12 10 28 22
36 33 22 17 44 -44 58 -67 15 -325 22 -398 10z"/>
<path d="M1088 3369 c-13 -7 -18 -23 -18 -53 0 -38 3 -44 25 -48 13 -3 22 -1
19 3 -3 5 -12 9 -20 9 -8 0 -14 5 -14 10 0 6 28 11 63 12 l62 1 -65 7 c-53 5
-57 7 -22 8 47 2 52 12 22 42 -23 23 -28 24 -52 9z"/>
<path d="M1450 3361 c0 -5 -8 -8 -17 -7 -10 0 -17 -5 -15 -11 1 -7 -4 -13 -12
-13 -9 0 -12 -8 -8 -27 4 -23 2 -25 -17 -20 -16 4 -21 1 -21 -15 0 -17 3 -18
15 -8 21 17 19 4 -7 -41 -11 -21 -26 -35 -31 -32 -6 3 -7 1 -3 -5 3 -6 2 -13
-4 -17 -25 -16 -9 -34 30 -33 25 0 37 4 33 11 -4 6 0 8 10 4 22 -8 85 47 103
90 21 49 18 110 -5 123 -24 12 -51 13 -51 1z m54 -54 c-3 -23 -6 -50 -7 -59
-1 -9 -6 -14 -11 -11 -5 4 -7 -1 -3 -10 3 -9 -1 -21 -11 -29 -16 -12 -16 -11
-2 7 14 20 14 20 -7 1 -12 -10 -21 -22 -20 -26 1 -4 -2 -9 -8 -11 -5 -1 -30
-8 -54 -16 -24 -7 -46 -11 -49 -9 -7 8 8 26 21 26 22 0 52 65 71 153 4 15 10
26 14 24 4 -3 16 -1 27 3 35 13 45 2 39 -43z"/>
<path d="M4778 3303 c7 -3 16 -2 19 1 4 3 -2 6 -13 5 -11 0 -14 -3 -6 -6z"/>
<path d="M2842 3207 c-129 -70 -131 -72 -94 -75 32 -2 61 9 170 69 73 39 132
73 132 75 0 2 -17 4 -37 4 -28 0 -73 -19 -171 -73z"/>
<path d="M861 3252 c-1 -7 5 -25 13 -41 17 -32 46 -59 46 -42 0 6 -5 11 -11
11 -5 0 -7 5 -3 12 4 6 3 8 -3 5 -6 -4 -18 9 -26 31 -9 20 -16 31 -16 24z"/>
<path d="M3010 3189 l-105 -59 108 0 107 0 0 60 c0 33 -1 60 -2 59 -2 -1 -50
-27 -108 -60z"/>
<path d="M4729 3233 c-13 -16 -12 -17 4 -4 9 7 17 15 17 17 0 8 -8 3 -21 -13z"/>
<path d="M4820 3236 c0 -15 78 -46 117 -46 40 0 25 27 -24 44 -58 20 -93 21
-93 2z"/>
<path d="M979 3199 l-2 -44 -7 40 -7 40 -2 -48 c-1 -45 -3 -48 -23 -42 -13 3
-3 -5 22 -18 37 -20 55 -24 103 -19 77 6 73 17 -6 15 l-64 -1 -2 56 c-3 69
-10 82 -12 21z"/>
<path d="M4600 3180 c-27 -52 -25 -74 2 -31 19 29 31 71 22 71 -2 0 -13 -18
-24 -40z"/>
<path d="M4700 3195 c-7 -9 -11 -17 -9 -20 3 -2 10 5 17 15 14 24 10 26 -8 5z"/>
<path d="M5524 3178 l-19 -21 28 18 c28 18 33 25 19 25 -5 0 -17 -10 -28 -22z"/>
<path d="M4420 3178 c0 -9 -10 -24 -22 -32 l-22 -16 22 -16 c12 -8 22 -23 22
-32 1 -14 2 -14 12 3 6 11 20 28 32 37 18 15 19 18 4 18 -10 0 -24 12 -32 28
-10 18 -15 22 -16 10z"/>
<path d="M5060 3175 c-7 -9 -6 -16 3 -23 19 -16 144 -45 163 -38 28 11 1 28
-81 52 -59 17 -77 19 -85 9z"/>
<path d="M5452 3130 c-76 -97 -104 -261 -63 -370 11 -30 29 -60 39 -66 15 -10
14 -4 -7 40 -22 43 -26 65 -26 141 0 105 20 175 65 225 17 19 30 38 30 43 0 5
7 4 15 -3 9 -7 15 -8 15 -2 0 9 -24 23 -38 21 -4 0 -17 -13 -30 -29z"/>
<path d="M395 3141 c-8 -15 3 -31 21 -31 9 0 14 7 12 17 -4 20 -24 28 -33 14z"/>
<path d="M4796 3134 c-46 -45 -19 -116 46 -122 29 -2 40 2 57 24 26 34 27 68
1 94 -24 24 -82 27 -104 4z"/>
<path d="M4650 3100 c-7 -17 -10 -33 -8 -36 3 -3 11 9 17 27 6 18 9 34 7 36
-2 2 -9 -10 -16 -27z"/>
<path d="M5597 3100 c-26 -16 -52 -30 -57 -30 -5 0 -7 -6 -4 -14 3 -8 0 -17
-7 -22 -8 -5 -10 -3 -4 6 5 8 4 11 -2 7 -17 -11 -36 -141 -29 -193 4 -27 8
-59 9 -71 1 -11 5 -19 9 -17 4 3 15 -7 24 -21 27 -42 151 -103 171 -84 4 4 19
9 33 11 35 4 107 74 136 130 31 62 33 151 4 208 -11 23 -16 40 -10 40 6 0 3
11 -7 25 -10 13 -24 22 -31 20 -8 -3 -26 4 -42 15 -45 32 -134 28 -193 -10z
m133 -70 c-11 -8 -9 -9 10 -5 19 5 32 0 49 -19 14 -14 20 -30 16 -37 -5 -7 -4
-10 3 -5 17 10 25 -55 12 -102 -18 -68 -47 -94 -112 -100 -50 -4 -58 -2 -88
25 -29 26 -32 35 -36 93 -3 47 -1 60 6 45 8 -17 9 -14 7 15 -1 25 2 34 11 32
8 -1 11 2 7 8 -16 26 37 58 95 59 27 1 31 -2 20 -9z"/>
<path d="M5688 3023 c7 -3 16 -2 19 1 4 3 -2 6 -13 5 -11 0 -14 -3 -6 -6z"/>
<path d="M5642 3005 c-11 -12 -10 -15 3 -15 8 0 15 7 15 15 0 18 -2 18 -18 0z"/>
<path d="M5808 2900 c-4 -19 -10 -46 -13 -60 -3 -14 2 -7 10 15 9 22 14 49 13
60 -2 13 -6 8 -10 -15z"/>
<path d="M5590 2879 c0 -5 5 -7 10 -4 6 3 10 8 10 11 0 2 -4 4 -10 4 -5 0 -10
-5 -10 -11z"/>
<path d="M4576 3065 c3 -38 2 -45 -6 -30 -8 16 -9 14 -5 -14 3 -18 5 -41 6
-50 1 -9 7 13 14 49 7 36 11 67 9 69 -2 2 -4 -2 -5 -10 -1 -8 -5 -3 -9 11 -7
18 -8 11 -4 -25z"/>
<path d="M1078 3093 c23 -2 61 -2 85 0 23 2 4 4 -43 4 -47 0 -66 -2 -42 -4z"/>
<path d="M3628 3089 c4 -4 49 -29 100 -57 l92 -51 0 54 0 54 -100 3 c-54 2
-96 0 -92 -3z"/>
<path d="M5037 3062 c-10 -10 -17 -33 -17 -50 0 -61 66 -93 118 -56 28 20 31
83 4 107 -25 23 -85 22 -105 -1z"/>
<path d="M920 3060 c-15 -5 66 -8 198 -9 124 -1 221 3 218 8 -7 11 -383 12
-416 1z"/>
<path d="M1765 3050 c-3 -6 5 -14 18 -19 13 -5 38 -27 55 -49 18 -22 40 -42
49 -44 35 -9 80 12 112 52 42 53 66 52 118 -5 35 -39 45 -45 81 -45 35 0 44 5
73 41 17 22 43 45 55 50 30 11 31 29 2 29 -13 0 -39 -20 -67 -50 -25 -27 -54
-50 -64 -50 -10 0 -39 23 -66 50 -35 36 -56 50 -76 50 -20 0 -41 -14 -76 -50
-27 -27 -56 -50 -66 -50 -10 0 -39 23 -64 50 -44 48 -71 61 -84 40z"/>
<path d="M4622 2995 c0 -16 2 -22 5 -12 2 9 2 23 0 30 -3 6 -5 -1 -5 -18z"/>
<path d="M5968 2926 c3 -70 1 -96 -7 -96 -8 0 -10 -8 -6 -22 7 -23 7 -23 -9
-3 -14 18 -15 18 -16 3 0 -10 5 -18 11 -18 16 0 2 -46 -27 -89 -26 -39 -33
-27 -9 19 11 22 12 30 2 34 -9 5 -9 7 1 12 13 6 17 56 5 67 -6 7 -29 -44 -40
-91 -3 -12 -20 -29 -39 -38 -19 -9 -34 -20 -34 -24 0 -12 64 -19 71 -8 4 7 9
7 13 0 8 -13 -62 -74 -76 -66 -6 4 -8 3 -4 -4 3 -5 0 -13 -6 -15 -8 -3 -9 -6
-2 -6 17 -1 103 78 129 119 13 20 30 61 39 90 16 55 20 180 7 214 -4 10 -5
-25 -3 -78z"/>
<path d="M5451 2994 c0 -11 3 -14 6 -6 3 7 2 16 -1 19 -3 4 -6 -2 -5 -13z"/>
<path d="M750 2920 c0 -74 2 -80 23 -85 12 -3 171 -4 352 -3 l330 3 3 83 3 82
-356 0 -355 0 0 -80z m560 19 l18 -22 6 21 c4 12 12 22 17 22 12 0 12 2 -7
-53 -16 -48 -39 -67 -29 -24 7 28 -15 50 -40 41 -16 -6 -15 -9 6 -26 l24 -20
-27 6 c-21 5 -28 3 -28 -9 0 -20 -20 -19 -36 3 -13 16 -13 16 -14 0 0 -20 -28
-14 -47 11 -11 14 -12 13 -13 -6 0 -13 -4 -23 -10 -23 -5 0 -10 8 -10 17 0 16
-1 16 -12 0 -7 -9 -22 -15 -33 -13 -15 2 -21 12 -23 39 -2 21 -8 37 -14 37 -7
0 -9 -15 -5 -40 6 -49 -10 -53 -19 -5 -3 20 -12 35 -20 35 -22 0 -16 17 9 24
42 11 67 7 67 -11 0 -13 3 -15 8 -5 10 15 44 11 66 -7 14 -12 16 -11 16 8 0
37 20 22 22 -16 l1 -38 4 38 c5 42 15 47 31 15 10 -23 11 -23 11 4 1 25 4 27
33 24 18 -2 39 -14 48 -27z m-430 11 c9 -6 17 -5 23 3 7 9 10 9 14 -1 4 -10 8
-10 19 -1 11 9 18 9 26 1 9 -9 8 -12 -4 -12 -15 0 -35 -47 -24 -58 3 -3 15 3
26 13 24 22 27 9 3 -17 -9 -10 -27 -18 -40 -18 -18 0 -23 5 -23 26 l0 27 -21
-27 c-11 -14 -24 -26 -29 -26 -8 0 -20 80 -13 93 6 10 25 9 43 -3z"/>
<path d="M1255 2940 c-3 -6 1 -7 9 -4 18 7 21 14 7 14 -6 0 -13 -4 -16 -10z"/>
<path d="M1088 2905 c-3 -14 -1 -25 3 -25 5 0 9 11 9 25 0 14 -2 25 -4 25 -2
0 -6 -11 -8 -25z"/>
<path d="M852 2916 c2 -19 5 -22 15 -14 18 14 16 38 -2 38 -10 0 -14 -9 -13
-24z"/>
<path d="M4580 2938 c1 -7 9 -29 20 -48 l19 -35 -1 50 c0 43 -1 46 -8 20 -7
-27 -15 -18 -11 13 1 6 -3 12 -9 12 -5 0 -10 -6 -10 -12z"/>
<path d="M5919 2928 c-4 -16 -2 -28 4 -28 5 0 16 -8 23 -17 12 -16 12 -16 7 5
-3 12 -9 22 -13 22 -5 0 -10 10 -12 23 -3 20 -4 20 -9 -5z"/>
<path d="M5430 2915 c0 -8 5 -15 10 -15 6 0 10 7 10 15 0 8 -4 15 -10 15 -5 0
-10 -7 -10 -15z"/>
<path d="M1622 2840 l-33 -40 -494 0 c-492 0 -494 0 -497 21 -3 19 -6 18 -46
-16 l-42 -37 0 -133 0 -134 -35 -27 c-19 -14 -35 -29 -35 -33 0 -3 60 -5 134
-4 131 1 135 0 139 -20 4 -22 4 -22 6 1 l1 22 419 0 c391 0 420 -1 424 -17 4
-17 5 -17 6 0 1 14 11 17 55 17 48 0 57 3 80 31 14 17 26 26 26 21 0 -5 -9
-17 -20 -27 -11 -10 -20 -22 -20 -28 0 -5 18 13 40 41 22 27 40 57 40 66 0 18
-35 22 -45 6 -4 -6 -11 -7 -17 -4 -6 4 -8 3 -5 -3 3 -5 -5 -22 -18 -39 l-24
-29 -1 146 c0 133 2 149 21 173 11 14 25 23 31 20 6 -4 8 -2 5 3 -4 6 3 22 14
37 l20 26 -48 0 c-44 0 -51 -4 -81 -40z m-982 -221 l0 -150 -27 3 -28 3 -3
115 c-4 151 1 180 33 180 l25 0 0 -151z m70 1 c0 -143 -1 -150 -20 -150 -19 0
-20 7 -20 143 0 79 3 147 7 150 3 4 12 7 20 7 10 0 13 -32 13 -150z m760 0 c0
-127 -2 -150 -15 -150 -13 0 -15 23 -15 150 0 127 2 150 15 150 13 0 15 -23
15 -150z m90 0 l0 -150 -30 0 -30 0 0 143 c0 79 3 147 7 150 3 4 17 7 30 7
l23 0 0 -150z m-494 28 c16 3 24 0 24 -9 0 -11 2 -11 9 0 8 12 11 8 16 -15 11
-48 13 -51 14 -17 1 46 19 50 24 6 2 -24 4 -12 5 30 2 79 22 92 22 15 1 -53 1
-53 16 -25 15 28 28 34 39 17 4 -6 11 -8 16 -5 5 4 9 0 9 -7 0 -10 2 -10 9 1
13 20 55 6 69 -21 11 -23 11 -23 11 5 1 15 6 27 11 27 6 0 10 -31 10 -74 0
-41 -4 -78 -10 -81 -6 -4 -10 9 -10 31 0 40 -34 104 -55 104 -8 0 -15 -13 -17
-32 -4 -44 -28 -49 -30 -6 l-1 33 -4 -33 c-2 -18 -9 -30 -14 -26 -5 3 -6 11
-2 17 3 7 -2 5 -13 -4 -23 -20 -62 -30 -69 -19 -3 4 -14 6 -25 3 -16 -4 -20 0
-20 20 l0 26 -25 -24 c-28 -29 -75 -34 -75 -8 0 15 -2 14 -15 -3 -12 -15 -16
-16 -24 -5 -6 9 -11 10 -15 2 -10 -15 -46 -14 -46 1 0 9 -3 9 -12 0 -25 -25
-38 -13 -38 32 0 48 17 70 34 44 8 -14 12 -13 27 6 17 20 18 20 25 2 5 -12 2
-21 -9 -28 -19 -10 -23 -43 -7 -53 6 -3 14 4 19 17 6 13 10 19 10 13 1 -5 10
5 21 23 13 22 26 32 35 28 11 -4 15 2 15 18 0 38 15 41 18 3 3 -30 6 -34 28
-29z m-216 34 c0 -34 -25 -122 -34 -122 -7 0 -22 20 -34 45 -25 52 -26 55 -11
55 5 0 15 -13 20 -30 14 -38 25 -31 34 20 4 22 11 40 16 40 5 0 9 -4 9 -8z"/>
<path d="M872 2615 c0 -16 2 -22 5 -12 2 9 2 23 0 30 -3 6 -5 -1 -5 -18z"/>
<path d="M985 2619 c-4 -6 -5 -12 -2 -15 2 -3 7 2 10 11 7 17 1 20 -8 4z"/>
<path d="M1052 2618 c-14 -14 -16 -42 -2 -33 14 9 32 45 22 45 -4 0 -13 -5
-20 -12z"/>
<path d="M4376 2846 c-4 -16 -20 -33 -43 -44 l-36 -19 27 -7 c15 -4 35 -21 46
-38 l19 -32 10 28 c6 15 24 33 41 40 l31 12 -26 12 c-14 6 -33 25 -44 42 l-19
31 -6 -25z"/>
<path d="M4760 2830 c-22 -41 23 -126 83 -156 68 -35 182 -10 217 48 36 59 19
71 -150 108 -118 25 -137 25 -150 0z"/>
<path d="M2627 2754 c-4 -4 -7 -169 -7 -367 0 -198 -2 -358 -5 -355 -3 3 -30
105 -61 228 -56 229 -114 418 -140 458 -26 39 -41 27 -48 -39 -8 -79 -8 -286
1 -562 l6 -218 26 3 c23 3 26 7 24 38 -9 157 -12 651 -4 635 5 -11 33 -108 61
-215 78 -295 140 -480 161 -480 23 0 27 66 30 455 4 417 4 420 -16 423 -12 2
-24 0 -28 -4z"/>
<path d="M2874 2746 c-78 -35 -114 -140 -121 -357 -10 -275 26 -440 106 -495
40 -27 101 -32 140 -10 21 12 28 12 46 0 12 -8 26 -10 34 -5 12 8 12 27 1 122
-18 157 -29 172 -112 148 -27 -7 -38 -15 -38 -29 0 -12 7 -20 18 -21 72 -4 66
1 76 -68 9 -60 8 -65 -14 -83 -60 -49 -129 -26 -170 57 -24 47 -25 61 -28 239
-4 211 7 322 39 397 25 56 42 69 94 69 32 0 36 3 33 23 -2 17 -10 22 -38 24
-19 2 -49 -3 -66 -11z"/>
<path d="M4645 2730 c18 -112 150 -277 272 -339 34 -17 68 -31 75 -31 7 1 -17
16 -53 35 -75 39 -166 117 -211 183 -18 25 -45 78 -60 116 -20 49 -27 60 -23
36z"/>
<path d="M3154 2736 c-3 -8 -1 -128 5 -266 6 -138 11 -322 11 -410 0 -143 2
-160 18 -169 11 -6 23 -6 33 0 7 5 33 8 57 7 29 -1 46 3 52 12 14 23 -9 40
-55 40 l-43 0 -6 143 c-3 78 -9 252 -12 387 -3 142 -10 250 -16 258 -14 16
-37 15 -44 -2z"/>
<path d="M3682 2725 c-44 -37 -55 -74 -50 -164 4 -71 11 -92 65 -207 34 -71
67 -147 74 -168 25 -83 9 -196 -35 -244 -18 -20 -27 -22 -67 -17 -31 4 -49 3
-54 -5 -11 -19 18 -41 61 -46 114 -14 191 116 165 274 -8 45 -33 111 -77 202
-87 182 -100 274 -48 332 13 14 25 17 50 12 42 -8 55 13 24 38 -31 25 -73 23
-108 -7z"/>
<path d="M2170 2733 c-19 -3 -39 -8 -44 -13 -14 -14 -7 -801 7 -818 14 -17
140 -13 158 5 25 25 2 43 -56 43 l-55 0 2 178 3 177 33 3 c37 4 51 24 32 47
-9 11 -23 14 -44 10 l-31 -6 -2 155 -1 156 28 0 c41 0 60 10 60 31 0 17 -29
41 -47 37 -4 0 -24 -3 -43 -5z"/>
<path d="M3434 2731 c-43 -11 -54 -19 -54 -42 0 -13 7 -19 23 -19 l24 0 8
-272 c5 -150 9 -311 9 -358 l1 -85 -32 -3 c-24 -2 -33 -8 -33 -22 0 -10 7 -21
16 -24 24 -9 147 -7 162 3 25 15 9 46 -24 49 l-31 3 -6 167 c-4 92 -11 250
-17 351 -6 101 -7 187 -3 192 4 4 19 9 33 11 15 2 26 11 28 22 7 33 -33 43
-104 27z"/>
<path d="M3916 2733 c-10 -10 -7 -401 4 -568 14 -215 32 -287 62 -257 7 7 6
71 -2 202 -7 105 -9 194 -5 198 7 7 92 8 99 1 3 -2 8 -99 13 -214 8 -201 9
-210 28 -210 19 0 20 6 19 215 0 345 -14 608 -31 625 -32 33 -34 17 -27 -184
l7 -198 -54 -5 c-30 -3 -57 -4 -61 -1 -5 2 -8 89 -8 193 0 175 -1 190 -19 199
-10 6 -21 7 -25 4z"/>
<path d="M5560 2692 c0 -4 9 -13 20 -20 22 -13 27 -3 8 16 -14 14 -28 16 -28
4z"/>
<path d="M5760 2660 c-23 -7 -23 -8 -3 -9 12 -1 25 4 28 9 3 6 5 10 3 9 -2 -1
-14 -5 -28 -9z"/>
<path d="M5618 2653 c6 -2 18 -2 25 0 6 3 1 5 -13 5 -14 0 -19 -2 -12 -5z"/>
<path d="M5470 2636 c0 -2 8 -10 18 -17 15 -13 16 -12 3 4 -13 16 -21 21 -21
13z"/>
<path d="M5546 2583 c24 -18 81 -33 124 -33 50 0 112 19 104 32 -4 7 -9 7 -14
-1 -11 -19 -105 -25 -157 -10 l-48 14 35 6 c31 6 30 6 -14 6 -43 0 -47 -2 -30
-14z"/>
<path d="M468 2299 c2 -72 7 -129 13 -129 5 0 9 51 9 120 l0 120 48 1 c66 2
86 -1 94 -14 4 -7 6 -1 5 11 -1 22 -4 23 -87 21 l-85 -1 3 -129z"/>
<path d="M444 2300 c0 -69 1 -97 3 -62 2 34 2 90 0 125 -2 34 -3 6 -3 -63z"/>
<path d="M1684 2315 c0 -60 1 -84 3 -52 2 32 2 81 0 110 -2 29 -3 3 -3 -58z"/>
<path d="M920 2398 c0 -5 6 -8 13 -9 6 0 3 -4 -8 -9 -14 -6 0 -9 46 -9 50 -1
66 2 66 13 0 10 -17 15 -59 18 -32 2 -58 0 -58 -4z"/>
<path d="M1416 2401 c-3 -5 -16 -7 -29 -4 -18 4 -19 3 -7 -6 19 -13 60 -14 60
-2 0 14 -18 23 -24 12z"/>
<path d="M4387 2383 c-15 -15 -6 -52 14 -58 28 -9 53 16 44 44 -6 20 -43 29
-58 14z"/>
<path d="M5832 2371 c-20 -12 -10 -46 14 -49 25 -4 40 24 23 44 -13 16 -19 17
-37 5z"/>
<path d="M773 2361 c1 -4 -8 -19 -20 -34 -18 -24 -22 -25 -26 -10 -2 10 -4 -4
-4 -32 l-1 -50 14 40 c16 43 50 85 71 85 20 0 16 -18 -6 -25 -22 -7 -54 -75
-41 -88 9 -10 50 9 50 24 0 6 -4 7 -10 4 -5 -3 -10 1 -10 10 0 9 12 18 31 22
21 4 27 8 17 14 -7 4 -13 16 -13 26 0 13 -8 18 -27 19 -15 1 -26 -2 -25 -5z
m37 -40 c0 -5 -7 -12 -16 -15 -14 -5 -15 -4 -4 9 14 17 20 19 20 6z m-27 -46
c4 -8 2 -17 -3 -20 -6 -4 -10 3 -10 14 0 25 6 27 13 6z"/>
<path d="M1194 2345 c-7 -15 -8 -28 -2 -37 8 -10 8 -9 4 5 -3 11 0 17 9 17 8
0 15 6 15 14 0 25 -15 25 -26 1z"/>
<path d="M1000 2353 c-8 -2 -22 -7 -30 -10 -8 -3 -35 -5 -60 -3 -25 1 -41 -2
-37 -6 4 -5 24 -7 44 -5 23 2 33 -1 29 -8 -4 -6 -16 -11 -27 -11 -14 0 -19 -6
-18 -27 2 -24 2 -25 6 -5 2 12 9 22 15 22 6 0 8 -10 4 -26 -7 -25 12 -84 25
-84 4 0 9 10 12 22 5 16 9 19 19 11 7 -6 29 -10 48 -9 19 1 38 -3 42 -8 5 -7
11 -6 20 2 8 9 9 12 2 10 -7 -2 -12 2 -12 7 0 6 4 9 9 8 5 -2 8 12 8 30 -1 21
-3 25 -6 11 -2 -12 -13 -30 -24 -40 -19 -17 -19 -16 -14 17 l5 34 -12 -32 c-6
-18 -14 -33 -19 -33 -4 0 -10 15 -12 33 l-4 32 -1 -32 c-2 -36 -22 -46 -22
-12 0 21 0 21 -18 -1 -41 -50 -55 16 -16 75 21 33 42 32 47 -2 4 -25 4 -25 6
6 1 25 5 32 17 27 8 -3 12 -2 9 4 -7 11 -12 11 -35 3z"/>
<path d="M1121 2341 c-4 -9 -4 -34 0 -56 6 -40 6 -40 8 13 1 50 20 75 22 30 1
-17 2 -19 6 -5 2 9 11 17 19 17 8 0 14 4 14 8 0 16 -61 9 -69 -7z"/>
<path d="M1285 2340 c-3 -6 1 -7 9 -4 18 7 21 14 7 14 -6 0 -13 -4 -16 -10z"/>
<path d="M1357 2335 c-9 -6 -17 -16 -17 -20 0 -4 7 -2 15 5 8 7 24 10 35 7 25
-6 26 -1 2 12 -12 6 -23 5 -35 -4z"/>
<path d="M1428 2343 c7 -3 16 -2 19 1 4 3 -2 6 -13 5 -11 0 -14 -3 -6 -6z"/>
<path d="M1066 2315 c4 -8 7 -15 9 -15 2 0 5 7 9 15 3 9 0 15 -9 15 -9 0 -12
-6 -9 -15z"/>
<path d="M1253 2314 c-7 -7 -13 -23 -13 -36 1 -19 3 -17 16 11 16 38 15 46 -3
25z"/>
<path d="M1370 2293 c0 -10 4 -14 8 -8 4 6 11 13 16 18 5 4 2 7 -7 7 -10 0
-17 -8 -17 -17z"/>
<path d="M847 2293 c-4 -3 -7 -30 -7 -60 0 -43 3 -53 18 -54 9 -1 -3 -5 -28
-9 -25 -4 -70 -5 -100 -3 -41 3 -51 2 -40 -6 16 -12 775 -16 843 -5 69 12 38
20 -59 16 l-97 -5 5 26 c3 15 1 24 -3 21 -5 -3 -10 10 -10 28 -2 31 -2 31 -6
5 -6 -40 -27 -28 -34 19 l-6 39 -2 -42 c0 -23 -7 -44 -13 -47 -7 -2 -4 -4 7
-4 47 2 56 -2 53 -24 l-3 -23 -225 0 c-124 0 -231 2 -237 4 -16 4 -17 28 -1
33 7 3 9 12 4 23 -6 16 -9 17 -17 5 -8 -13 -10 -13 -20 0 -9 13 -10 12 -5 -2
3 -10 0 -20 -6 -24 -7 -5 -8 9 -3 45 7 50 5 58 -8 44z"/>
<path d="M1271 2273 c-10 -26 -10 -27 4 -9 8 11 15 23 15 28 0 15 -7 8 -19
-19z"/>
<path d="M1207 2268 c-8 -31 -27 -38 -28 -10 0 12 -3 10 -12 -8 -16 -35 -17
-36 -27 -20 -6 9 -10 10 -10 3 0 -20 22 -27 34 -11 13 17 39 12 30 -5 -4 -7 1
-5 10 4 11 10 16 27 14 45 l-3 29 -8 -27z"/>
<path d="M1282 2239 c-7 -11 -19 -18 -26 -16 -10 4 -12 -1 -9 -14 6 -22 23
-26 23 -4 0 7 7 18 16 23 9 5 15 14 13 21 -2 6 -10 2 -17 -10z"/>
<path d="M1381 2244 c0 -11 3 -14 6 -6 3 7 2 16 -1 19 -3 4 -6 -2 -5 -13z"/>
<path d="M1729 2209 c-20 -21 -34 -39 -31 -39 2 0 -1 -7 -8 -15 -11 -14 -88
-15 -631 -13 -341 2 -619 0 -619 -3 0 -17 927 -27 1143 -12 l97 6 46 54 c54
63 56 81 3 22z"/>
<path d="M812 2220 c0 -14 2 -19 5 -12 2 6 2 18 0 25 -3 6 -5 1 -5 -13z"/>
<path d="M730 2220 c0 -9 58 -11 63 -3 3 5 -10 8 -29 9 -19 0 -34 -2 -34 -6z"/>
<path d="M1020 2190 c-13 -8 -12 -10 3 -10 9 0 17 5 17 10 0 12 -1 12 -20 0z"/>
<path d="M4746 2144 c3 -25 1 -45 -5 -49 -16 -9 -13 -28 3 -22 10 4 19 -12 31
-55 9 -33 19 -58 22 -55 2 3 -3 33 -13 67 l-17 62 24 19 c25 19 16 26 -11 9
-12 -7 -17 -1 -27 28 l-12 37 5 -41z"/>
<path d="M5580 2113 l0 -67 -47 47 c-31 29 -53 43 -60 39 -9 -6 1 -21 32 -52
25 -24 45 -48 45 -52 0 -4 -29 -8 -65 -8 -51 0 -65 -3 -65 -15 0 -12 14 -15
67 -15 l67 0 -48 -49 c-32 -33 -44 -51 -36 -56 7 -4 29 9 54 34 23 22 45 41
49 41 4 0 7 -27 7 -60 0 -47 3 -60 15 -60 12 0 15 13 15 60 0 33 3 60 7 60 4
0 26 -19 49 -41 25 -25 47 -38 54 -34 8 5 -4 23 -36 56 l-48 49 67 0 c53 0 67
3 67 15 0 12 -14 15 -65 15 -36 0 -65 3 -65 7 0 4 19 26 41 49 25 25 38 47 34
54 -5 8 -23 -4 -56 -36 l-49 -48 0 67 c0 53 -3 67 -15 67 -12 0 -15 -14 -15
-67z"/>
<path d="M578 2163 c17 -2 47 -2 65 0 17 2 3 4 -33 4 -36 0 -50 -2 -32 -4z"/>
<path d="M1648 2153 c7 -3 16 -2 19 1 4 3 -2 6 -13 5 -11 0 -14 -3 -6 -6z"/>
<path d="M4885 2100 c3 -30 5 -67 5 -82 0 -46 16 -31 29 27 10 45 47 112 52
95 1 -3 7 -36 14 -75 10 -59 13 -64 14 -30 1 54 -17 115 -34 115 -17 0 -40
-33 -50 -75 -8 -29 -9 -28 -21 25 l-13 55 4 -55z"/>
<path d="M4831 2125 c0 -11 6 -49 14 -85 l14 -65 -6 65 c-3 36 -9 74 -14 85
l-8 20 0 -20z"/>
<path d="M5060 2102 c-34 -34 -48 -78 -30 -95 9 -9 18 -4 41 23 16 19 29 39
29 44 0 6 -13 -5 -29 -24 -30 -36 -48 -37 -37 -2 7 22 54 72 67 72 13 0 3
-172 -12 -204 -7 -16 -27 -35 -44 -42 -24 -11 -26 -13 -9 -14 49 -1 82 71 86
185 3 69 1 80 -15 83 -9 2 -30 -10 -47 -26z"/>
<path d="M4700 2102 c0 -17 43 -137 53 -147 6 -7 8 -5 4 5 -3 8 -15 45 -27 83
-19 60 -30 82 -30 59z"/>
<path d="M4645 2066 c-14 -10 -17 -21 -12 -50 3 -20 4 -36 2 -36 -2 0 -12 15
-24 33 -11 17 -21 27 -21 22 0 -15 71 -118 77 -111 3 3 -2 23 -11 46 -21 52
-20 77 1 89 10 5 15 12 12 15 -3 3 -14 0 -24 -8z"/>
<path d="M4490 2068 c0 -3 16 -40 35 -82 19 -42 32 -76 29 -76 -3 0 -30 16
-60 36 -30 20 -57 34 -60 32 -2 -3 9 -40 25 -82 16 -42 26 -76 22 -76 -4 0
-36 20 -71 45 -35 25 -66 42 -69 39 -3 -3 1 -10 10 -14 9 -5 40 -28 70 -50 53
-40 79 -50 79 -30 0 6 -11 38 -25 72 -32 78 -31 84 4 58 31 -21 101 -54 101
-46 0 7 -79 168 -85 174 -3 3 -5 3 -5 0z"/>
<path d="M420 1979 c0 -24 -39 -69 -69 -81 l-26 -10 34 -17 c19 -10 42 -33 51
-51 l17 -32 21 36 c12 20 35 43 52 50 l30 12 -35 17 c-20 10 -42 32 -54 54
-11 21 -20 31 -21 22z"/>
<path d="M1256 1852 c-9 -14 -76 -193 -76 -200 1 -4 6 3 13 15 l13 23 37 -31
c20 -17 37 -27 37 -23 0 4 -14 19 -31 33 l-31 26 53 35 c29 19 55 41 57 49 3
10 -5 7 -24 -7 -55 -43 -75 -55 -80 -49 -3 2 6 33 20 68 14 34 24 64 22 66 -2
3 -7 0 -10 -5z"/>
<path d="M4777 1846 c-68 -25 -117 -86 -117 -145 0 -47 -9 -60 -52 -72 l-41
-10 6 -43 c9 -60 24 -96 42 -96 11 0 390 103 499 136 15 5 18 13 13 48 -2 22
-10 54 -16 69 -11 28 -13 29 -59 22 -47 -6 -49 -5 -76 29 -48 63 -128 88 -199
62z"/>
<path d="M687 1839 c-22 -13 -47 -61 -47 -93 0 -23 34 -55 47 -43 2 3 -5 8
-16 12 -15 4 -21 15 -21 34 0 32 34 81 56 81 8 0 14 5 14 10 0 13 -10 12 -33
-1z"/>
<path d="M972 1790 c-20 -38 -21 -44 -7 -76 8 -19 18 -34 23 -34 16 0 75 44
80 60 3 8 -12 0 -33 -18 -33 -30 -39 -32 -52 -19 -22 21 -8 52 33 76 39 24 41
44 3 49 -20 2 -29 -5 -47 -38z m61 23 c8 -7 -23 -32 -41 -33 -10 0 -10 5 -2
20 11 20 31 26 43 13z"/>
<path d="M853 1800 c-27 -16 -33 -17 -33 -5 0 8 -5 15 -10 15 -6 0 -8 -10 -5
-22 20 -89 25 -118 25 -155 0 -24 3 -43 8 -43 4 0 6 20 4 45 -4 43 -1 49 43
96 48 51 55 82 20 87 -11 1 -35 -7 -52 -18z m60 3 c13 -12 -51 -92 -74 -93 -4
0 -9 10 -12 21 -10 36 62 96 86 72z"/>
<path d="M1120 1783 c-35 -43 -47 -80 -32 -95 8 -8 19 -2 41 20 16 18 32 32
35 32 4 0 5 -17 2 -37 -4 -30 -4 -33 3 -13 5 14 9 49 10 78 1 64 -14 68 -59
15z m50 9 c0 -15 -59 -92 -70 -92 -17 0 -11 15 20 58 28 39 50 54 50 34z"/>
<path d="M2491 1789 c-43 -46 -90 -226 -77 -291 13 -64 57 -84 115 -53 35 17
111 102 111 122 0 22 -15 12 -51 -36 -50 -66 -83 -87 -116 -75 -41 14 -48 52
-29 152 22 112 58 182 94 182 8 0 21 -8 29 -17 12 -17 13 -16 11 7 -4 35 -57
41 -87 9z"/>
<path d="M1330 1694 c-17 -37 -29 -72 -27 -77 1 -5 17 23 35 63 18 40 30 75
28 78 -3 2 -19 -26 -36 -64z"/>
<path d="M1372 1674 c-18 -37 -31 -69 -28 -72 3 -3 28 16 55 41 47 44 81 60
81 37 0 -6 -14 -37 -30 -70 -17 -33 -28 -60 -25 -60 10 0 65 106 65 128 0 31
-40 29 -79 -4 -36 -30 -38 -27 -11 26 11 22 17 40 12 40 -4 0 -22 -30 -40 -66z"/>
<path d="M720 1719 c-18 -6 -14 -7 18 -3 52 7 54 -5 5 -45 -21 -17 -33 -31
-28 -31 17 0 75 58 75 74 0 18 -29 20 -70 5z"/>
<path d="M1943 1714 c-9 -24 10 -49 38 -49 20 0 24 5 24 30 0 25 -4 30 -28 33
-18 2 -29 -2 -34 -14z"/>
<path d="M2695 1708 c-27 -76 -34 -232 -11 -263 20 -27 58 -8 81 42 27 55 26
163 -1 200 -23 31 -61 42 -69 21z m55 -33 c14 -17 15 -130 1 -166 -5 -14 -16
-31 -26 -39 -27 -23 -36 5 -32 102 4 103 25 142 57 103z"/>
<path d="M3492 1688 c-11 -13 -30 -44 -40 -69 -11 -26 -25 -50 -31 -53 -16
-10 -14 -26 3 -26 9 0 16 -17 21 -46 12 -82 74 -83 155 -2 22 22 40 50 40 61
0 16 -13 6 -58 -41 -63 -68 -95 -79 -113 -38 -7 14 -9 40 -5 59 6 30 16 40 71
73 70 40 80 62 43 88 -31 22 -61 20 -86 -6z m73 -28 c0 -8 -19 -25 -42 -38
-49 -27 -58 -14 -22 32 23 29 64 33 64 6z"/>
<path d="M5720 1703 c-21 -7 -210 -195 -210 -208 0 -13 -92 -105 -105 -105
-20 0 -265 -267 -265 -288 0 -6 -15 -15 -32 -20 -234 -65 -368 -106 -368 -113
0 -15 31 -9 205 40 94 27 172 47 174 45 2 -1 -7 -19 -19 -39 -12 -20 -20 -39
-17 -42 4 -3 31 9 61 26 31 17 63 31 71 31 8 0 97 83 198 185 100 102 187 185
192 185 5 0 47 37 92 82 70 70 84 80 97 68 9 -7 16 -18 16 -24 0 -17 -71 -82
-97 -90 -11 -4 -40 -27 -63 -52 -38 -42 -44 -64 -17 -64 14 0 207 191 207 205
0 5 -9 18 -20 30 -18 19 -19 26 -9 48 15 34 -2 80 -37 96 -27 12 -31 12 -54 4z"/>
<path d="M3123 1688 c-25 -12 -39 -43 -49 -113 l-7 -50 -8 40 c-4 22 -8 54 -9
70 0 32 -15 63 -25 54 -6 -7 31 -248 40 -257 13 -13 23 19 32 106 12 104 28
132 75 132 19 0 28 4 26 13 -6 16 -47 19 -75 5z"/>
<path d="M3335 1690 c-48 -11 -71 -27 -89 -64 -32 -68 -17 -102 42 -92 22 3
46 8 54 11 7 3 20 0 28 -5 12 -9 4 -20 -45 -65 -50 -46 -56 -55 -38 -55 34 0
113 80 113 114 0 35 -22 42 -78 27 -62 -16 -77 -3 -56 47 18 45 39 62 75 62
15 0 30 4 34 9 8 14 -7 19 -40 11z"/>
<path d="M3766 1690 c-61 -19 -104 -87 -86 -136 10 -25 13 -26 53 -20 72 12
81 12 85 -6 2 -11 -15 -30 -47 -54 -52 -39 -62 -54 -36 -54 19 0 95 68 105 95
4 11 3 28 -2 39 -8 15 -17 17 -51 12 -79 -13 -82 -13 -85 15 -4 37 40 87 81
91 18 2 31 7 30 13 -2 13 -13 15 -47 5z"/>
<path d="M2822 1585 c2 -60 10 -120 17 -132 16 -32 48 -29 81 7 l28 30 6 -35
c9 -49 30 -46 22 3 -3 20 -6 79 -6 130 0 75 -3 92 -15 92 -12 0 -15 -14 -15
-63 0 -75 -33 -152 -66 -152 -17 0 -20 12 -29 107 -13 143 -29 152 -23 13z"/>
<path d="M400 1575 c0 -25 -3 -45 -7 -45 -4 0 -21 14 -39 31 -20 19 -34 27
-39 20 -3 -6 7 -25 24 -42 17 -17 31 -32 31 -35 0 -2 -20 -4 -45 -4 -25 0 -45
-4 -45 -10 0 -5 20 -10 45 -10 25 0 45 -3 45 -7 0 -4 -14 -22 -32 -40 -41 -43
-28 -56 15 -15 18 18 36 32 40 32 4 0 7 -20 7 -45 0 -25 5 -45 10 -45 6 0 10
20 10 45 0 25 2 45 5 45 3 0 18 -15 34 -32 22 -24 33 -30 41 -22 8 8 2 19 -24
42 -20 17 -36 34 -36 37 0 3 23 5 50 5 28 0 50 5 50 10 0 6 -23 10 -52 10
l-52 0 38 39 c21 21 34 41 28 44 -5 4 -22 -7 -37 -23 -16 -17 -32 -30 -37 -30
-4 0 -8 20 -8 45 0 25 -4 45 -10 45 -5 0 -10 -20 -10 -45z"/>
<path d="M1493 1590 c-20 -12 -33 -28 -33 -40 0 -25 13 -25 68 0 23 10 42 16
42 11 0 -17 -113 -131 -135 -137 -13 -3 -34 0 -47 7 -21 11 -22 11 -9 -4 33
-41 106 -3 180 93 37 48 47 67 39 77 -16 19 -68 16 -105 -7z m97 5 c0 -9 -79
-45 -100 -45 -28 0 -25 12 8 32 24 16 92 25 92 13z"/>
<path d="M4040 1556 c-27 -33 18 -72 48 -42 13 13 14 20 6 34 -15 23 -38 26
-54 8z"/>
<path d="M1820 1491 c-84 -27 -160 -99 -191 -181 -27 -71 -23 -174 10 -238
l22 -43 -33 -27 c-79 -66 -81 -69 -75 -86 6 -16 24 -17 215 -14 190 3 211 5
257 26 93 43 175 149 175 228 0 16 5 35 10 40 7 7 7 27 0 62 -18 98 -61 155
-153 203 -51 27 -75 33 -137 35 -41 2 -86 0 -100 -5z m205 -231 c0 -12 -21
-16 -114 -18 -111 -3 -141 4 -126 27 4 8 45 11 123 9 96 -2 117 -6 117 -18z
m-41 -96 c9 -3 16 -12 16 -20 0 -11 -19 -14 -83 -14 -88 0 -104 5 -86 27 12
13 122 19 153 7z"/>
<path d="M4898 1358 c-137 -39 -248 -75 -248 -80 0 -4 6 -8 13 -8 31 0 491
138 495 148 5 16 17 19 -260 -60z"/>
<path d="M4817 1237 c-76 -23 -137 -46 -135 -52 4 -12 4 -12 161 32 83 23 127
40 127 49 0 18 9 19 -153 -29z"/>
<path d="M2690 1224 c-19 -8 -43 -23 -53 -32 -28 -25 -57 -87 -57 -119 1 -22
5 -15 20 27 20 60 63 106 107 116 16 3 37 9 48 14 18 8 18 9 -5 9 -14 0 -41
-7 -60 -15z"/>
<path d="M4565 1218 c2 -7 36 -125 75 -263 101 -356 111 -388 117 -382 7 7
-179 657 -189 657 -4 0 -5 -6 -3 -12z"/>
<path d="M5767 1224 c-9 -10 2 -24 19 -24 8 0 14 7 14 15 0 15 -21 21 -33 9z"/>
<path d="M910 1211 c-25 -4 -35 -11 -35 -25 0 -17 9 -19 95 -19 86 0 95 2 95
19 0 28 -72 40 -155 25z"/>
<path d="M1201 1186 c-17 -20 1 -29 63 -32 28 -2 62 -4 76 -6 17 -2 25 2 25
12 0 8 -11 20 -25 27 -34 17 -124 17 -139 -1z"/>
<path d="M396 1131 c-20 -31 -46 -131 -52 -194 -7 -88 13 -194 54 -281 30 -63
106 -166 123 -166 6 0 -11 26 -36 57 -89 109 -126 213 -126 355 0 66 6 106 25
160 23 68 27 94 12 69z"/>
<path d="M939 1117 c-62 -48 -34 -140 43 -140 37 0 78 41 78 79 0 54 -78 94
-121 61z"/>
<path d="M1221 1084 c-28 -35 -26 -69 4 -99 49 -50 115 -19 115 53 0 71 -77
100 -119 46z"/>
<path d="M3550 960 c0 -60 4 -100 10 -100 6 0 10 40 10 100 0 60 -4 100 -10
100 -6 0 -10 -40 -10 -100z"/>
<path d="M5026 920 c-132 -38 -244 -74 -250 -80 -18 -18 11 -12 198 40 284 80
317 90 311 101 -8 12 14 17 -259 -61z"/>
<path d="M2323 900 c-7 -19 -23 -35 -43 -43 l-31 -13 26 -12 c14 -6 34 -26 44
-43 l19 -31 14 28 c7 16 26 35 42 43 l28 13 -29 15 c-16 8 -36 27 -44 44 l-14
30 -12 -31z"/>
<path d="M5261 833 c-43 -15 -43 -15 -37 -55 11 -68 22 -81 64 -73 67 12 75
21 68 72 -6 48 -21 74 -40 72 -6 0 -31 -8 -55 -16z"/>
<path d="M2680 742 c0 -72 0 -73 23 -65 28 10 86 10 115 0 22 -8 22 -7 22 65
l0 73 -80 0 -80 1 0 -74z"/>
<path d="M1043 770 c-78 -9 -113 -30 -113 -69 0 -64 95 -131 186 -131 65 0
146 39 174 84 25 42 25 60 -1 85 -31 28 -145 43 -246 31z"/>
<path d="M3027 754 c-19 -19 24 -24 219 -24 184 0 214 2 214 15 0 13 -30 15
-213 15 -118 0 -217 -3 -220 -6z"/>
<path d="M1578 710 c-9 -17 -24 -30 -33 -30 -22 0 -18 -18 6 -25 11 -4 25 -19
31 -33 10 -26 10 -26 18 -6 5 12 19 29 32 38 l22 16 -22 16 c-13 9 -27 24 -30
35 -6 16 -9 15 -24 -11z"/>
<path d="M4890 694 c-71 -22 -74 -24 -64 -34 11 -11 144 26 144 40 0 13 -25
11 -80 -6z"/>
<path d="M3710 651 c0 -5 9 -12 20 -16 11 -3 36 -26 56 -50 39 -48 79 -64 114
-45 12 7 41 32 64 56 24 24 49 44 56 44 8 0 34 -22 59 -49 73 -79 106 -78 185
5 24 24 49 44 56 44 8 0 34 -22 59 -49 49 -52 101 -77 101 -47 0 9 -8 16 -17
16 -9 0 -38 23 -63 50 -39 42 -52 50 -83 50 -31 0 -42 -7 -78 -50 -30 -36 -49
-50 -67 -50 -18 0 -40 15 -72 50 -39 42 -52 50 -81 50 -30 0 -43 -8 -81 -50
-30 -33 -53 -50 -69 -50 -16 0 -40 17 -70 50 -28 30 -54 50 -67 50 -12 0 -22
-4 -22 -9z"/>
<path d="M3212 517 c-2 -84 2 -117 15 -144 23 -49 86 -93 132 -92 36 0 36 0
-12 13 -47 13 -89 43 -110 81 -7 11 -14 72 -18 135 l-5 115 -2 -108z"/>
<path d="M5710 496 c-6 -8 -10 -25 -8 -38 2 -19 9 -23 38 -23 29 0 36 4 38 23
4 28 -14 52 -38 52 -10 0 -23 -7 -30 -14z"/>
<path d="M3775 381 l-21 -26 22 -21 21 -20 21 23 21 23 -22 24 -22 23 -20 -26z"/>
<path d="M427 370 c-3 -11 -15 -24 -27 -28 l-22 -8 26 -17 c14 -10 26 -24 26
-32 0 -22 17 -18 23 6 3 11 15 23 26 26 27 7 27 19 0 26 -11 3 -23 15 -26 26
-7 27 -19 27 -26 1z"/>
</g>
</svg>
