<svg xmlns="http://www.w3.org/2000/svg" xmlns:xlink="http://www.w3.org/1999/xlink" width="1366" zoomAndPan="magnify" viewBox="0 0 1024.5 576" height="768" preserveAspectRatio="xMidYMid meet" version="1.0"><defs><g/></defs><path fill="#8c65c4" d="M 518.3125 218.828125 C 518.0625 218.828125 517.808594 218.820312 517.554688 218.800781 C 512.277344 218.386719 508.332031 213.769531 508.746094 208.492188 C 509.351562 200.703125 509.351562 192.820312 508.746094 185.058594 C 507.796875 172.992188 505.371094 161.015625 501.535156 149.453125 C 499.867188 144.429688 502.589844 139 507.613281 137.332031 C 512.636719 135.664062 518.0625 138.386719 519.734375 143.414062 C 524.058594 156.445312 526.792969 169.953125 527.863281 183.5625 C 528.550781 192.320312 528.550781 201.210938 527.863281 209.996094 C 527.46875 215.019531 523.269531 218.839844 518.3125 218.839844 Z M 518.3125 218.828125 " fill-opacity="1" fill-rule="nonzero"/><path fill="#ee9600" d="M 694.078125 341.492188 C 681.996094 438.03125 593.800781 485.570312 572.324219 490.625 C 556.105469 494.441406 545.21875 492.105469 545.21875 492.105469 C 542.378906 491.347656 541.175781 490.667969 535.765625 489.242188 C 524.332031 486.238281 517.886719 486.210938 515.984375 486.175781 C 502.070312 485.902344 500.269531 491.261719 484.355469 492.597656 C 484.355469 492.597656 473.082031 493.546875 457.667969 490.128906 C 433.796875 484.832031 353.066406 435.042969 339.480469 341.492188 C 337.898438 330.59375 324.84375 231.519531 384.523438 193.082031 C 415.117188 173.375 461.628906 171.671875 476.269531 177.816406 C 478.109375 178.585938 487.71875 182.390625 501.351562 185.523438 C 504.707031 186.296875 508.558594 186.890625 513.316406 187.179688 C 534.339844 188.445312 562.113281 180.3125 569.382812 178.417969 C 601.242188 170.125 633.617188 189.300781 642.496094 194.5625 C 690.285156 222.871094 699.863281 295.21875 694.074219 341.492188 Z M 694.078125 341.492188 " fill-opacity="1" fill-rule="nonzero"/><path fill="#fefcdc" d="M 461.871094 479.289062 C 476.183594 482.464844 486.648438 481.585938 486.648438 481.585938 C 501.421875 480.34375 503.097656 475.367188 516.011719 475.621094 C 516.121094 475.621094 516.246094 475.621094 516.390625 475.625 L 516.390625 383.269531 L 363.941406 383.269531 C 389.457031 443.097656 443.601562 475.238281 461.871094 479.292969 Z M 461.871094 479.289062 " fill-opacity="1" fill-rule="nonzero"/><path fill="#fefcdc" d="M 502.429688 196.5 C 489.773438 193.589844 480.855469 190.054688 479.144531 189.339844 C 465.554688 183.640625 422.371094 185.21875 393.96875 203.515625 C 365.347656 221.949219 354.746094 255.40625 351.386719 284.839844 L 516.390625 284.839844 L 516.390625 198.144531 C 515.425781 198.125 514.476562 198.089844 513.539062 198.035156 C 509.117188 197.769531 505.546875 197.214844 502.429688 196.5 Z M 502.429688 196.5 " fill-opacity="1" fill-rule="nonzero"/><path fill="#f7e96f" d="M 351.386719 284.839844 L 516.390625 284.839844 L 516.390625 383.269531 L 363.941406 383.269531 C 358.507812 370.53125 354.367188 356.546875 352.152344 341.296875 C 351.441406 336.40625 348.246094 312.386719 351.386719 284.847656 Z M 641.261719 98.152344 L 641.699219 94.886719 C 642.015625 92.5625 640.371094 90.398438 638.042969 90.082031 L 634.777344 89.640625 C 578.929688 82.066406 527.042969 121.5625 519.472656 177.417969 L 519.03125 180.683594 C 518.714844 183.007812 520.359375 185.167969 522.691406 185.484375 L 525.957031 185.925781 C 581.800781 193.503906 633.691406 154.003906 641.261719 98.152344 Z M 436.953125 131.867188 L 435.046875 132.460938 C 433.691406 132.882812 432.929688 134.339844 433.351562 135.699219 L 433.945312 137.601562 C 444.101562 170.175781 479.054688 188.519531 511.621094 178.367188 L 513.523438 177.773438 C 514.878906 177.347656 515.644531 175.890625 515.222656 174.535156 L 514.625 172.632812 C 504.472656 140.054688 469.519531 121.710938 436.953125 131.867188 Z M 436.953125 131.867188 " fill-opacity="1" fill-rule="nonzero"/><g fill="#43256f" fill-opacity="1"><g transform="translate(554.293668, 266.632148)"><g><path d="M 15.671875 -24.5625 L 18.921875 -24.5625 C 21.941406 -24.5625 24.203125 -25.160156 25.703125 -26.359375 C 27.210938 -27.554688 27.96875 -29.296875 27.96875 -31.578125 C 27.96875 -33.890625 27.335938 -35.59375 26.078125 -36.6875 C 24.816406 -37.789062 22.84375 -38.34375 20.15625 -38.34375 L 15.671875 -38.34375 Z M 37.890625 -31.921875 C 37.890625 -26.929688 36.328125 -23.113281 33.203125 -20.46875 C 30.085938 -17.820312 25.65625 -16.5 19.90625 -16.5 L 15.671875 -16.5 L 15.671875 0 L 5.84375 0 L 5.84375 -46.40625 L 20.65625 -46.40625 C 26.289062 -46.40625 30.570312 -45.191406 33.5 -42.765625 C 36.425781 -40.347656 37.890625 -36.734375 37.890625 -31.921875 Z M 37.890625 -31.921875 "/></g></g></g><g fill="#43256f" fill-opacity="1"><g transform="translate(553.238981, 357.382138)"><g><path d="M 15.671875 -25.796875 L 18.859375 -25.796875 C 21.960938 -25.796875 24.253906 -26.3125 25.734375 -27.34375 C 27.222656 -28.382812 27.96875 -30.019531 27.96875 -32.25 C 27.96875 -34.445312 27.207031 -36.007812 25.6875 -36.9375 C 24.175781 -37.875 21.832031 -38.34375 18.65625 -38.34375 L 15.671875 -38.34375 Z M 15.671875 -17.8125 L 15.671875 0 L 5.84375 0 L 5.84375 -46.40625 L 19.359375 -46.40625 C 25.660156 -46.40625 30.320312 -45.253906 33.34375 -42.953125 C 36.375 -40.660156 37.890625 -37.175781 37.890625 -32.5 C 37.890625 -29.769531 37.140625 -27.34375 35.640625 -25.21875 C 34.140625 -23.09375 32.015625 -21.425781 29.265625 -20.21875 C 36.242188 -9.789062 40.789062 -3.050781 42.90625 0 L 32 0 L 20.921875 -17.8125 Z M 15.671875 -17.8125 "/></g></g></g><g fill="#43256f" fill-opacity="1"><g transform="translate(548.832731, 448.132127)"><g><path d="M 47.953125 -23.265625 C 47.953125 -15.585938 46.046875 -9.679688 42.234375 -5.546875 C 38.429688 -1.421875 32.972656 0.640625 25.859375 0.640625 C 18.753906 0.640625 13.296875 -1.421875 9.484375 -5.546875 C 5.679688 -9.679688 3.78125 -15.609375 3.78125 -23.328125 C 3.78125 -31.046875 5.6875 -36.941406 9.5 -41.015625 C 13.320312 -45.085938 18.800781 -47.125 25.9375 -47.125 C 33.0625 -47.125 38.507812 -45.070312 42.28125 -40.96875 C 46.0625 -36.863281 47.953125 -30.960938 47.953125 -23.265625 Z M 14.09375 -23.265625 C 14.09375 -18.078125 15.078125 -14.171875 17.046875 -11.546875 C 19.015625 -8.929688 21.953125 -7.625 25.859375 -7.625 C 33.710938 -7.625 37.640625 -12.835938 37.640625 -23.265625 C 37.640625 -33.710938 33.738281 -38.9375 25.9375 -38.9375 C 22.019531 -38.9375 19.066406 -37.617188 17.078125 -34.984375 C 15.085938 -32.359375 14.09375 -28.453125 14.09375 -23.265625 Z M 14.09375 -23.265625 "/></g></g></g><g fill="#43256f" fill-opacity="1"><g transform="translate(375.362914, 261.082046)"><g><path d="M 5.3125 -8.3125 L 6.40625 -8.3125 C 7.425781 -8.3125 8.191406 -8.515625 8.703125 -8.921875 C 9.210938 -9.328125 9.46875 -9.914062 9.46875 -10.6875 C 9.46875 -11.46875 9.253906 -12.046875 8.828125 -12.421875 C 8.398438 -12.796875 7.734375 -12.984375 6.828125 -12.984375 L 5.3125 -12.984375 Z M 12.828125 -10.8125 C 12.828125 -9.113281 12.296875 -7.816406 11.234375 -6.921875 C 10.179688 -6.035156 8.679688 -5.59375 6.734375 -5.59375 L 5.3125 -5.59375 L 5.3125 0 L 1.984375 0 L 1.984375 -15.703125 L 7 -15.703125 C 8.894531 -15.703125 10.335938 -15.289062 11.328125 -14.46875 C 12.328125 -13.65625 12.828125 -12.4375 12.828125 -10.8125 Z M 12.828125 -10.8125 "/></g></g></g><g fill="#43256f" fill-opacity="1"><g transform="translate(389.174912, 261.082046)"><g><path d="M 8.421875 -12.234375 C 8.867188 -12.234375 9.238281 -12.203125 9.53125 -12.140625 L 9.28125 -9.0625 C 9.019531 -9.132812 8.695312 -9.171875 8.3125 -9.171875 C 7.269531 -9.171875 6.457031 -8.898438 5.875 -8.359375 C 5.289062 -7.828125 5 -7.078125 5 -6.109375 L 5 0 L 1.71875 0 L 1.71875 -12.015625 L 4.203125 -12.015625 L 4.6875 -9.984375 L 4.84375 -9.984375 C 5.21875 -10.660156 5.722656 -11.203125 6.359375 -11.609375 C 6.992188 -12.023438 7.679688 -12.234375 8.421875 -12.234375 Z M 8.421875 -12.234375 "/></g></g></g><g fill="#43256f" fill-opacity="1"><g transform="translate(399.163371, 261.082046)"><g><path d="M 4.328125 -6.03125 C 4.328125 -4.84375 4.519531 -3.941406 4.90625 -3.328125 C 5.300781 -2.722656 5.941406 -2.421875 6.828125 -2.421875 C 7.691406 -2.421875 8.316406 -2.722656 8.703125 -3.328125 C 9.085938 -3.929688 9.28125 -4.832031 9.28125 -6.03125 C 9.28125 -7.21875 9.085938 -8.109375 8.703125 -8.703125 C 8.316406 -9.296875 7.679688 -9.59375 6.796875 -9.59375 C 5.921875 -9.59375 5.289062 -9.296875 4.90625 -8.703125 C 4.519531 -8.117188 4.328125 -7.226562 4.328125 -6.03125 Z M 12.640625 -6.03125 C 12.640625 -4.070312 12.125 -2.539062 11.09375 -1.4375 C 10.0625 -0.332031 8.625 0.21875 6.78125 0.21875 C 5.625 0.21875 4.601562 -0.03125 3.71875 -0.53125 C 2.84375 -1.039062 2.164062 -1.769531 1.6875 -2.71875 C 1.21875 -3.664062 0.984375 -4.769531 0.984375 -6.03125 C 0.984375 -7.988281 1.492188 -9.507812 2.515625 -10.59375 C 3.546875 -11.6875 4.988281 -12.234375 6.84375 -12.234375 C 8 -12.234375 9.015625 -11.984375 9.890625 -11.484375 C 10.773438 -10.984375 11.453125 -10.265625 11.921875 -9.328125 C 12.398438 -8.390625 12.640625 -7.289062 12.640625 -6.03125 Z M 12.640625 -6.03125 "/></g></g></g><g fill="#43256f" fill-opacity="1"><g transform="translate(412.782045, 261.082046)"><g><path d="M 12.8125 0 L 9.53125 0 L 9.53125 -7.015625 C 9.53125 -7.878906 9.375 -8.523438 9.0625 -8.953125 C 8.757812 -9.390625 8.269531 -9.609375 7.59375 -9.609375 C 6.675781 -9.609375 6.015625 -9.300781 5.609375 -8.6875 C 5.203125 -8.082031 5 -7.070312 5 -5.65625 L 5 0 L 1.71875 0 L 1.71875 -12.015625 L 4.21875 -12.015625 L 4.65625 -10.46875 L 4.84375 -10.46875 C 5.207031 -11.050781 5.707031 -11.488281 6.34375 -11.78125 C 6.988281 -12.082031 7.722656 -12.234375 8.546875 -12.234375 C 9.941406 -12.234375 11 -11.851562 11.71875 -11.09375 C 12.445312 -10.34375 12.8125 -9.253906 12.8125 -7.828125 Z M 12.8125 0 "/></g></g></g><g fill="#43256f" fill-opacity="1"><g transform="translate(427.238461, 261.082046)"><g><path d="M 10.234375 0 L 9.78125 -1.53125 L 9.609375 -1.53125 C 9.265625 -0.976562 8.769531 -0.546875 8.125 -0.234375 C 7.476562 0.0664062 6.742188 0.21875 5.921875 0.21875 C 4.503906 0.21875 3.4375 -0.15625 2.71875 -0.90625 C 2.007812 -1.664062 1.65625 -2.753906 1.65625 -4.171875 L 1.65625 -12.015625 L 4.9375 -12.015625 L 4.9375 -5 C 4.9375 -4.132812 5.085938 -3.484375 5.390625 -3.046875 C 5.703125 -2.609375 6.191406 -2.390625 6.859375 -2.390625 C 7.773438 -2.390625 8.4375 -2.695312 8.84375 -3.3125 C 9.257812 -3.925781 9.46875 -4.941406 9.46875 -6.359375 L 9.46875 -12.015625 L 12.734375 -12.015625 L 12.734375 0 Z M 5.34375 -13.328125 L 5.34375 -13.625 C 6.582031 -15.050781 7.425781 -16.128906 7.875 -16.859375 L 11.546875 -16.859375 L 11.546875 -16.625 C 11.171875 -16.257812 10.535156 -15.707031 9.640625 -14.96875 C 8.742188 -14.238281 8.039062 -13.691406 7.53125 -13.328125 Z M 5.34375 -13.328125 "/></g></g></g><g fill="#43256f" fill-opacity="1"><g transform="translate(441.694876, 261.082046)"><g><path d="M 12.8125 0 L 9.53125 0 L 9.53125 -7.015625 C 9.53125 -7.878906 9.375 -8.523438 9.0625 -8.953125 C 8.757812 -9.390625 8.269531 -9.609375 7.59375 -9.609375 C 6.675781 -9.609375 6.015625 -9.300781 5.609375 -8.6875 C 5.203125 -8.082031 5 -7.070312 5 -5.65625 L 5 0 L 1.71875 0 L 1.71875 -12.015625 L 4.21875 -12.015625 L 4.65625 -10.46875 L 4.84375 -10.46875 C 5.207031 -11.050781 5.707031 -11.488281 6.34375 -11.78125 C 6.988281 -12.082031 7.722656 -12.234375 8.546875 -12.234375 C 9.941406 -12.234375 11 -11.851562 11.71875 -11.09375 C 12.445312 -10.34375 12.8125 -9.253906 12.8125 -7.828125 Z M 12.8125 0 "/></g></g></g><g fill="#43256f" fill-opacity="1"><g transform="translate(456.151292, 261.082046)"><g><path d="M 6.59375 0.21875 C 2.851562 0.21875 0.984375 -1.832031 0.984375 -5.9375 C 0.984375 -7.976562 1.492188 -9.535156 2.515625 -10.609375 C 3.535156 -11.691406 4.992188 -12.234375 6.890625 -12.234375 C 8.273438 -12.234375 9.519531 -11.960938 10.625 -11.421875 L 9.65625 -8.890625 C 9.144531 -9.097656 8.664062 -9.265625 8.21875 -9.390625 C 7.769531 -9.523438 7.328125 -9.59375 6.890625 -9.59375 C 5.179688 -9.59375 4.328125 -8.382812 4.328125 -5.96875 C 4.328125 -3.613281 5.179688 -2.4375 6.890625 -2.4375 C 7.515625 -2.4375 8.09375 -2.519531 8.625 -2.6875 C 9.164062 -2.851562 9.707031 -3.117188 10.25 -3.484375 L 10.25 -0.671875 C 9.71875 -0.335938 9.179688 -0.109375 8.640625 0.015625 C 8.097656 0.148438 7.414062 0.21875 6.59375 0.21875 Z M 6.59375 0.21875 "/></g></g></g><g fill="#43256f" fill-opacity="1"><g transform="translate(467.460811, 261.082046)"><g><path d="M 1.578125 -15.109375 C 1.578125 -16.179688 2.171875 -16.71875 3.359375 -16.71875 C 4.546875 -16.71875 5.140625 -16.179688 5.140625 -15.109375 C 5.140625 -14.609375 4.988281 -14.210938 4.6875 -13.921875 C 4.394531 -13.640625 3.953125 -13.5 3.359375 -13.5 C 2.171875 -13.5 1.578125 -14.035156 1.578125 -15.109375 Z M 5 0 L 1.71875 0 L 1.71875 -12.015625 L 5 -12.015625 Z M 5 0 "/></g></g></g><g fill="#43256f" fill-opacity="1"><g transform="translate(474.173491, 261.082046)"><g><path d="M 9.34375 0 L 8.71875 -1.640625 L 8.625 -1.640625 C 8.070312 -0.941406 7.503906 -0.457031 6.921875 -0.1875 C 6.335938 0.0820312 5.578125 0.21875 4.640625 0.21875 C 3.484375 0.21875 2.570312 -0.109375 1.90625 -0.765625 C 1.25 -1.429688 0.921875 -2.375 0.921875 -3.59375 C 0.921875 -4.863281 1.363281 -5.800781 2.25 -6.40625 C 3.144531 -7.007812 4.492188 -7.34375 6.296875 -7.40625 L 8.375 -7.484375 L 8.375 -8 C 8.375 -9.21875 7.753906 -9.828125 6.515625 -9.828125 C 5.554688 -9.828125 4.425781 -9.535156 3.125 -8.953125 L 2.046875 -11.171875 C 3.421875 -11.890625 4.953125 -12.25 6.640625 -12.25 C 8.253906 -12.25 9.488281 -11.898438 10.34375 -11.203125 C 11.207031 -10.503906 11.640625 -9.4375 11.640625 -8 L 11.640625 0 Z M 8.375 -5.5625 L 7.109375 -5.515625 C 6.160156 -5.492188 5.453125 -5.320312 4.984375 -5 C 4.515625 -4.6875 4.28125 -4.207031 4.28125 -3.5625 C 4.28125 -2.644531 4.8125 -2.1875 5.875 -2.1875 C 6.632812 -2.1875 7.238281 -2.398438 7.6875 -2.828125 C 8.144531 -3.265625 8.375 -3.847656 8.375 -4.578125 Z M 8.375 -5.5625 "/></g></g></g><g fill="#43256f" fill-opacity="1"><g transform="translate(389.618467, 340.882135)"><g><path d="M 5.3125 -8.734375 L 6.375 -8.734375 C 7.425781 -8.734375 8.203125 -8.90625 8.703125 -9.25 C 9.210938 -9.601562 9.46875 -10.160156 9.46875 -10.921875 C 9.46875 -11.660156 9.207031 -12.1875 8.6875 -12.5 C 8.175781 -12.820312 7.382812 -12.984375 6.3125 -12.984375 L 5.3125 -12.984375 Z M 5.3125 -6.03125 L 5.3125 0 L 1.984375 0 L 1.984375 -15.703125 L 6.546875 -15.703125 C 8.679688 -15.703125 10.257812 -15.3125 11.28125 -14.53125 C 12.3125 -13.757812 12.828125 -12.582031 12.828125 -11 C 12.828125 -10.070312 12.570312 -9.25 12.0625 -8.53125 C 11.550781 -7.8125 10.832031 -7.25 9.90625 -6.84375 C 12.269531 -3.3125 13.8125 -1.03125 14.53125 0 L 10.828125 0 L 7.078125 -6.03125 Z M 5.3125 -6.03125 "/></g></g></g><g fill="#43256f" fill-opacity="1"><g transform="translate(404.139324, 340.882135)"><g><path d="M 6.6875 -9.90625 C 6 -9.90625 5.457031 -9.679688 5.0625 -9.234375 C 4.664062 -8.796875 4.441406 -8.175781 4.390625 -7.375 L 8.984375 -7.375 C 8.960938 -8.175781 8.75 -8.796875 8.34375 -9.234375 C 7.9375 -9.679688 7.382812 -9.90625 6.6875 -9.90625 Z M 7.15625 0.21875 C 5.21875 0.21875 3.703125 -0.3125 2.609375 -1.375 C 1.523438 -2.445312 0.984375 -3.960938 0.984375 -5.921875 C 0.984375 -7.929688 1.484375 -9.484375 2.484375 -10.578125 C 3.492188 -11.679688 4.890625 -12.234375 6.671875 -12.234375 C 8.367188 -12.234375 9.6875 -11.75 10.625 -10.78125 C 11.570312 -9.8125 12.046875 -8.476562 12.046875 -6.78125 L 12.046875 -5.1875 L 4.3125 -5.1875 C 4.34375 -4.257812 4.613281 -3.53125 5.125 -3 C 5.644531 -2.476562 6.375 -2.21875 7.3125 -2.21875 C 8.03125 -2.21875 8.710938 -2.289062 9.359375 -2.4375 C 10.003906 -2.59375 10.675781 -2.835938 11.375 -3.171875 L 11.375 -0.640625 C 10.800781 -0.347656 10.1875 -0.132812 9.53125 0 C 8.882812 0.144531 8.09375 0.21875 7.15625 0.21875 Z M 7.15625 0.21875 "/></g></g></g><g fill="#43256f" fill-opacity="1"><g transform="translate(417.135061, 340.882135)"><g><path d="M 8.3125 0.21875 C 6.90625 0.21875 5.800781 -0.296875 5 -1.328125 L 4.828125 -1.328125 C 4.941406 -0.316406 5 0.265625 5 0.421875 L 5 5.28125 L 1.71875 5.28125 L 1.71875 -12.015625 L 4.390625 -12.015625 L 4.84375 -10.453125 L 5 -10.453125 C 5.757812 -11.640625 6.894531 -12.234375 8.40625 -12.234375 C 9.820312 -12.234375 10.929688 -11.6875 11.734375 -10.59375 C 12.535156 -9.5 12.9375 -7.976562 12.9375 -6.03125 C 12.9375 -4.75 12.75 -3.632812 12.375 -2.6875 C 12 -1.738281 11.460938 -1.015625 10.765625 -0.515625 C 10.066406 -0.0234375 9.25 0.21875 8.3125 0.21875 Z M 7.34375 -9.609375 C 6.539062 -9.609375 5.953125 -9.359375 5.578125 -8.859375 C 5.203125 -8.367188 5.007812 -7.550781 5 -6.40625 L 5 -6.046875 C 5 -4.753906 5.1875 -3.828125 5.5625 -3.265625 C 5.945312 -2.710938 6.554688 -2.4375 7.390625 -2.4375 C 8.859375 -2.4375 9.59375 -3.644531 9.59375 -6.0625 C 9.59375 -7.25 9.410156 -8.132812 9.046875 -8.71875 C 8.691406 -9.3125 8.125 -9.609375 7.34375 -9.609375 Z M 7.34375 -9.609375 "/></g></g></g><g fill="#43256f" fill-opacity="1"><g transform="translate(431.054463, 340.882135)"><g><path d="M 6.6875 -9.90625 C 6 -9.90625 5.457031 -9.679688 5.0625 -9.234375 C 4.664062 -8.796875 4.441406 -8.175781 4.390625 -7.375 L 8.984375 -7.375 C 8.960938 -8.175781 8.75 -8.796875 8.34375 -9.234375 C 7.9375 -9.679688 7.382812 -9.90625 6.6875 -9.90625 Z M 7.15625 0.21875 C 5.21875 0.21875 3.703125 -0.3125 2.609375 -1.375 C 1.523438 -2.445312 0.984375 -3.960938 0.984375 -5.921875 C 0.984375 -7.929688 1.484375 -9.484375 2.484375 -10.578125 C 3.492188 -11.679688 4.890625 -12.234375 6.671875 -12.234375 C 8.367188 -12.234375 9.6875 -11.75 10.625 -10.78125 C 11.570312 -9.8125 12.046875 -8.476562 12.046875 -6.78125 L 12.046875 -5.1875 L 4.3125 -5.1875 C 4.34375 -4.257812 4.613281 -3.53125 5.125 -3 C 5.644531 -2.476562 6.375 -2.21875 7.3125 -2.21875 C 8.03125 -2.21875 8.710938 -2.289062 9.359375 -2.4375 C 10.003906 -2.59375 10.675781 -2.835938 11.375 -3.171875 L 11.375 -0.640625 C 10.800781 -0.347656 10.1875 -0.132812 9.53125 0 C 8.882812 0.144531 8.09375 0.21875 7.15625 0.21875 Z M 7.15625 0.21875 "/></g></g></g><g fill="#43256f" fill-opacity="1"><g transform="translate(444.0502, 340.882135)"><g><path d="M 6.78125 -2.390625 C 7.351562 -2.390625 8.039062 -2.515625 8.84375 -2.765625 L 8.84375 -0.328125 C 8.019531 0.0351562 7.015625 0.21875 5.828125 0.21875 C 4.523438 0.21875 3.570312 -0.109375 2.96875 -0.765625 C 2.375 -1.429688 2.078125 -2.429688 2.078125 -3.765625 L 2.078125 -9.546875 L 0.5 -9.546875 L 0.5 -10.9375 L 2.3125 -12.03125 L 3.25 -14.5625 L 5.34375 -14.5625 L 5.34375 -12.015625 L 8.71875 -12.015625 L 8.71875 -9.546875 L 5.34375 -9.546875 L 5.34375 -3.765625 C 5.34375 -3.296875 5.472656 -2.945312 5.734375 -2.71875 C 6.003906 -2.5 6.351562 -2.390625 6.78125 -2.390625 Z M 6.78125 -2.390625 "/></g></g></g><g fill="#43256f" fill-opacity="1"><g transform="translate(453.598314, 340.882135)"><g><path d="M 1.578125 -15.109375 C 1.578125 -16.179688 2.171875 -16.71875 3.359375 -16.71875 C 4.546875 -16.71875 5.140625 -16.179688 5.140625 -15.109375 C 5.140625 -14.609375 4.988281 -14.210938 4.6875 -13.921875 C 4.394531 -13.640625 3.953125 -13.5 3.359375 -13.5 C 2.171875 -13.5 1.578125 -14.035156 1.578125 -15.109375 Z M 5 0 L 1.71875 0 L 1.71875 -12.015625 L 5 -12.015625 Z M 5 0 "/></g></g></g><g fill="#43256f" fill-opacity="1"><g transform="translate(460.310994, 340.882135)"><g><path d="M 6.59375 0.21875 C 2.851562 0.21875 0.984375 -1.832031 0.984375 -5.9375 C 0.984375 -7.976562 1.492188 -9.535156 2.515625 -10.609375 C 3.535156 -11.691406 4.992188 -12.234375 6.890625 -12.234375 C 8.273438 -12.234375 9.519531 -11.960938 10.625 -11.421875 L 9.65625 -8.890625 C 9.144531 -9.097656 8.664062 -9.265625 8.21875 -9.390625 C 7.769531 -9.523438 7.328125 -9.59375 6.890625 -9.59375 C 5.179688 -9.59375 4.328125 -8.382812 4.328125 -5.96875 C 4.328125 -3.613281 5.179688 -2.4375 6.890625 -2.4375 C 7.515625 -2.4375 8.09375 -2.519531 8.625 -2.6875 C 9.164062 -2.851562 9.707031 -3.117188 10.25 -3.484375 L 10.25 -0.671875 C 9.71875 -0.335938 9.179688 -0.109375 8.640625 0.015625 C 8.097656 0.148438 7.414062 0.21875 6.59375 0.21875 Z M 8.640625 2.6875 C 8.640625 3.601562 8.367188 4.265625 7.828125 4.671875 C 7.296875 5.078125 6.460938 5.28125 5.328125 5.28125 C 4.765625 5.28125 4.242188 5.207031 3.765625 5.0625 L 3.765625 3.25 C 3.953125 3.300781 4.207031 3.351562 4.53125 3.40625 C 4.863281 3.457031 5.117188 3.484375 5.296875 3.484375 C 5.804688 3.484375 6.0625 3.257812 6.0625 2.8125 C 6.0625 2.21875 5.46875 1.832031 4.28125 1.65625 L 5.125 0 L 7.203125 0 L 6.90625 0.65625 C 7.4375 0.820312 7.859375 1.085938 8.171875 1.453125 C 8.484375 1.816406 8.640625 2.226562 8.640625 2.6875 Z M 8.640625 2.6875 "/></g></g></g><g fill="#43256f" fill-opacity="1"><g transform="translate(471.620513, 340.882135)"><g><path d="M 9.34375 0 L 8.71875 -1.640625 L 8.625 -1.640625 C 8.070312 -0.941406 7.503906 -0.457031 6.921875 -0.1875 C 6.335938 0.0820312 5.578125 0.21875 4.640625 0.21875 C 3.484375 0.21875 2.570312 -0.109375 1.90625 -0.765625 C 1.25 -1.429688 0.921875 -2.375 0.921875 -3.59375 C 0.921875 -4.863281 1.363281 -5.800781 2.25 -6.40625 C 3.144531 -7.007812 4.492188 -7.34375 6.296875 -7.40625 L 8.375 -7.484375 L 8.375 -8 C 8.375 -9.21875 7.753906 -9.828125 6.515625 -9.828125 C 5.554688 -9.828125 4.425781 -9.535156 3.125 -8.953125 L 2.046875 -11.171875 C 3.421875 -11.890625 4.953125 -12.25 6.640625 -12.25 C 8.253906 -12.25 9.488281 -11.898438 10.34375 -11.203125 C 11.207031 -10.503906 11.640625 -9.4375 11.640625 -8 L 11.640625 0 Z M 8.375 -5.5625 L 7.109375 -5.515625 C 6.160156 -5.492188 5.453125 -5.320312 4.984375 -5 C 4.515625 -4.6875 4.28125 -4.207031 4.28125 -3.5625 C 4.28125 -2.644531 4.8125 -2.1875 5.875 -2.1875 C 6.632812 -2.1875 7.238281 -2.398438 7.6875 -2.828125 C 8.144531 -3.265625 8.375 -3.847656 8.375 -4.578125 Z M 5.015625 -14.453125 C 4.796875 -14.453125 4.582031 -14.359375 4.375 -14.171875 C 4.175781 -13.984375 4.03125 -13.695312 3.9375 -13.3125 L 2.328125 -13.3125 C 2.410156 -14.351562 2.707031 -15.164062 3.21875 -15.75 C 3.726562 -16.332031 4.40625 -16.625 5.25 -16.625 C 5.550781 -16.625 5.84375 -16.566406 6.125 -16.453125 C 6.40625 -16.335938 6.679688 -16.207031 6.953125 -16.0625 C 7.234375 -15.925781 7.503906 -15.800781 7.765625 -15.6875 C 8.035156 -15.570312 8.296875 -15.515625 8.546875 -15.515625 C 8.773438 -15.515625 8.988281 -15.609375 9.1875 -15.796875 C 9.394531 -15.984375 9.546875 -16.269531 9.640625 -16.65625 L 11.234375 -16.65625 C 11.160156 -15.613281 10.863281 -14.796875 10.34375 -14.203125 C 9.820312 -13.617188 9.144531 -13.328125 8.3125 -13.328125 C 8.019531 -13.328125 7.734375 -13.382812 7.453125 -13.5 C 7.171875 -13.625 6.890625 -13.753906 6.609375 -13.890625 C 6.335938 -14.035156 6.066406 -14.164062 5.796875 -14.28125 C 5.535156 -14.394531 5.273438 -14.453125 5.015625 -14.453125 Z M 5.015625 -14.453125 "/></g></g></g><g fill="#43256f" fill-opacity="1"><g transform="translate(484.906244, 340.882135)"><g><path d="M 4.328125 -6.03125 C 4.328125 -4.84375 4.519531 -3.941406 4.90625 -3.328125 C 5.300781 -2.722656 5.941406 -2.421875 6.828125 -2.421875 C 7.691406 -2.421875 8.316406 -2.722656 8.703125 -3.328125 C 9.085938 -3.929688 9.28125 -4.832031 9.28125 -6.03125 C 9.28125 -7.21875 9.085938 -8.109375 8.703125 -8.703125 C 8.316406 -9.296875 7.679688 -9.59375 6.796875 -9.59375 C 5.921875 -9.59375 5.289062 -9.296875 4.90625 -8.703125 C 4.519531 -8.117188 4.328125 -7.226562 4.328125 -6.03125 Z M 12.640625 -6.03125 C 12.640625 -4.070312 12.125 -2.539062 11.09375 -1.4375 C 10.0625 -0.332031 8.625 0.21875 6.78125 0.21875 C 5.625 0.21875 4.601562 -0.03125 3.71875 -0.53125 C 2.84375 -1.039062 2.164062 -1.769531 1.6875 -2.71875 C 1.21875 -3.664062 0.984375 -4.769531 0.984375 -6.03125 C 0.984375 -7.988281 1.492188 -9.507812 2.515625 -10.59375 C 3.546875 -11.6875 4.988281 -12.234375 6.84375 -12.234375 C 8 -12.234375 9.015625 -11.984375 9.890625 -11.484375 C 10.773438 -10.984375 11.453125 -10.265625 11.921875 -9.328125 C 12.398438 -8.390625 12.640625 -7.289062 12.640625 -6.03125 Z M 12.640625 -6.03125 "/></g></g></g><g fill="#43256f" fill-opacity="1"><g transform="translate(409.493501, 422.732137)"><g><path d="M 16.234375 -7.875 C 16.234375 -5.269531 15.585938 -3.269531 14.296875 -1.875 C 13.003906 -0.476562 11.15625 0.21875 8.75 0.21875 C 6.34375 0.21875 4.492188 -0.476562 3.203125 -1.875 C 1.921875 -3.269531 1.28125 -5.273438 1.28125 -7.890625 C 1.28125 -10.503906 1.925781 -12.5 3.21875 -13.875 C 4.507812 -15.257812 6.363281 -15.953125 8.78125 -15.953125 C 11.1875 -15.953125 13.03125 -15.253906 14.3125 -13.859375 C 15.59375 -12.472656 16.234375 -10.476562 16.234375 -7.875 Z M 4.765625 -7.875 C 4.765625 -6.125 5.097656 -4.800781 5.765625 -3.90625 C 6.429688 -3.019531 7.425781 -2.578125 8.75 -2.578125 C 11.40625 -2.578125 12.734375 -4.34375 12.734375 -7.875 C 12.734375 -11.414062 11.414062 -13.1875 8.78125 -13.1875 C 7.457031 -13.1875 6.457031 -12.738281 5.78125 -11.84375 C 5.101562 -10.945312 4.765625 -9.625 4.765625 -7.875 Z M 4.765625 -7.875 "/></g></g></g><g fill="#43256f" fill-opacity="1"><g transform="translate(427.000155, 422.732137)"><g><path d="M 8.40625 -12.234375 C 9.820312 -12.234375 10.929688 -11.679688 11.734375 -10.578125 C 12.535156 -9.472656 12.9375 -7.957031 12.9375 -6.03125 C 12.9375 -4.039062 12.519531 -2.5 11.6875 -1.40625 C 10.863281 -0.320312 9.738281 0.21875 8.3125 0.21875 C 6.90625 0.21875 5.800781 -0.296875 5 -1.328125 L 4.765625 -1.328125 L 4.21875 0 L 1.71875 0 L 1.71875 -16.71875 L 5 -16.71875 L 5 -12.828125 C 5 -12.328125 4.953125 -11.535156 4.859375 -10.453125 L 5 -10.453125 C 5.757812 -11.640625 6.894531 -12.234375 8.40625 -12.234375 Z M 7.34375 -9.609375 C 6.539062 -9.609375 5.953125 -9.359375 5.578125 -8.859375 C 5.203125 -8.367188 5.007812 -7.550781 5 -6.40625 L 5 -6.046875 C 5 -4.753906 5.1875 -3.828125 5.5625 -3.265625 C 5.945312 -2.710938 6.554688 -2.4375 7.390625 -2.4375 C 8.066406 -2.4375 8.601562 -2.742188 9 -3.359375 C 9.394531 -3.984375 9.59375 -4.882812 9.59375 -6.0625 C 9.59375 -7.25 9.390625 -8.132812 8.984375 -8.71875 C 8.585938 -9.3125 8.039062 -9.609375 7.34375 -9.609375 Z M 7.34375 -9.609375 "/></g></g></g><g fill="#43256f" fill-opacity="1"><g transform="translate(440.919557, 422.732137)"><g><path d="M 0.75 5.28125 C -0.0820312 5.28125 -0.800781 5.191406 -1.40625 5.015625 L -1.40625 2.4375 C -0.90625 2.570312 -0.394531 2.640625 0.125 2.640625 C 0.675781 2.640625 1.078125 2.484375 1.328125 2.171875 C 1.585938 1.867188 1.71875 1.414062 1.71875 0.8125 L 1.71875 -12.015625 L 5 -12.015625 L 5 1.296875 C 5 2.578125 4.628906 3.5625 3.890625 4.25 C 3.148438 4.9375 2.101562 5.28125 0.75 5.28125 Z M 1.578125 -15.109375 C 1.578125 -16.179688 2.171875 -16.71875 3.359375 -16.71875 C 4.546875 -16.71875 5.140625 -16.179688 5.140625 -15.109375 C 5.140625 -14.609375 4.988281 -14.210938 4.6875 -13.921875 C 4.394531 -13.640625 3.953125 -13.5 3.359375 -13.5 C 2.171875 -13.5 1.578125 -14.035156 1.578125 -15.109375 Z M 1.578125 -15.109375 "/></g></g></g><g fill="#43256f" fill-opacity="1"><g transform="translate(447.632237, 422.732137)"><g><path d="M 6.6875 -9.90625 C 6 -9.90625 5.457031 -9.679688 5.0625 -9.234375 C 4.664062 -8.796875 4.441406 -8.175781 4.390625 -7.375 L 8.984375 -7.375 C 8.960938 -8.175781 8.75 -8.796875 8.34375 -9.234375 C 7.9375 -9.679688 7.382812 -9.90625 6.6875 -9.90625 Z M 7.15625 0.21875 C 5.21875 0.21875 3.703125 -0.3125 2.609375 -1.375 C 1.523438 -2.445312 0.984375 -3.960938 0.984375 -5.921875 C 0.984375 -7.929688 1.484375 -9.484375 2.484375 -10.578125 C 3.492188 -11.679688 4.890625 -12.234375 6.671875 -12.234375 C 8.367188 -12.234375 9.6875 -11.75 10.625 -10.78125 C 11.570312 -9.8125 12.046875 -8.476562 12.046875 -6.78125 L 12.046875 -5.1875 L 4.3125 -5.1875 C 4.34375 -4.257812 4.613281 -3.53125 5.125 -3 C 5.644531 -2.476562 6.375 -2.21875 7.3125 -2.21875 C 8.03125 -2.21875 8.710938 -2.289062 9.359375 -2.4375 C 10.003906 -2.59375 10.675781 -2.835938 11.375 -3.171875 L 11.375 -0.640625 C 10.800781 -0.347656 10.1875 -0.132812 9.53125 0 C 8.882812 0.144531 8.09375 0.21875 7.15625 0.21875 Z M 7.15625 0.21875 "/></g></g></g><g fill="#43256f" fill-opacity="1"><g transform="translate(460.627974, 422.732137)"><g><path d="M 6.78125 -2.390625 C 7.351562 -2.390625 8.039062 -2.515625 8.84375 -2.765625 L 8.84375 -0.328125 C 8.019531 0.0351562 7.015625 0.21875 5.828125 0.21875 C 4.523438 0.21875 3.570312 -0.109375 2.96875 -0.765625 C 2.375 -1.429688 2.078125 -2.429688 2.078125 -3.765625 L 2.078125 -9.546875 L 0.5 -9.546875 L 0.5 -10.9375 L 2.3125 -12.03125 L 3.25 -14.5625 L 5.34375 -14.5625 L 5.34375 -12.015625 L 8.71875 -12.015625 L 8.71875 -9.546875 L 5.34375 -9.546875 L 5.34375 -3.765625 C 5.34375 -3.296875 5.472656 -2.945312 5.734375 -2.71875 C 6.003906 -2.5 6.351562 -2.390625 6.78125 -2.390625 Z M 6.78125 -2.390625 "/></g></g></g><g fill="#43256f" fill-opacity="1"><g transform="translate(470.176088, 422.732137)"><g><path d="M 1.578125 -15.109375 C 1.578125 -16.179688 2.171875 -16.71875 3.359375 -16.71875 C 4.546875 -16.71875 5.140625 -16.179688 5.140625 -15.109375 C 5.140625 -14.609375 4.988281 -14.210938 4.6875 -13.921875 C 4.394531 -13.640625 3.953125 -13.5 3.359375 -13.5 C 2.171875 -13.5 1.578125 -14.035156 1.578125 -15.109375 Z M 5 0 L 1.71875 0 L 1.71875 -12.015625 L 5 -12.015625 Z M 5 0 "/></g></g></g><g fill="#43256f" fill-opacity="1"><g transform="translate(476.888768, 422.732137)"><g><path d="M 4.578125 0 L 0 -12.015625 L 3.421875 -12.015625 L 5.75 -5.171875 C 6.007812 -4.304688 6.171875 -3.484375 6.234375 -2.703125 L 6.296875 -2.703125 C 6.328125 -3.390625 6.488281 -4.210938 6.78125 -5.171875 L 9.09375 -12.015625 L 12.515625 -12.015625 L 7.9375 0 Z M 4.578125 0 "/></g></g></g><g fill="#43256f" fill-opacity="1"><g transform="translate(489.401198, 422.732137)"><g><path d="M 4.328125 -6.03125 C 4.328125 -4.84375 4.519531 -3.941406 4.90625 -3.328125 C 5.300781 -2.722656 5.941406 -2.421875 6.828125 -2.421875 C 7.691406 -2.421875 8.316406 -2.722656 8.703125 -3.328125 C 9.085938 -3.929688 9.28125 -4.832031 9.28125 -6.03125 C 9.28125 -7.21875 9.085938 -8.109375 8.703125 -8.703125 C 8.316406 -9.296875 7.679688 -9.59375 6.796875 -9.59375 C 5.921875 -9.59375 5.289062 -9.296875 4.90625 -8.703125 C 4.519531 -8.117188 4.328125 -7.226562 4.328125 -6.03125 Z M 12.640625 -6.03125 C 12.640625 -4.070312 12.125 -2.539062 11.09375 -1.4375 C 10.0625 -0.332031 8.625 0.21875 6.78125 0.21875 C 5.625 0.21875 4.601562 -0.03125 3.71875 -0.53125 C 2.84375 -1.039062 2.164062 -1.769531 1.6875 -2.71875 C 1.21875 -3.664062 0.984375 -4.769531 0.984375 -6.03125 C 0.984375 -7.988281 1.492188 -9.507812 2.515625 -10.59375 C 3.546875 -11.6875 4.988281 -12.234375 6.84375 -12.234375 C 8 -12.234375 9.015625 -11.984375 9.890625 -11.484375 C 10.773438 -10.984375 11.453125 -10.265625 11.921875 -9.328125 C 12.398438 -8.390625 12.640625 -7.289062 12.640625 -6.03125 Z M 12.640625 -6.03125 "/></g></g></g></svg>