<?xml version="1.0" standalone="no"?>
<!DOCTYPE svg PUBLIC "-//W3C//DTD SVG 20010904//EN"
 "http://www.w3.org/TR/2001/REC-SVG-20010904/DTD/svg10.dtd">
<svg version="1.0" xmlns="http://www.w3.org/2000/svg"
 width="3000.000000pt" height="2000.000000pt" viewBox="0 0 3000.000000 2000.000000"
 preserveAspectRatio="xMidYMid meet">

<g transform="translate(0.000000,2000.000000) scale(0.100000,-0.100000)"
fill="#000000" stroke="none">
<path d="M23214 18925 c-11 -27 13 -67 38 -63 29 4 46 33 32 56 -15 23 -62 28
-70 7z"/>
<path d="M23882 18850 c-90 -65 -120 -151 -131 -375 -4 -85 -10 -157 -13 -160
-2 -3 -17 41 -33 98 -36 129 -99 323 -116 360 -15 34 -52 34 -57 1 -3 -20 158
-676 179 -731 10 -26 35 -29 65 -9 19 14 21 28 27 173 11 287 51 489 107 545
35 35 42 35 80 1 28 -26 36 -50 102 -318 39 -159 74 -294 78 -298 11 -12 47 0
53 18 6 15 -39 250 -73 384 -54 214 -132 341 -208 341 -10 0 -38 -13 -60 -30z"/>
<path d="M24563 18859 c-103 -51 -229 -246 -273 -423 -24 -95 -25 -116 -5
-164 55 -129 150 -104 250 66 24 41 67 135 97 210 l53 136 6 -105 c3 -57 12
-197 19 -311 21 -319 -5 -476 -96 -577 -59 -65 -97 -88 -175 -103 -42 -9 -64
-18 -64 -27 0 -16 74 -41 120 -41 144 1 280 224 315 515 11 90 -1 291 -42 694
-11 111 -12 114 -42 132 -41 25 -110 24 -163 -2z m87 -79 c0 -24 -114 -285
-163 -372 -62 -111 -115 -146 -139 -93 -27 60 69 313 154 408 65 71 148 104
148 57z"/>
<path d="M12361 18782 c-19 -9 -44 -30 -55 -45 l-21 -28 -3 -2545 -2 -2544
125 0 125 0 0 725 0 725 23 14 c12 8 243 134 512 281 523 285 665 364 665 370
0 2 -269 4 -597 4 l-598 1 0 112 0 113 1338 3 1337 2 0 -485 0 -485 215 0 215
0 0 -217 0 -218 80 3 80 4 1 36 c4 140 -7 117 117 250 l112 122 1 -173 c0 -94
1 -188 2 -207 l2 -35 303 -3 302 -2 0 -215 0 -215 243 0 242 0 -105 59 c-58
33 -127 71 -153 86 -33 18 -45 30 -40 39 4 7 39 46 76 87 l69 73 31 -18 c18
-10 100 -53 182 -96 83 -42 213 -112 289 -154 l139 -76 246 0 246 0 -405 221
c-223 122 -427 236 -455 253 -27 18 -85 51 -127 75 l-78 42 0 -51 c0 -27 -4
-50 -8 -50 -8 0 -619 333 -887 484 -55 31 -103 56 -107 56 -5 0 -8 -38 -8 -85
l0 -85 -115 0 -115 0 0 490 0 490 121 0 122 0 -5 -225 -4 -225 503 0 503 0 0
-185 0 -185 -42 21 c-24 12 -83 44 -131 71 l-88 48 -242 -2 -242 -3 370 -202
370 -202 3 98 3 98 166 6 c91 4 379 7 640 7 l473 0 0 330 0 330 -640 0 -640 0
0 183 0 183 98 54 c53 30 111 63 128 75 16 11 261 146 542 300 l512 280 0 132
c0 73 -2 133 -4 133 -1 0 -205 -111 -452 -246 -247 -136 -523 -284 -612 -331
-236 -121 -212 -96 -212 -224 l0 -109 -363 0 c-200 0 -425 3 -500 7 l-137 6 0
176 1 176 97 54 c447 246 894 491 898 491 2 0 3 -60 2 -132 l-3 -133 -366
-200 -366 -200 242 -3 242 -2 124 68 124 69 3 49 3 49 122 69 c120 67 434 241
572 317 39 21 185 101 325 177 l255 140 3 201 2 201 -640 0 -640 0 -2 218 -3
217 -500 0 -500 0 1 -782 1 -783 -118 0 -119 0 0 995 0 995 -295 0 -295 0 0
-995 0 -995 -1340 0 -1340 0 0 115 0 115 603 2 602 3 -220 120 c-121 66 -241
131 -266 145 -25 14 -198 108 -383 209 l-336 185 0 128 c0 74 4 128 9 128 6 0
389 -207 851 -460 l841 -460 242 2 241 3 -1090 596 -1089 596 -3 133 c-2 108
0 131 11 127 8 -3 209 -112 448 -243 421 -230 670 -366 1234 -674 149 -82 374
-205 500 -274 127 -69 233 -126 238 -126 4 0 7 367 7 815 l0 815 -59 0 c-43 0
-60 4 -65 15 -5 13 -119 15 -941 15 -822 0 -936 -2 -941 -15 -5 -13 -39 -15
-220 -15 l-214 0 0 44 c0 51 -27 92 -76 112 -43 18 -52 18 -93 -4z"/>
<path d="M23306 18711 c-11 -18 43 -210 137 -488 84 -252 93 -273 115 -273 12
0 25 7 29 17 7 19 12 1 -116 423 l-99 325 -30 3 c-17 2 -33 -1 -36 -7z"/>
<path d="M22932 18575 c-73 -83 -83 -193 -37 -419 14 -71 24 -131 21 -133 -2
-2 -36 54 -77 124 -109 192 -177 300 -193 306 -8 3 -22 -1 -33 -8 -17 -13 -13
-24 76 -197 137 -267 262 -502 271 -511 13 -14 49 3 63 29 11 21 10 36 -4 92
-23 91 -46 235 -59 367 -17 170 3 278 54 291 54 13 73 -13 217 -294 121 -236
139 -267 160 -267 36 0 36 37 -2 119 -126 275 -159 337 -236 438 -47 62 -114
108 -156 108 -18 0 -37 -14 -65 -45z"/>
<path d="M6008 18495 c-3 -3 -3 -116 0 -251 l5 -245 -50 7 c-173 23 -274 -141
-290 -472 -7 -145 -3 -169 27 -202 25 -26 86 -30 129 -8 37 19 105 95 130 145
12 23 24 41 27 41 4 0 5 -75 3 -167 -4 -166 -4 -168 18 -171 14 -2 23 3 27 15
3 10 10 187 16 393 6 206 15 474 20 595 6 121 10 244 10 273 l0 52 -33 0 c-19
0 -36 -2 -39 -5z m-27 -592 c7 -17 9 -62 5 -113 -12 -189 -125 -419 -200 -408
-29 4 -56 62 -56 121 0 132 71 328 142 392 49 45 93 48 109 8z"/>
<path d="M6204 18286 c-3 -8 -4 -25 -2 -38 2 -18 9 -23 33 -23 28 0 30 3 30
35 0 31 -3 35 -28 38 -17 2 -29 -2 -33 -12z"/>
<path d="M25700 18237 c-84 -43 -48 -147 51 -147 77 0 145 -55 265 -216 45
-60 100 -127 123 -147 91 -82 220 -120 332 -98 128 26 198 78 322 244 135 179
185 217 287 217 99 0 155 -42 284 -214 45 -61 101 -128 124 -148 92 -83 220
-121 333 -99 128 26 198 78 322 244 127 168 187 217 266 217 72 0 115 52 89
107 -21 44 -56 56 -130 43 -129 -24 -207 -83 -341 -264 -123 -163 -168 -196
-272 -196 -104 0 -152 35 -278 203 -46 62 -104 131 -130 154 -121 111 -290
139 -435 71 -65 -31 -142 -106 -235 -232 -123 -163 -168 -196 -272 -196 -102
0 -149 33 -262 184 -89 118 -143 177 -198 216 -73 51 -200 80 -245 57z"/>
<path d="M3984 18181 c-33 -17 -88 -56 -121 -86 -34 -30 -63 -55 -66 -55 -2 0
-10 27 -17 60 l-13 60 -43 0 c-33 0 -44 -4 -44 -15 0 -9 54 -244 120 -523 66
-279 120 -510 120 -515 0 -13 50 -7 56 7 3 7 -15 98 -39 202 -25 104 -43 192
-41 196 2 3 43 -3 91 -14 49 -10 169 -37 267 -58 99 -22 188 -42 197 -45 21
-7 54 37 46 59 -3 8 -31 19 -64 26 -87 17 -523 126 -529 133 -4 3 69 85 160
181 185 195 239 270 240 330 1 31 -4 42 -27 60 -24 18 -45 22 -130 24 -97 3
-105 2 -163 -27z m217 -51 c43 -23 14 -95 -74 -189 -56 -58 -258 -241 -267
-241 -8 0 -40 190 -40 234 0 30 50 89 109 130 90 63 219 94 272 66z"/>
<path d="M22250 18147 c-91 -48 -107 -127 -69 -339 17 -91 19 -127 11 -157
-15 -60 13 -79 60 -41 l25 19 42 -58 c51 -73 90 -107 141 -122 35 -11 44 -9
87 12 39 21 53 36 84 94 49 92 79 208 79 308 0 107 -23 143 -64 101 -12 -12
-16 -37 -16 -108 0 -114 -14 -196 -46 -257 -24 -48 -75 -89 -111 -89 -23 0
-69 48 -110 115 -61 102 -62 95 12 239 66 131 101 226 91 251 -3 8 -20 24 -38
35 -46 28 -122 27 -178 -3z m118 -59 c7 -7 12 -23 12 -37 0 -45 -87 -211 -110
-211 -16 0 -32 84 -27 138 3 30 13 65 22 78 25 39 80 55 103 32z"/>
<path d="M6207 18043 c-3 -10 -8 -29 -10 -43 -22 -99 -62 -719 -49 -732 6 -6
20 -8 33 -6 23 3 24 8 32 98 4 52 21 226 37 385 20 202 25 294 18 303 -16 18
-56 15 -61 -5z"/>
<path d="M5414 18031 c-71 -43 -157 -191 -221 -377 -43 -129 -50 -232 -19
-296 54 -111 148 -36 284 224 65 123 67 121 97 -110 19 -146 21 -154 49 -150
20 3 21 8 18 90 -1 48 -13 156 -27 240 -15 92 -25 193 -25 255 0 90 -3 106
-20 123 -26 26 -94 27 -136 1z m73 -98 c21 -54 -50 -244 -152 -408 -55 -89
-92 -126 -105 -105 -16 26 -11 65 21 157 85 242 208 429 236 356z"/>
<path d="M6416 18028 c-4 -21 -62 -628 -68 -722 -3 -48 17 -65 58 -51 24 9 34
26 70 120 87 231 189 419 261 486 50 46 71 48 104 13 29 -31 29 -26 -6 -368
-31 -310 -31 -296 -1 -296 13 0 28 6 33 13 18 23 56 313 61 463 3 122 1 162
-12 208 -31 105 -77 127 -171 82 -93 -43 -146 -117 -224 -314 -61 -156 -62
-155 -53 13 4 83 7 200 7 260 l0 110 -27 3 c-22 3 -28 -1 -32 -20z"/>
<path d="M21523 17988 c-13 -6 -23 -18 -23 -27 0 -9 50 -74 112 -145 l111
-129 -24 -75 -23 -74 23 -19 c38 -31 61 -24 78 21 9 22 19 40 23 40 4 0 98
-93 210 -206 188 -191 205 -206 228 -198 53 19 55 15 -265 347 l-143 147 23
47 c12 26 36 77 54 113 l31 65 -20 18 c-11 9 -25 17 -32 17 -6 0 -35 -38 -65
-85 -29 -47 -57 -85 -61 -85 -8 0 -159 182 -183 221 -13 21 -22 22 -54 7z"/>
<path d="M4715 17971 c-56 -25 -88 -77 -133 -216 -43 -133 -55 -159 -85 -192
-28 -31 -8 -55 42 -51 l35 3 12 -76 c27 -178 104 -235 231 -173 70 34 192 154
242 238 43 71 49 139 14 144 -26 4 -54 -32 -108 -136 -87 -168 -235 -252 -292
-165 -14 21 -19 53 -21 138 l-4 110 113 81 c198 141 225 179 177 246 -44 62
-146 85 -223 49z m141 -75 c18 -14 19 -15 1 -48 -20 -37 -84 -91 -149 -126
l-43 -23 -3 23 c-4 33 30 108 68 152 26 29 39 36 69 36 21 0 46 -6 57 -14z"/>
<path d="M7357 17785 c-103 -38 -261 -185 -338 -315 -38 -64 -44 -83 -47 -142
-4 -64 -3 -69 26 -98 17 -16 40 -30 51 -30 72 0 216 124 346 295 51 68 66 83
60 60 -3 -16 -20 -91 -35 -165 -95 -447 -149 -591 -261 -694 -74 -69 -135 -91
-229 -83 -36 3 -73 2 -80 -3 -17 -11 -18 -9 44 -49 116 -73 254 -17 381 153
134 180 163 269 275 841 35 182 34 192 -35 225 -47 23 -103 25 -158 5z m87
-61 c9 -3 16 -14 16 -24 0 -43 -313 -383 -364 -396 -61 -15 -72 24 -32 105 70
136 210 276 310 307 50 15 50 15 70 8z"/>
<path d="M19457 17706 c-71 -26 -109 -78 -109 -151 0 -102 94 -181 189 -161
74 17 133 87 133 161 0 107 -113 187 -213 151z"/>
<path d="M11372 17527 c-50 -16 -128 -91 -147 -142 -27 -69 -18 -169 21 -231
34 -56 111 -108 174 -118 96 -15 203 34 254 118 39 62 48 162 21 231 -20 54
-98 127 -153 143 -47 14 -124 14 -170 -1z"/>
<path d="M21522 17490 c-52 -51 -76 -115 -80 -207 -5 -102 14 -164 68 -226 43
-49 93 -77 135 -77 37 0 85 53 107 117 21 60 54 109 91 137 28 20 29 20 42 2
22 -29 28 -114 16 -234 -7 -61 -14 -118 -17 -126 -4 -10 3 -17 20 -22 57 -14
80 46 79 206 -1 183 -35 254 -129 267 -58 8 -93 -26 -134 -127 -37 -93 -88
-147 -120 -130 -47 25 -100 145 -100 227 0 57 26 105 67 125 34 16 42 52 17
79 -23 25 -27 24 -62 -11z"/>
<path d="M20918 17265 c-8 -19 -8 -28 2 -40 18 -22 57 -19 71 7 10 18 8 24
-11 40 -30 25 -48 23 -62 -7z"/>
<path d="M25215 17223 c-404 -33 -747 -124 -1065 -282 -401 -200 -682 -457
-954 -871 -29 -43 -96 -166 -96 -174 0 -3 35 21 77 55 351 279 779 471 1213
544 86 15 97 19 119 48 51 68 250 254 321 302 223 148 474 228 762 242 l126 6
79 -49 c175 -109 379 -297 503 -465 228 -308 349 -648 385 -1091 l7 -78 29 16
c16 8 34 12 39 9 6 -3 10 -1 10 5 0 7 7 9 16 6 8 -3 12 -2 9 4 -5 9 15 15 38
11 4 0 7 3 7 7 0 11 78 35 89 27 5 -3 11 -1 13 5 1 5 17 11 33 14 17 2 37 6
45 9 54 22 359 31 458 14 127 -23 153 -30 148 -43 -3 -7 -1 -16 5 -19 5 -4 8
-1 7 7 -2 7 5 12 15 12 23 -2 22 2 -19 98 -303 710 -802 1231 -1407 1467 -322
125 -714 189 -1012 164z"/>
<path d="M21127 17152 c-10 -10 -17 -23 -17 -28 1 -13 138 -122 265 -211 61
-42 168 -117 239 -166 102 -71 132 -88 145 -80 39 25 18 49 -154 176 -93 69
-231 170 -305 226 -74 55 -140 101 -146 101 -6 0 -18 -8 -27 -18z"/>
<path d="M21420 16764 c-9 -10 -20 -95 -31 -242 -20 -254 -27 -312 -39 -331
-6 -10 -88 27 -343 158 -184 94 -342 171 -351 171 -8 0 -23 -14 -32 -31 -13
-26 -14 -34 -2 -44 7 -7 128 -71 268 -143 140 -71 298 -153 350 -181 133 -73
142 -74 168 -18 30 63 42 150 42 307 1 123 7 201 25 301 5 26 3 40 -10 52 -20
21 -29 21 -45 1z"/>
<path d="M18275 16533 c-22 -12 -257 -141 -521 -285 l-482 -263 521 -3 c286
-1 522 -1 524 1 2 2 2 132 1 288 l-3 285 -40 -23z"/>
<path d="M5015 16454 c-22 -2 -98 -9 -170 -14 -379 -31 -701 -106 -782 -182
-30 -28 -29 -72 2 -109 13 -16 27 -29 30 -29 21 1 25 -1 20 -10 -3 -5 0 -7 8
-4 8 3 21 -1 28 -8 8 -7 23 -14 35 -15 11 -1 34 -7 50 -14 16 -6 36 -13 44
-14 8 -2 76 -14 150 -28 148 -28 378 -57 453 -57 27 0 46 -3 44 -7 -3 -5 23
-7 58 -5 l64 4 7 46 c14 97 78 183 163 220 45 19 153 21 205 3 49 -17 121 -83
148 -134 11 -22 22 -63 25 -93 l6 -53 73 -3 c41 -2 74 1 74 5 0 5 37 7 83 7
45 -1 89 0 97 3 8 3 56 8 105 12 50 4 110 9 135 11 52 4 286 42 314 50 14 5
16 3 11 -7 -5 -8 1 -6 13 5 13 11 38 19 66 20 24 0 41 5 38 10 -3 5 2 7 11 3
10 -3 17 -3 17 2 0 5 20 15 44 22 66 19 136 73 136 105 0 38 -16 61 -63 88
-116 68 -342 115 -777 161 -64 7 -906 15 -965 9z"/>
<path d="M5223 16179 c-74 -37 -123 -112 -123 -189 l0 -40 225 0 225 0 0 45
c0 79 -55 157 -132 189 -54 23 -144 20 -195 -5z"/>
<path d="M6986 16052 c-3 -5 1 -9 9 -9 8 0 12 4 9 9 -3 4 -7 8 -9 8 -2 0 -6
-4 -9 -8z"/>
<path d="M7156 16035 c-9 -26 -7 -32 5 -12 6 10 9 21 6 23 -2 3 -7 -2 -11 -11z"/>
<path d="M7270 16036 c0 -2 8 -10 18 -17 15 -13 16 -12 3 4 -13 16 -21 21 -21
13z"/>
<path d="M4886 15948 c3 -5 10 -6 15 -3 13 9 11 12 -6 12 -8 0 -12 -4 -9 -9z"/>
<path d="M6763 15928 c-6 -7 -19 -49 -28 -93 -35 -159 -124 -393 -145 -380 -6
4 -7 -1 -3 -11 4 -12 3 -15 -5 -10 -7 4 -10 2 -7 -6 3 -8 -22 -53 -55 -102
-69 -99 -74 -129 -24 -134 28 -3 36 3 67 45 57 78 117 182 152 262 43 98 103
296 112 368 5 50 4 56 -10 50 -10 -4 -16 -2 -14 5 3 17 -28 21 -40 6z"/>
<path d="M22510 15799 c0 -5 5 -7 10 -4 6 3 10 8 10 11 0 2 -4 4 -10 4 -5 0
-10 -5 -10 -11z"/>
<path d="M22905 15741 c-3 -5 0 -13 6 -17 7 -4 9 -3 5 4 -3 5 0 13 6 15 9 4
10 6 1 6 -6 1 -14 -3 -18 -8z"/>
<path d="M13560 15370 l-675 -370 247 0 246 0 668 366 c368 201 671 368 673
370 2 2 -106 4 -240 4 l-244 -1 -675 -369z"/>
<path d="M23133 15592 c-49 -38 -51 -115 -4 -155 37 -30 529 -172 566 -163 90
23 102 161 17 195 -75 30 -485 141 -518 141 -22 0 -49 -8 -61 -18z"/>
<path d="M14875 15554 c-44 -25 -287 -158 -540 -296 -253 -138 -464 -255 -470
-260 -5 -4 242 -8 548 -8 l557 0 0 305 c0 168 -3 305 -7 304 -5 0 -44 -21 -88
-45z"/>
<path d="M22180 15500 c0 -5 5 -10 11 -10 5 0 7 5 4 10 -3 6 -8 10 -11 10 -2
0 -4 -4 -4 -10z"/>
<path d="M7155 15421 c-3 -5 -2 -12 3 -15 5 -3 9 1 9 9 0 17 -3 19 -12 6z"/>
<path d="M4166 15412 c-3 -5 1 -9 9 -9 8 0 12 4 9 9 -3 4 -7 8 -9 8 -2 0 -6
-4 -9 -8z"/>
<path d="M27856 15372 c-2 -4 4 -8 14 -8 10 0 16 4 14 8 -3 4 -9 8 -14 8 -5 0
-11 -4 -14 -8z"/>
<path d="M21176 15241 c-47 -112 -90 -153 -200 -195 -42 -16 -76 -30 -76 -31
0 -2 41 -20 90 -41 111 -45 144 -79 189 -192 18 -45 34 -82 36 -82 1 0 19 40
39 88 45 109 76 140 186 187 46 20 86 37 87 39 2 2 -30 16 -69 31 -119 47
-144 67 -187 159 -21 45 -42 91 -47 104 -8 21 -14 13 -48 -67z"/>
<path d="M22029 15273 c-13 -16 -12 -17 4 -4 9 7 17 15 17 17 0 8 -8 3 -21
-13z"/>
<path d="M24274 15276 c-60 -26 -80 -86 -50 -145 8 -15 25 -32 38 -38 13 -6
183 -56 380 -112 246 -70 364 -100 382 -95 36 9 76 59 76 95 0 50 -25 86 -72
103 -42 15 -647 189 -698 200 -14 3 -39 -1 -56 -8z"/>
<path d="M4284 15269 c-5 -8 -3 -9 6 -4 10 6 12 4 7 -8 -3 -9 1 -21 11 -28 14
-11 15 -11 5 0 -6 7 -9 19 -7 26 7 17 -13 29 -22 14z"/>
<path d="M6433 15239 c-2 -23 3 -25 10 -4 4 8 3 16 -1 19 -4 3 -9 -4 -9 -15z"/>
<path d="M26209 15101 c-97 -101 -213 -267 -283 -406 -246 -490 -273 -1066
-75 -1570 62 -157 95 -197 134 -165 21 18 19 44 -10 100 -44 87 -85 200 -114
314 -109 423 -57 888 142 1282 59 117 131 227 142 217 4 -4 5 -3 2 4 -8 12 56
95 146 190 62 66 67 86 29 111 -23 15 -26 14 -113 -77z"/>
<path d="M23137 15129 c-101 -24 -198 -102 -245 -199 -23 -48 -26 -68 -27
-150 0 -88 3 -101 33 -162 36 -74 95 -132 170 -169 40 -20 62 -24 152 -24 90
0 112 4 152 24 156 77 239 252 198 420 -43 182 -246 304 -433 260z"/>
<path d="M1923 15100 c-28 -12 -63 -67 -63 -100 0 -35 35 -89 66 -100 49 -19
84 -12 120 24 28 28 34 42 34 76 0 34 -6 48 -34 76 -36 36 -75 43 -123 24z"/>
<path d="M6399 15083 c-13 -16 -12 -17 4 -4 16 13 21 21 13 21 -2 0 -10 -8
-17 -17z"/>
<path d="M27110 14984 c-47 -12 -112 -34 -144 -48 -32 -14 -63 -23 -70 -19 -6
3 -8 3 -4 -2 8 -8 -141 -112 -154 -107 -5 1 -7 -1 -6 -5 1 -5 -32 -43 -74 -85
-164 -167 -270 -379 -319 -638 -19 -99 -16 -349 6 -445 10 -44 19 -87 20 -95
2 -17 5 -24 47 -127 16 -40 29 -75 28 -79 -1 -4 2 -10 7 -13 5 -3 20 -26 34
-51 13 -25 26 -47 29 -50 3 -3 28 -34 55 -70 54 -70 87 -101 174 -167 31 -23
63 -48 72 -55 9 -7 20 -14 25 -15 5 -1 41 -16 79 -34 39 -18 75 -34 80 -35
134 -28 180 -34 260 -34 106 0 217 20 311 55 34 13 65 21 68 18 3 -4 6 -1 6 6
0 8 6 11 17 7 10 -4 14 -4 10 0 -4 4 19 23 51 42 31 19 83 55 114 81 32 25 63
46 70 46 7 0 13 5 13 10 0 6 27 43 60 83 116 140 195 295 241 470 25 99 49
296 42 361 -2 22 0 37 5 34 5 -3 4 3 -1 13 -6 11 -15 59 -21 108 -7 49 -28
134 -47 190 -20 55 -36 109 -37 118 -1 9 -4 15 -7 13 -3 -2 -20 24 -38 58 -17
34 -61 99 -96 144 -36 44 -62 85 -58 89 4 4 2 4 -5 1 -6 -4 -23 7 -37 24 -14
17 -26 28 -26 25 0 -4 -23 12 -51 34 -28 22 -54 40 -58 40 -4 0 -17 9 -29 20
-12 12 -22 18 -22 14 0 -3 -10 0 -22 8 -38 24 -169 66 -242 78 -110 17 -258
11 -356 -16z m418 -397 c82 -28 186 -93 176 -109 -4 -6 -3 -8 3 -5 15 9 107
-89 98 -104 -5 -7 -4 -10 3 -5 11 6 38 -31 34 -46 -1 -5 2 -8 7 -8 14 0 69
-130 87 -205 22 -94 22 -249 0 -350 -26 -121 -102 -268 -184 -356 -84 -91
-178 -155 -200 -136 -13 10 -14 9 -8 -2 5 -8 3 -17 -5 -22 -20 -13 -31 -11
-24 4 4 6 0 4 -9 -7 -34 -42 -220 -59 -330 -31 -78 21 -180 75 -242 130 -62
53 -150 178 -139 196 5 7 4 10 -2 6 -17 -10 -61 112 -79 216 -11 63 -14 117
-10 170 8 97 25 177 37 177 4 0 6 7 3 14 -3 8 15 59 40 112 42 88 47 95 63 83
16 -13 17 -12 4 3 -11 15 -9 22 17 56 49 61 131 134 144 126 6 -4 8 -3 5 3 -8
13 97 76 128 76 13 0 22 3 20 8 -3 4 18 12 47 18 29 6 62 13 73 15 47 10 179
-5 243 -27z"/>
<path d="M26805 14250 c-2 -3 5 -6 15 -7 11 -1 22 2 25 7 3 5 -4 8 -16 7 -11
-1 -22 -4 -24 -7z"/>
<path d="M26773 13625 c0 -8 4 -12 9 -9 5 3 6 10 3 15 -9 13 -12 11 -12 -6z"/>
<path d="M27786 13498 c3 -5 10 -6 15 -3 13 9 11 12 -6 12 -8 0 -12 -4 -9 -9z"/>
<path d="M27175 13249 c-4 -6 -5 -12 -2 -15 2 -3 7 2 10 11 7 17 1 20 -8 4z"/>
<path d="M4820 14996 c0 -2 8 -10 18 -17 15 -13 16 -12 3 4 -13 16 -21 21 -21
13z"/>
<path d="M27729 14943 c-13 -16 -12 -17 4 -4 9 7 17 15 17 17 0 8 -8 3 -21
-13z"/>
<path d="M26226 14917 c3 -10 9 -15 12 -12 3 3 0 11 -7 18 -10 9 -11 8 -5 -6z"/>
<path d="M26191 14903 c-1 -17 16 -25 25 -12 4 7 3 9 -4 5 -5 -3 -13 0 -15 6
-4 9 -6 10 -6 1z"/>
<path d="M4830 14876 c0 -2 7 -7 16 -10 8 -3 12 -2 9 4 -6 10 -25 14 -25 6z"/>
<path d="M27840 14860 c-9 -6 -10 -10 -3 -10 6 0 15 5 18 10 8 12 4 12 -15 0z"/>
<path d="M17295 14841 c17 -9 251 -138 520 -286 270 -147 493 -269 498 -272 4
-2 7 127 7 287 l0 290 -527 0 c-512 -1 -526 -1 -498 -19z"/>
<path d="M5696 14818 c3 -5 10 -6 15 -3 13 9 11 12 -6 12 -8 0 -12 -4 -9 -9z"/>
<path d="M24299 14787 c-179 -51 -291 -228 -259 -409 31 -169 161 -286 329
-296 140 -8 253 46 325 157 46 69 60 119 59 206 -2 191 -144 340 -334 351 -44
2 -93 -1 -120 -9z"/>
<path d="M26665 14781 c-3 -5 -2 -12 3 -15 5 -3 9 1 9 9 0 17 -3 19 -12 6z"/>
<path d="M28015 14709 c-4 -6 -5 -12 -2 -15 2 -3 7 2 10 11 7 17 1 20 -8 4z"/>
<path d="M28040 14716 c0 -2 7 -7 16 -10 8 -3 12 -2 9 4 -6 10 -25 14 -25 6z"/>
<path d="M4348 14689 c-21 -12 -23 -40 -6 -57 9 -9 254 -12 1040 -12 1005 0
1028 0 1038 19 13 25 13 27 -6 45 -14 14 -121 16 -1032 16 -672 -1 -1023 -4
-1034 -11z"/>
<path d="M8442 14655 c-47 -60 -13 -117 77 -128 96 -11 151 -57 279 -233 59
-81 143 -164 193 -189 86 -45 197 -56 290 -29 104 30 178 92 285 239 116 159
189 215 279 214 99 0 156 -41 274 -197 94 -124 166 -199 222 -227 86 -45 197
-56 290 -29 104 31 179 93 284 239 108 150 190 215 273 215 46 0 68 14 81 50
13 38 1 74 -30 91 -34 18 -138 5 -202 -24 -75 -34 -134 -90 -237 -228 -128
-169 -171 -200 -274 -201 -107 0 -163 43 -305 234 -82 111 -132 157 -211 196
-49 24 -66 27 -160 27 -93 0 -112 -3 -162 -27 -75 -35 -135 -92 -226 -213
-135 -182 -181 -216 -285 -217 -108 0 -164 42 -306 234 -118 160 -204 217
-335 226 -70 4 -73 3 -94 -23z"/>
<path d="M28504 14659 c-4 -7 -3 -9 4 -5 5 3 13 0 15 -6 4 -9 6 -10 6 -1 1 17
-16 25 -25 12z"/>
<path d="M26489 14624 c-7 -9 -6 -12 6 -10 22 3 40 23 20 23 -8 0 -20 -6 -26
-13z"/>
<path d="M3590 13990 l0 -410 1720 0 1720 0 0 410 0 410 -1720 0 -1720 0 0
-410z m2381 220 c5 0 9 -11 9 -25 l0 -25 40 21 c52 27 131 23 163 -10 20 -20
21 -23 7 -49 -9 -15 -60 -56 -113 -92 l-98 -64 115 -58 c107 -54 136 -79 104
-91 -7 -2 -57 18 -110 44 -54 27 -102 49 -107 49 -6 0 -11 -37 -13 -82 -3 -70
-6 -83 -20 -86 -16 -3 -18 7 -18 93 0 95 0 96 -22 90 -39 -12 -40 -21 -20 -96
11 -40 18 -79 15 -86 -11 -28 -28 -5 -49 63 -19 63 -23 69 -45 66 -45 -6 -74
-35 -77 -80 -3 -34 -7 -42 -23 -42 -24 0 -24 -3 1 235 11 104 20 193 20 197 0
5 8 8 18 8 21 0 35 -27 81 -155 16 -43 33 -81 38 -82 6 -2 22 1 36 6 l27 11 0
126 c0 111 2 125 16 120 9 -3 20 -6 25 -6z m515 -14 c10 -27 -132 -461 -151
-461 -17 0 -17 61 -1 100 25 60 20 79 -38 146 -71 81 -96 127 -77 138 10 7 29
-10 71 -63 88 -111 83 -110 118 -9 17 49 36 105 42 126 12 38 27 48 36 23z
m-860 -13 c4 -10 11 -92 15 -183 4 -91 10 -179 14 -196 5 -24 3 -33 -9 -37
-23 -9 -46 2 -46 22 0 24 -174 239 -178 219 -2 -8 4 -66 12 -128 8 -62 12
-119 9 -126 -6 -17 -32 -18 -37 -1 -8 27 -39 367 -34 372 14 15 48 -19 134
-133 l94 -125 0 114 c-1 63 -5 134 -10 159 -4 25 -6 48 -4 52 9 14 32 8 40 -9z
m-1569 -13 c5 -17 14 -20 67 -20 69 0 138 -26 155 -58 32 -59 -16 -165 -126
-282 -70 -75 -101 -92 -90 -50 3 11 -1 21 -8 23 -8 4 -14 44 -19 124 -10 164
-13 182 -37 176 -27 -8 -24 19 6 47 14 13 25 32 25 42 0 24 21 23 27 -2z m314
-55 c4 -39 7 -139 8 -222 1 -147 0 -153 -19 -153 -19 0 -20 7 -20 128 0 70 -3
171 -7 226 -6 93 -5 98 13 94 16 -3 20 -15 25 -73z m733 38 c3 -21 6 -121 8
-223 3 -163 1 -185 -13 -188 -13 -2 -17 11 -22 74 -4 42 -7 130 -7 194 l0 117
-42 -8 c-24 -4 -60 -8 -80 -9 -37 0 -38 -1 -38 -40 0 -21 7 -89 16 -151 16
-120 16 -180 -2 -186 -18 -6 -24 22 -40 177 -19 196 -19 193 -52 186 -62 -13
-152 -19 -152 -9 0 20 25 30 99 42 47 7 79 18 87 28 10 15 14 15 28 4 22 -18
162 -6 170 15 11 28 34 15 40 -23z m-514 7 c11 -11 20 -29 20 -41 0 -21 -10
-19 -42 8 -25 22 -52 2 -77 -58 -26 -59 -51 -167 -51 -221 0 -47 30 -82 63
-72 39 12 83 51 108 98 14 28 31 46 41 46 57 0 -33 -130 -120 -174 -47 -24
-92 -10 -114 34 -22 43 -22 79 -2 178 20 100 49 166 86 197 36 30 61 32 88 5z
m730 -46 c23 -23 25 -31 25 -127 0 -95 -2 -108 -30 -162 -22 -43 -40 -63 -68
-78 -35 -18 -39 -18 -63 -2 -46 30 -58 77 -46 179 18 142 76 236 137 219 11
-3 31 -16 45 -29z"/>
<path d="M6023 14140 c-45 -20 -57 -43 -51 -98 l3 -31 80 48 c88 54 109 76 85
91 -24 15 -71 11 -117 -10z"/>
<path d="M5755 13996 c-4 -53 -5 -99 -2 -102 7 -7 67 24 67 35 0 17 -42 146
-50 154 -4 5 -11 -34 -15 -87z"/>
<path d="M4077 14114 c-9 -9 -8 -200 1 -269 l7 -50 67 78 c74 87 98 130 98
177 0 26 -6 33 -32 44 -41 17 -131 30 -141 20z"/>
<path d="M5236 14078 c-19 -17 -32 -45 -46 -102 -29 -113 -24 -175 15 -190 46
-17 94 72 101 188 7 107 -20 148 -70 104z"/>
<path d="M28186 14388 c3 -4 9 -8 15 -8 5 0 9 4 9 8 0 5 -7 9 -15 9 -8 0 -12
-4 -9 -9z"/>
<path d="M25876 14197 c3 -10 9 -15 12 -12 3 3 0 11 -7 18 -10 9 -11 8 -5 -6z"/>
<path d="M22030 13889 c0 -5 5 -7 10 -4 6 3 10 8 10 11 0 2 -4 4 -10 4 -5 0
-10 -5 -10 -11z"/>
<path d="M7764 13621 l-169 -200 -2367 0 -2368 -1 0 115 0 116 -210 -177 -210
-176 0 -638 0 -638 -165 -137 c-91 -76 -165 -143 -165 -149 0 -8 843 -10 2966
-8 2378 2 2964 0 2959 -10 -3 -7 0 -5 7 6 43 63 169 206 181 206 6 0 2 -7 -9
-16 -18 -15 -18 -15 0 -6 11 5 21 17 22 26 1 9 -2 13 -8 10 -6 -4 49 65 123
154 112 133 137 158 149 149 13 -10 13 -10 2 4 -10 13 -9 19 3 29 27 22 5 30
-81 30 l-84 0 -192 -225 -193 -225 -3 716 -2 716 197 236 c109 130 209 249
221 264 l24 28 -230 0 -229 0 -169 -199z m-4704 -1061 l0 -700 -120 0 -120 0
0 700 0 700 120 0 120 0 0 -700z m320 0 l0 -700 -70 0 -70 0 0 700 0 700 70 0
70 0 0 -700z m3660 0 l0 -700 -65 0 -65 0 0 700 0 700 65 0 65 0 0 -700z m420
0 l0 -700 -120 0 -120 0 0 700 0 700 120 0 120 0 0 -700z m-1846 402 c7 -12
24 -270 31 -485 l7 -179 -29 4 -28 3 2 90 c2 100 -14 466 -24 533 -5 38 -4 42
15 42 11 0 23 -4 26 -8z m-629 -47 c0 -22 -4 -103 -8 -180 l-7 -140 20 24 c48
56 91 81 142 81 44 0 50 -3 68 -32 27 -45 27 -144 0 -197 -36 -72 -175 -175
-245 -183 l-30 -3 -3 338 -2 338 32 -3 c31 -3 33 -5 33 -43z m-931 -53 c3 -5
-23 -136 -57 -293 -49 -225 -66 -284 -79 -287 -37 -7 -77 53 -167 250 -50 108
-91 204 -91 212 0 10 9 16 23 16 20 0 35 -24 115 -192 50 -105 93 -185 96
-177 2 8 25 102 51 209 67 282 63 270 85 270 10 0 21 -4 24 -8z m417 -118 c15
-19 26 -134 12 -134 -17 0 -43 35 -49 68 -4 18 -10 32 -15 32 -26 0 -69 -157
-69 -250 0 -158 115 -179 169 -30 31 84 68 80 52 -6 -16 -86 -73 -137 -153
-138 -44 -1 -53 3 -74 29 -38 48 -49 120 -36 236 13 110 28 155 63 188 27 25
81 28 100 5z m-254 -36 c45 -49 57 -89 57 -183 0 -72 -5 -100 -22 -140 -29
-63 -46 -81 -89 -96 -56 -18 -70 3 -78 118 -6 72 -3 117 10 187 20 109 35 136
73 136 17 0 37 -9 49 -22z m620 0 c6 -7 13 -60 17 -118 3 -58 10 -141 16 -185
10 -86 7 -115 -15 -115 -17 0 -22 17 -31 105 -3 39 -9 75 -13 82 -4 8 -24 -18
-51 -63 -45 -77 -89 -124 -116 -124 -17 0 -40 36 -48 75 -14 64 76 279 136
330 32 27 89 34 105 13z m1071 0 c5 -7 12 -62 16 -123 3 -60 9 -152 12 -203 6
-88 5 -94 -12 -90 -19 3 -21 11 -39 152 l-7 59 -39 -72 c-41 -73 -100 -141
-123 -141 -22 0 -47 37 -53 77 -9 71 58 238 129 318 24 28 37 35 68 35 21 0
42 -6 48 -12z m643 -25 c4 -83 -4 -341 -17 -503 -7 -102 -14 -188 -14 -192 0
-5 -11 -8 -25 -8 -29 0 -29 -10 -14 172 l11 137 -101 162 c-102 162 -118 204
-76 204 14 0 34 -25 71 -88 72 -125 94 -153 105 -136 5 8 9 39 9 70 0 31 3 90
6 132 6 66 10 77 25 77 14 0 19 -8 20 -27z m-307 11 c9 -3 16 -14 16 -24 0
-20 -19 -30 -59 -30 -63 0 -85 -43 -96 -185 -10 -131 -15 -163 -30 -168 -34
-14 -45 16 -74 203 -16 102 -27 188 -24 193 8 14 42 7 47 -10 3 -10 8 -51 12
-90 7 -76 24 -101 24 -36 0 53 34 118 73 137 33 16 83 21 111 10z m-922 -154
c8 -161 15 -200 32 -200 36 0 96 122 96 196 0 28 3 71 6 96 6 41 9 44 30 40
24 -4 24 -5 24 -146 0 -87 5 -162 13 -194 15 -56 13 -62 -14 -62 -22 0 -39 29
-39 66 l0 27 -45 -42 c-32 -29 -53 -41 -75 -41 -27 0 -34 6 -52 48 -18 39 -22
72 -26 200 l-4 154 23 -4 c24 -3 24 -6 31 -138z"/>
<path d="M5085 12630 c-29 -11 -94 -86 -111 -126 -14 -33 -20 -154 -8 -154 15
0 121 71 145 97 91 97 73 224 -26 183z"/>
<path d="M4173 12662 c-26 -17 -33 -56 -33 -186 0 -77 4 -136 9 -136 14 0 41
30 51 56 19 48 31 151 25 201 -6 53 -28 80 -52 65z"/>
<path d="M4757 12631 c-68 -81 -146 -297 -97 -266 17 10 108 171 120 212 7 21
10 50 8 63 -3 24 -3 24 -31 -9z"/>
<path d="M5830 12640 c-29 -29 -110 -200 -117 -247 l-5 -38 25 25 c61 59 148
252 124 276 -3 3 -15 -4 -27 -16z"/>
<path d="M20965 13687 c-67 -166 -95 -194 -268 -267 l-128 -53 103 -42 c57
-23 117 -49 134 -58 60 -31 109 -98 160 -220 27 -64 51 -117 54 -117 3 0 27
52 54 117 72 171 105 202 292 277 l105 43 -128 53 c-171 72 -201 102 -269 269
-27 66 -51 121 -54 121 -3 0 -27 -55 -55 -123z"/>
<path d="M22900 13664 c-67 -29 -120 -97 -134 -174 -14 -78 42 -257 116 -371
120 -186 273 -301 485 -365 76 -23 107 -27 223 -28 100 0 153 4 205 18 92 24
222 85 300 140 80 58 177 163 210 229 56 112 13 252 -95 307 -53 27 -1148 260
-1219 260 -31 -1 -72 -8 -91 -16z"/>
<path d="M28213 13545 c0 -8 4 -12 9 -9 5 3 6 10 3 15 -9 13 -12 11 -12 -6z"/>
<path d="M28590 13485 c-20 -25 -6 -31 17 -7 14 14 18 22 9 22 -8 0 -19 -7
-26 -15z"/>
<path d="M22214 13256 c-19 -14 -19 -16 5 -108 37 -148 106 -330 191 -503 213
-436 535 -801 945 -1071 195 -128 566 -304 608 -288 23 8 32 44 16 59 -8 7
-66 34 -129 60 -319 129 -590 307 -844 555 -313 305 -533 658 -669 1070 -19
58 -40 130 -47 160 -11 48 -31 80 -50 80 -3 0 -15 -6 -26 -14z"/>
<path d="M12655 13249 c-36 -10 -70 -39 -89 -77 -11 -22 -14 -254 -20 -1337
-3 -720 -9 -1497 -13 -1725 -6 -373 -8 -409 -20 -360 -7 30 -54 233 -103 450
-218 952 -414 1688 -592 2230 -130 393 -221 605 -300 695 -34 39 -45 45 -78
45 -50 0 -85 -40 -99 -112 -5 -29 -20 -323 -32 -653 -26 -714 -23 -1297 10
-1864 39 -676 45 -940 28 -1179 -10 -134 -13 -222 -7 -237 14 -38 45 -48 123
-42 77 7 131 30 161 70 19 26 20 33 8 289 -7 145 -21 385 -32 533 -10 149 -24
367 -30 485 -10 216 -15 1998 -5 1988 3 -3 46 -162 96 -354 315 -1220 645
-2355 804 -2769 50 -131 115 -261 144 -292 46 -49 112 -19 159 70 l27 52 7
1120 c3 616 13 1467 21 1890 14 671 18 776 32 820 21 59 15 150 -13 204 -31
61 -105 84 -187 60z"/>
<path d="M13959 13240 c-137 -22 -282 -95 -380 -192 -67 -66 -158 -207 -208
-322 -50 -115 -84 -231 -121 -416 -60 -302 -63 -343 -68 -1005 -5 -797 7
-1014 77 -1405 34 -187 73 -314 136 -445 116 -241 219 -354 401 -440 94 -45
179 -65 277 -65 112 0 202 24 322 86 58 30 107 54 109 54 3 0 14 -15 26 -34
28 -46 92 -76 159 -76 44 0 57 4 81 28 69 69 68 154 -5 612 -19 118 -41 294
-49 390 -14 182 -25 226 -72 287 -45 59 -72 66 -214 60 -200 -10 -347 -53
-388 -115 -21 -32 -21 -96 1 -138 25 -48 75 -67 171 -64 44 2 110 3 145 4 l64
1 18 -52 c27 -80 48 -235 55 -399 l6 -149 -36 -46 c-78 -99 -197 -166 -313
-176 -84 -7 -171 20 -292 91 -116 68 -162 114 -209 203 -66 130 -136 371 -161
558 -45 332 -40 1394 9 1806 50 419 76 550 150 739 81 207 147 297 254 346 62
28 46 28 256 9 55 -5 70 -3 98 15 63 39 78 138 30 190 -51 54 -198 81 -329 60z"/>
<path d="M17830 13186 c-76 -23 -101 -35 -166 -81 -134 -96 -237 -263 -280
-457 -23 -101 -23 -360 0 -488 50 -281 112 -444 337 -893 189 -375 221 -445
286 -627 150 -419 158 -734 28 -1098 -42 -117 -74 -172 -143 -244 -95 -100
-149 -107 -328 -42 -99 35 -164 43 -208 23 -54 -25 -74 -135 -36 -189 29 -41
144 -96 231 -110 100 -17 278 -8 350 17 238 82 418 318 505 660 49 193 50 463
4 720 -47 259 -92 375 -358 908 -123 248 -240 491 -259 540 -112 291 -155 666
-95 835 44 125 117 221 198 260 47 23 70 23 139 -3 22 -8 65 -18 95 -21 l55
-6 44 55 c52 66 51 86 -12 149 -69 68 -144 99 -252 103 -55 1 -108 -3 -135
-11z"/>
<path d="M15150 13174 c-50 -36 -49 -34 -50 -314 0 -303 10 -631 45 -1490 41
-995 45 -1118 52 -1530 5 -353 4 -411 -12 -534 l-19 -138 24 -45 c34 -64 88
-93 172 -93 56 0 71 4 106 30 l40 29 200 -4 c193 -5 200 -4 227 17 36 28 55
75 55 135 0 44 -4 50 -55 100 l-55 53 -205 0 -205 0 0 403 c-1 437 -3 535 -50
2177 -35 1205 -30 1148 -93 1192 -43 30 -142 37 -177 12z"/>
<path d="M26499 13168 c-5 -18 -6 -38 -1 -34 7 8 12 36 6 36 -2 0 -4 -1 -5 -2z"/>
<path d="M16710 13144 c-230 -27 -331 -46 -405 -76 -107 -45 -152 -99 -140
-172 11 -73 43 -96 134 -96 33 0 71 4 85 10 21 8 26 6 32 -13 5 -12 7 -269 5
-572 -2 -535 4 -768 34 -1295 53 -935 70 -1404 54 -1480 -15 -70 -26 -76 -136
-72 -142 5 -196 -22 -208 -103 -20 -140 169 -194 618 -176 l207 8 65 44 c64
43 65 45 65 88 0 69 -32 125 -88 153 -39 19 -63 23 -143 23 l-96 0 -6 380 c-7
395 -20 698 -62 1390 -56 934 -78 1569 -56 1623 17 40 53 52 152 52 68 0 81 3
107 25 80 67 65 191 -29 241 -29 14 -133 24 -189 18z"/>
<path d="M10393 13116 c-132 -16 -176 -25 -191 -40 -12 -10 -44 -53 -72 -96
l-52 -79 7 -68 c4 -37 21 -140 38 -228 l31 -160 6 -1652 5 -1651 24 -26 c13
-14 44 -32 70 -41 61 -21 300 -30 456 -17 150 13 221 38 289 104 46 44 48 49
43 85 -18 109 -174 145 -516 118 l-91 -7 0 824 0 825 21 19 c18 16 42 20 156
24 l135 5 28 32 c60 67 63 156 9 218 -54 61 -120 68 -285 29 -40 -10 -77 -15
-80 -11 -3 3 1 136 9 294 15 270 14 312 -3 663 -11 206 -19 410 -20 453 l0 77
148 0 c168 0 210 9 259 54 27 25 36 41 40 77 10 85 -40 146 -151 183 -58 20
-97 19 -313 -8z"/>
<path d="M19510 13018 c0 -68 5 -493 11 -946 6 -453 9 -825 7 -828 -7 -6 -512
-44 -518 -38 -3 3 -6 92 -7 197 -1 106 -9 451 -19 767 -13 438 -15 611 -7 725
7 108 7 154 -1 164 -6 8 -38 27 -71 43 -78 36 -136 38 -170 3 l-25 -24 0 -443
c0 -853 34 -1863 86 -2573 41 -564 97 -868 175 -946 51 -51 141 5 154 95 10
62 -8 446 -45 996 -16 239 -32 528 -36 641 l-7 206 64 17 c36 10 102 19 149
20 101 1 251 -12 270 -24 10 -6 16 -48 21 -157 18 -352 30 -763 35 -1253 3
-289 10 -541 15 -560 25 -103 155 -128 227 -46 55 63 56 72 49 536 -7 428 -11
543 -47 1430 -38 910 -40 985 -46 1380 -3 217 -9 437 -14 487 -14 147 -64 218
-170 242 -85 20 -80 26 -80 -111z"/>
<path d="M27716 12902 c-3 -5 1 -9 9 -9 8 0 12 4 9 9 -3 4 -7 8 -9 8 -2 0 -6
-4 -9 -8z"/>
<path d="M26744 12892 c4 -3 14 -7 22 -8 9 -1 13 0 10 4 -4 3 -14 7 -22 8 -9
1 -13 0 -10 -4z"/>
<path d="M27583 12825 c0 -8 4 -12 9 -9 5 3 6 10 3 15 -9 13 -12 11 -12 -6z"/>
<path d="M26975 12820 c-3 -6 1 -7 9 -4 18 7 21 14 7 14 -6 0 -13 -4 -16 -10z"/>
<path d="M28246 12772 c-3 -5 1 -9 9 -9 8 0 12 4 9 9 -3 4 -7 8 -9 8 -2 0 -6
-4 -9 -8z"/>
<path d="M28004 12552 c4 -3 14 -7 22 -8 9 -1 13 0 10 4 -4 3 -14 7 -22 8 -9
1 -13 0 -10 -4z"/>
<path d="M26496 12408 c3 -5 10 -6 15 -3 13 9 11 12 -6 12 -8 0 -12 -4 -9 -9z"/>
<path d="M27636 12308 c3 -5 10 -6 15 -3 13 9 11 12 -6 12 -8 0 -12 -4 -9 -9z"/>
<path d="M8289 11943 c-12 -16 -12 -17 2 -6 9 7 20 9 24 5 5 -4 5 -1 1 6 -9
16 -11 15 -27 -5z"/>
<path d="M8105 11771 c-3 -5 -2 -12 3 -15 5 -3 9 1 9 9 0 17 -3 19 -12 6z"/>
<path d="M21065 11476 c-43 -18 -93 -79 -101 -121 -30 -159 109 -280 253 -220
71 30 113 92 113 169 0 111 -76 187 -187 186 -26 -1 -62 -7 -78 -14z"/>
<path d="M27960 11398 c-88 -45 -114 -157 -52 -230 72 -85 204 -72 253 24 68
133 -70 273 -201 206z"/>
<path d="M3766 11328 c3 -5 10 -6 15 -3 13 9 11 12 -6 12 -8 0 -12 -4 -9 -9z"/>
<path d="M6610 11196 c0 -2 7 -7 16 -10 8 -3 12 -2 9 4 -6 10 -25 14 -25 6z"/>
<path d="M4096 11071 c-4 -5 -2 -12 3 -15 5 -4 12 -2 15 3 4 5 2 12 -3 15 -5
4 -12 2 -15 -3z"/>
<path d="M5256 10998 c3 -5 10 -6 15 -3 13 9 11 12 -6 12 -8 0 -12 -4 -9 -9z"/>
<path d="M4659 10983 c-13 -16 -12 -17 4 -4 16 13 21 21 13 21 -2 0 -10 -8
-17 -17z"/>
<path d="M3545 10940 c-4 -6 -11 -7 -17 -4 -7 4 -8 2 -4 -5 6 -9 11 -9 22 0
14 11 18 19 10 19 -3 0 -8 -5 -11 -10z"/>
<path d="M4106 10942 c-3 -5 1 -9 9 -9 8 0 12 4 9 9 -3 4 -7 8 -9 8 -2 0 -6
-4 -9 -8z"/>
<path d="M4716 10838 c3 -5 10 -6 15 -3 13 9 11 12 -6 12 -8 0 -12 -4 -9 -9z"/>
<path d="M8506 10763 c-6 -14 -5 -15 5 -6 7 7 10 15 7 18 -3 3 -9 -2 -12 -12z"/>
<path d="M4686 10747 c3 -10 9 -15 12 -12 3 3 0 11 -7 18 -10 9 -11 8 -5 -6z"/>
<path d="M4746 10752 c-3 -5 1 -9 9 -9 8 0 12 4 9 9 -3 4 -7 8 -9 8 -2 0 -6
-4 -9 -8z"/>
<path d="M4056 10712 c-3 -5 1 -9 9 -9 8 0 12 4 9 9 -3 4 -7 8 -9 8 -2 0 -6
-4 -9 -8z"/>
<path d="M4483 10685 c0 -8 4 -12 9 -9 5 3 6 10 3 15 -9 13 -12 11 -12 -6z"/>
<path d="M4721 10683 c-1 -17 16 -25 25 -12 4 7 3 9 -4 5 -5 -3 -13 0 -15 6
-4 9 -6 10 -6 1z"/>
<path d="M5864 10679 c-4 -7 -3 -9 4 -5 5 3 13 0 15 -6 4 -9 6 -10 6 -1 1 17
-16 25 -25 12z"/>
<path d="M5336 10663 c-6 -14 -5 -15 5 -6 7 7 10 15 7 18 -3 3 -9 -2 -12 -12z"/>
<path d="M8370 10665 c-7 -8 -17 -12 -23 -8 -6 4 -7 1 -3 -6 6 -9 13 -8 27 5
10 9 19 19 19 21 0 7 -8 2 -20 -12z"/>
<path d="M5363 10655 c0 -8 4 -12 9 -9 5 3 6 10 3 15 -9 13 -12 11 -12 -6z"/>
<path d="M8340 10620 c-9 -6 -10 -10 -3 -10 6 0 15 5 18 10 8 12 4 12 -15 0z"/>
<path d="M23073 10484 c-3 -8 0 -27 6 -40 9 -20 17 -25 39 -22 51 6 38 78 -15
78 -13 0 -26 -7 -30 -16z"/>
<path d="M26720 10168 l0 -313 -223 223 -222 222 -65 -65 -65 -65 218 -218
c119 -119 217 -221 217 -225 0 -4 -139 -7 -310 -7 l-310 0 0 -90 0 -90 317 0
318 0 -223 -223 -222 -222 63 -63 62 -62 215 215 c118 118 218 215 222 215 5
0 8 -137 8 -305 l0 -305 90 0 90 0 0 305 c0 168 3 305 7 305 4 0 105 -97 223
-215 l215 -215 65 65 65 65 -220 220 -220 220 313 0 312 0 0 90 0 90 -310 0
c-170 0 -310 3 -310 7 0 4 98 106 217 225 l218 218 -63 62 -62 63 -218 -218
c-119 -119 -221 -217 -225 -217 -4 0 -7 140 -7 310 l0 310 -90 0 -90 0 0 -312z"/>
<path d="M22700 10433 c0 -10 16 -90 35 -178 l35 -160 -56 -52 c-46 -43 -54
-56 -49 -75 17 -55 45 -62 87 -21 15 14 30 25 32 22 2 -2 42 -130 88 -284 81
-274 84 -280 111 -283 18 -2 29 2 33 13 4 9 -31 151 -76 316 -46 164 -81 301
-79 303 2 2 48 35 102 75 l97 71 -15 30 c-9 17 -17 30 -19 30 -1 0 -43 -22
-92 -50 -49 -27 -92 -50 -96 -50 -9 0 -34 114 -49 223 l-12 87 -39 0 c-30 0
-38 -4 -38 -17z"/>
<path d="M22423 10333 c-16 -6 -17 -45 -1 -61 19 -19 56 -14 63 8 13 40 -22
70 -62 53z"/>
<path d="M23723 10310 c-97 -56 -139 -144 -183 -383 -13 -65 -26 -115 -30
-110 -3 4 -19 96 -34 203 -33 239 -44 290 -63 297 -8 3 -21 -1 -29 -9 -13 -13
-11 -54 16 -340 44 -471 39 -442 73 -446 43 -5 63 20 71 86 10 84 53 273 88
382 67 210 134 283 197 216 20 -21 24 -48 51 -332 15 -170 29 -310 29 -311 3
-10 41 0 51 12 14 17 8 248 -11 420 -19 175 -69 308 -126 334 -34 16 -42 14
-100 -19z"/>
<path d="M23137 10263 c-8 -14 12 -191 38 -338 14 -77 37 -209 52 -292 l27
-153 27 0 c15 0 30 4 33 9 3 4 -10 111 -29 237 -20 126 -45 299 -58 384 l-22
155 -32 3 c-17 2 -33 -1 -36 -5z"/>
<path d="M3147 10223 c-11 -11 -8 -48 5 -61 9 -9 498 -12 2140 -12 l2128 0 12
25 c8 19 8 28 -2 40 -11 13 -243 15 -2145 15 -1172 0 -2135 -3 -2138 -7z"/>
<path d="M24409 10216 c-88 -31 -182 -119 -267 -249 -71 -109 -106 -202 -100
-267 7 -71 33 -104 87 -108 79 -6 171 88 307 314 l66 109 -6 -55 c-3 -30 -13
-134 -21 -230 -37 -425 -99 -611 -231 -699 -46 -30 -131 -54 -182 -51 -68 5
-71 -15 -7 -47 140 -71 280 18 397 252 81 161 99 260 134 743 16 226 16 233
-2 254 -40 45 -108 58 -175 34z m75 -91 c0 -31 -188 -308 -258 -381 -34 -35
-69 -64 -79 -64 -10 0 -23 12 -29 26 -34 75 130 342 256 415 60 35 111 36 110
4z"/>
<path d="M22513 10112 c-19 -12 24 -165 135 -479 61 -170 105 -279 113 -281 8
-1 23 4 33 11 18 13 15 22 -47 213 -36 109 -90 276 -119 369 -50 156 -56 170
-79 173 -13 1 -29 -1 -36 -6z"/>
<path d="M22282 9939 c-134 -67 -152 -192 -61 -418 17 -42 33 -83 36 -91 9
-25 -54 68 -137 205 -108 178 -102 172 -134 157 -14 -6 -26 -17 -26 -24 0 -7
80 -137 178 -288 187 -289 196 -299 241 -263 l22 18 -34 100 c-20 55 -54 152
-76 216 -68 191 -58 262 46 323 68 40 76 50 68 75 -9 30 -50 27 -123 -10z"/>
<path d="M21507 9943 c-4 -3 -7 -14 -7 -23 0 -10 75 -178 166 -374 91 -197
164 -360 161 -362 -12 -13 -150 65 -338 192 -110 73 -212 137 -226 140 -20 5
-31 2 -44 -15 -17 -21 -18 -25 -2 -59 67 -151 273 -687 273 -712 0 -6 -137 81
-305 194 -168 113 -319 213 -336 222 -44 22 -59 13 -59 -38 0 -42 1 -44 48
-62 68 -28 133 -69 247 -155 55 -42 141 -106 190 -144 105 -79 225 -142 255
-132 11 4 27 20 36 37 20 38 13 91 -20 156 -31 63 -229 562 -225 567 2 2 54
-28 114 -66 169 -107 473 -256 501 -245 23 9 16 51 -19 118 -19 36 -103 215
-187 399 -84 184 -160 342 -168 352 -15 17 -43 23 -55 10z"/>
<path d="M1991 9451 c-90 -222 -123 -255 -338 -342 -73 -30 -133 -57 -133 -60
0 -4 48 -26 108 -50 147 -58 177 -74 229 -122 56 -52 80 -93 138 -239 26 -65
50 -118 54 -118 3 0 30 60 60 133 87 215 120 248 342 338 71 29 129 56 129 59
0 3 -57 27 -127 55 -219 86 -260 127 -344 339 -30 75 -56 136 -59 136 -3 0
-30 -58 -59 -129z"/>
<path d="M6032 8942 c-17 -11 -393 -992 -390 -1016 8 -55 61 -9 110 93 17 36
32 68 34 69 1 2 73 -57 160 -132 86 -75 165 -136 175 -136 23 0 61 71 42 77
-6 2 -52 31 -102 64 -97 64 -201 158 -201 182 0 8 29 25 70 41 121 48 285 160
423 290 39 37 48 51 45 73 -2 22 -9 29 -30 31 -20 2 -51 -16 -135 -79 -207
-159 -238 -181 -306 -221 -37 -22 -70 -38 -73 -35 -9 9 21 93 102 288 40 96
85 210 99 253 38 114 27 190 -23 158z"/>
<path d="M22985 8903 c-395 -84 -685 -441 -685 -843 0 -104 -18 -153 -67 -182
-16 -9 -85 -33 -153 -52 -68 -19 -135 -43 -149 -54 -41 -29 -63 -80 -56 -127
7 -48 132 -480 146 -507 16 -30 70 -58 113 -58 44 0 2389 663 2423 686 13 8
30 25 38 38 33 51 30 83 -39 325 -70 246 -76 262 -109 299 -43 47 -83 47 -244
1 -129 -36 -151 -40 -182 -30 -51 16 -60 25 -124 122 -101 153 -259 283 -418
343 -148 55 -345 71 -494 39z"/>
<path d="M3331 8843 c-70 -36 -177 -150 -223 -238 -52 -101 -71 -175 -66 -256
14 -185 138 -218 493 -133 104 25 189 31 200 14 11 -17 -32 -84 -86 -136 -30
-28 -104 -87 -165 -132 -113 -83 -128 -99 -118 -127 8 -21 20 -19 73 12 167
96 381 308 381 375 0 34 -31 68 -72 79 -47 12 -77 8 -258 -36 -74 -18 -158
-36 -186 -40 -100 -13 -176 28 -190 104 -22 116 81 355 180 421 23 14 35 16
64 8 29 -8 39 -6 61 10 29 21 36 42 27 78 -9 33 -47 32 -115 -3z"/>
<path d="M4790 8782 c-49 -26 -98 -96 -145 -203 -22 -50 -57 -111 -78 -135
-47 -54 -46 -78 4 -82 l36 -3 5 -93 c8 -145 49 -202 147 -200 101 2 277 128
366 263 35 52 31 86 -10 86 -25 0 -37 -10 -78 -65 -116 -155 -217 -230 -291
-216 -58 11 -70 35 -68 133 1 47 7 103 12 124 10 35 18 43 83 75 108 54 204
112 241 145 30 26 33 33 27 62 -11 45 -28 69 -70 97 -49 33 -133 38 -181 12z
m135 -74 c59 -27 16 -84 -110 -145 -73 -35 -95 -40 -95 -23 0 24 45 98 83 138
44 45 73 52 122 30z"/>
<path d="M4225 8722 c-77 -27 -140 -67 -215 -139 -38 -35 -74 -62 -80 -58 -5
3 -10 35 -10 71 0 36 -5 74 -10 85 -14 25 -67 26 -72 2 -4 -19 23 -184 66
-395 37 -184 75 -447 84 -568 7 -100 8 -105 31 -108 13 -2 28 1 33 6 6 6 2 84
-12 220 l-22 210 140 139 c145 144 215 229 262 324 52 101 49 174 -9 203 -46
25 -131 28 -186 8z m145 -62 c14 -26 -3 -102 -37 -160 -15 -25 -58 -78 -97
-119 -74 -76 -224 -206 -231 -200 -9 10 -45 157 -45 187 0 74 66 168 164 235
109 74 223 101 246 57z"/>
<path d="M5497 8699 c-85 -56 -203 -210 -282 -369 -29 -57 -39 -91 -43 -141
-9 -128 45 -166 143 -99 47 33 146 135 206 216 61 80 65 67 50 -131 -6 -91 -9
-170 -6 -175 13 -21 45 -10 51 18 3 15 8 33 10 41 3 8 11 116 19 240 8 124 21
251 30 281 8 30 15 67 15 81 0 72 -109 94 -193 38z m95 -99 c-6 -82 -111 -239
-254 -382 -67 -67 -98 -75 -98 -25 0 61 149 285 259 391 70 66 98 71 93 16z"/>
<path d="M12089 8707 c-139 -39 -278 -232 -378 -520 -103 -300 -184 -757 -166
-940 13 -138 67 -260 146 -331 50 -45 90 -60 190 -72 93 -11 207 38 378 164
194 143 384 390 399 520 6 53 -4 62 -70 62 l-47 0 -35 -75 c-106 -228 -321
-460 -480 -516 -65 -22 -163 -25 -209 -5 -158 69 -187 312 -91 771 108 514
275 825 444 825 29 0 44 -10 100 -69 60 -63 111 -94 127 -77 12 12 -16 128
-42 172 -48 82 -160 121 -266 91z"/>
<path d="M6596 8674 c-17 -43 6 -81 43 -69 27 8 37 56 15 72 -24 18 -51 16
-58 -3z"/>
<path d="M6522 8449 c-51 -81 -312 -665 -312 -697 0 -15 38 -35 51 -26 6 3 19
25 28 48 10 22 82 177 160 343 77 166 141 309 141 316 0 8 -11 19 -25 25 -32
15 -28 16 -43 -9z"/>
<path d="M6743 8358 c-6 -7 -47 -85 -93 -173 -46 -88 -95 -182 -110 -210 -15
-27 -56 -106 -91 -173 -61 -119 -63 -125 -44 -138 41 -30 67 -18 145 67 153
169 380 351 456 365 70 13 103 -55 61 -128 -14 -24 -80 -146 -146 -272 -95
-181 -118 -232 -109 -243 26 -32 51 -9 131 122 176 290 245 482 205 570 -14
32 -74 49 -141 42 -84 -10 -161 -61 -284 -186 -62 -63 -114 -113 -117 -110 -2
2 31 78 73 169 102 217 125 275 118 294 -8 19 -41 21 -54 4z"/>
<path d="M9395 8306 c-131 -59 -148 -244 -29 -325 81 -56 207 -32 261 50 40
60 40 147 0 207 -48 73 -152 103 -232 68z"/>
<path d="M12961 8238 c-23 -13 -49 -34 -56 -48 -19 -33 -79 -294 -106 -456
-25 -154 -30 -354 -12 -587 10 -131 16 -167 37 -213 42 -92 111 -105 234 -44
144 73 250 252 293 500 17 95 17 361 0 464 -26 161 -141 351 -238 392 -47 20
-104 17 -152 -8z m200 -179 c88 -47 105 -428 33 -729 -41 -172 -95 -268 -169
-301 -64 -29 -72 -26 -90 35 -13 43 -16 114 -16 367 -1 415 17 532 93 613 36
37 40 38 83 33 25 -4 55 -12 66 -18z"/>
<path d="M16861 8195 c-113 -32 -201 -129 -276 -302 -127 -293 -136 -312 -197
-378 -42 -46 -59 -71 -56 -87 5 -33 44 -50 106 -44 l52 5 0 -89 c0 -306 87
-450 272 -450 167 0 488 232 647 468 41 62 49 79 61 130 11 43 -15 72 -63 72
-42 0 -67 -27 -173 -180 -154 -224 -305 -347 -439 -358 -164 -13 -202 64 -177
354 16 181 9 172 213 284 210 115 364 216 408 266 30 34 33 41 27 82 -22 162
-228 277 -405 227z m153 -139 c104 -32 114 -81 33 -159 -83 -80 -281 -187
-347 -187 -20 0 -22 4 -16 33 18 95 144 274 218 310 41 20 53 21 112 3z"/>
<path d="M27468 8190 c-121 -21 -129 -27 -628 -525 l-464 -464 19 -21 c19 -21
19 -21 -220 -260 -207 -207 -244 -240 -270 -240 -26 0 -90 -60 -514 -484 -416
-416 -483 -488 -483 -512 0 -24 -25 -54 -144 -175 -142 -144 -144 -146 -144
-190 0 -25 5 -50 11 -56 14 -14 115 17 -1016 -304 -533 -150 -897 -258 -908
-269 -22 -20 -25 -73 -6 -96 7 -9 23 -20 35 -24 16 -7 253 57 900 241 484 137
882 248 885 247 4 -2 -40 -84 -97 -183 -57 -98 -104 -189 -104 -202 0 -22 33
-53 59 -53 7 0 140 72 294 160 193 110 284 157 291 150 5 -5 30 -10 55 -10
l46 0 897 897 c896 896 897 897 918 878 21 -19 22 -18 423 383 l402 402 73
-73 c49 -50 72 -80 72 -97 0 -18 -47 -71 -181 -206 l-181 -182 -61 -12 c-34
-6 -80 -21 -102 -32 -22 -11 -123 -104 -231 -212 -211 -210 -221 -225 -187
-294 21 -44 69 -65 118 -51 42 12 951 921 966 966 15 48 -7 86 -110 187 l-90
90 25 33 c138 181 83 446 -113 551 -47 25 -158 56 -182 51 -3 -1 -27 -5 -53
-9z"/>
<path d="M15023 8136 c-209 -68 -301 -288 -303 -731 -1 -82 -4 -122 -10 -109
-14 36 -47 246 -80 519 -18 143 -36 270 -41 283 -7 18 -16 22 -48 22 -61 0
-71 -7 -71 -52 0 -38 165 -1125 176 -1161 13 -42 116 -63 147 -29 19 21 40
207 57 493 16 281 46 432 104 519 37 56 107 98 174 105 131 13 194 24 208 35
21 19 18 74 -7 96 -18 16 -39 19 -143 21 -81 2 -135 -2 -163 -11z"/>
<path d="M15925 8121 c-102 -29 -184 -79 -271 -166 -122 -120 -173 -238 -174
-396 0 -130 37 -210 113 -238 61 -23 141 -13 249 31 85 34 118 42 188 46 152
8 191 -27 131 -119 -55 -81 -222 -223 -400 -339 -70 -46 -81 -56 -81 -81 0
-16 9 -38 21 -50 47 -47 166 1 321 130 51 43 115 102 142 132 67 74 144 193
152 236 10 55 -4 124 -34 168 -71 102 -145 110 -347 39 -107 -37 -143 -46
-203 -46 -52 0 -79 5 -98 17 -25 16 -26 20 -22 90 7 107 76 245 167 335 36 37
84 75 106 85 52 25 122 25 168 0 28 -15 42 -17 63 -10 59 21 90 111 49 141
-27 20 -166 17 -240 -5z"/>
<path d="M18055 8125 c-204 -57 -377 -221 -437 -418 -16 -55 -19 -87 -16 -165
7 -171 59 -232 196 -232 49 0 82 8 164 42 85 34 118 42 188 46 135 7 184 -23
149 -91 -40 -76 -219 -235 -401 -354 -92 -61 -98 -67 -98 -99 0 -73 83 -82
190 -22 183 103 424 360 446 475 10 55 -4 124 -34 168 -71 101 -145 110 -343
41 -70 -24 -146 -45 -170 -46 -133 -7 -162 9 -161 88 3 116 70 252 178 359 58
58 83 75 129 89 55 18 59 18 103 0 83 -32 98 -31 132 2 37 37 43 104 11 122
-27 14 -166 11 -226 -5z"/>
<path d="M13504 8078 c-10 -17 -5 -466 7 -663 17 -259 52 -413 117 -507 50
-73 126 -97 195 -62 75 38 203 159 254 239 15 25 31 45 36 45 13 0 25 -45 32
-121 10 -117 30 -176 65 -194 38 -20 63 -19 91 3 l22 19 -27 94 c-56 196 -61
255 -59 717 l2 422 -38 0 c-21 0 -52 3 -68 6 l-29 6 -12 -290 c-10 -270 -13
-296 -37 -368 -56 -167 -174 -357 -254 -411 -50 -34 -79 -30 -96 11 -34 82
-44 181 -71 706 -9 184 -21 341 -27 348 -12 16 -93 16 -103 0z"/>
<path d="M1880 7555 c0 -129 -3 -235 -7 -235 -4 0 -81 73 -170 162 l-163 163
-47 -48 -48 -47 163 -163 c89 -89 162 -166 162 -170 0 -4 -106 -7 -235 -7
l-235 0 0 -70 0 -70 237 0 238 0 -168 -168 -167 -167 50 -50 50 -50 163 163
c89 89 166 162 170 162 4 0 7 -106 7 -235 l0 -235 70 0 70 0 0 242 0 243 170
-170 170 -170 47 48 48 47 -170 170 -170 170 243 0 242 0 0 70 0 70 -242 0
-243 0 170 170 170 170 -50 50 -50 50 -167 -167 -168 -168 0 238 0 237 -70 0
-70 0 0 -235z"/>
<path d="M7365 7730 c-100 -26 -242 -95 -317 -154 -49 -39 -60 -54 -73 -101
-14 -46 -14 -59 -3 -82 40 -84 175 -66 418 55 74 37 139 69 145 71 5 2 -10
-20 -34 -50 -24 -30 -90 -115 -147 -189 -245 -321 -386 -438 -540 -448 -69 -5
-121 8 -176 44 -33 21 -78 32 -78 19 0 -3 14 -27 31 -55 68 -110 200 -124 378
-39 194 92 273 167 510 484 254 339 233 306 219 346 -13 41 -43 76 -82 96 -47
24 -160 26 -251 3z m200 -64 c63 -27 49 -41 -112 -115 -226 -103 -354 -142
-387 -118 -32 24 -13 61 57 110 159 113 343 164 442 123z"/>
<path d="M19446 7528 c-77 -16 -135 -87 -136 -165 -1 -121 130 -207 243 -159
64 26 116 116 103 178 -21 107 -108 168 -210 146z"/>
<path d="M8900 7205 c-172 -29 -332 -87 -490 -177 -320 -184 -570 -505 -670
-863 -49 -176 -66 -431 -40 -606 28 -182 95 -376 180 -518 27 -46 50 -88 50
-92 0 -4 -111 -103 -247 -219 -137 -116 -256 -223 -265 -238 -40 -61 -9 -152
59 -172 27 -8 294 -10 943 -8 887 4 907 5 1001 26 307 70 527 189 740 401 252
252 396 559 425 908 6 68 10 82 25 86 44 12 10 316 -57 516 -73 219 -191 407
-367 584 -99 100 -111 109 -138 103 -24 -4 -44 4 -112 48 -167 109 -369 189
-556 220 -114 19 -371 20 -481 1z m768 -1111 c16 -11 22 -25 22 -54 0 -73 22
-70 -571 -70 l-528 0 -20 26 c-12 15 -21 34 -21 44 0 10 9 29 21 44 l20 26
528 0 c460 0 529 -2 549 -16z m-134 -545 c31 -25 34 -66 7 -100 l-19 -24 -343
-3 c-367 -3 -393 0 -410 45 -14 37 -11 52 16 78 l24 25 349 0 c338 0 350 -1
376 -21z"/>
<path d="M23483 6532 c-723 -206 -1189 -344 -1199 -354 -39 -39 -8 -118 47
-118 45 0 2379 667 2400 686 10 9 19 30 19 46 0 33 -39 78 -67 77 -10 0 -550
-152 -1200 -337z"/>
<path d="M23620 6096 c-80 -24 -381 -110 -670 -192 -328 -93 -531 -155 -542
-166 -37 -37 -18 -103 34 -121 10 -4 316 78 690 184 570 161 676 194 696 215
12 14 22 31 22 39 0 30 -24 65 -53 75 -16 5 -30 10 -31 9 -1 -1 -66 -20 -146
-43z"/>
<path d="M13075 5935 c-369 -69 -657 -365 -715 -735 -20 -129 -11 -170 37
-170 26 0 29 9 38 113 36 384 344 685 739 724 58 6 82 13 90 26 31 50 -51 68
-189 42z"/>
<path d="M21882 5908 c-7 -7 -12 -20 -12 -29 0 -9 200 -722 445 -1585 297
-1044 451 -1573 462 -1581 24 -18 59 7 55 38 -6 56 -891 3153 -904 3160 -18
12 -32 11 -46 -3z"/>
<path d="M27639 5891 c-41 -42 -41 -101 1 -143 28 -28 36 -30 78 -25 60 7 92
41 92 98 0 57 -42 99 -100 99 -33 0 -48 -6 -71 -29z"/>
<path d="M4504 5839 c-136 -13 -262 -40 -297 -63 -44 -30 -66 -91 -46 -131 8
-16 30 -40 49 -53 39 -26 50 -26 200 4 131 26 364 24 512 -5 131 -26 171 -21
208 26 40 51 18 138 -42 166 -46 22 -164 44 -293 57 -122 11 -171 11 -291 -1z"/>
<path d="M5940 5769 c-124 -11 -163 -23 -194 -60 -45 -53 -27 -133 37 -165 29
-16 45 -16 163 -5 156 15 234 6 393 -45 74 -24 115 -32 136 -28 103 23 128
135 45 201 -20 16 -210 78 -280 91 -86 17 -196 21 -300 11z"/>
<path d="M1913 5488 c-68 -84 -193 -448 -238 -692 -158 -863 100 -1723 704
-2348 92 -96 115 -110 139 -86 22 22 12 40 -79 137 -399 421 -627 895 -711
1476 -17 120 -17 531 0 655 35 250 104 493 199 710 41 91 53 128 46 140 -13
20 -47 24 -60 8z"/>
<path d="M4558 5396 c-223 -92 -305 -355 -175 -560 115 -181 382 -223 555 -86
228 180 169 547 -104 650 -79 29 -200 27 -276 -4z"/>
<path d="M6030 5346 c-110 -24 -183 -84 -237 -194 -36 -73 -38 -80 -38 -176 0
-93 3 -107 32 -168 37 -79 99 -145 168 -178 73 -36 189 -40 270 -9 75 28 155
105 193 186 24 52 27 69 27 168 0 98 -3 116 -27 167 -72 154 -232 239 -388
204z"/>
<path d="M17032 5108 c-17 -17 -17 -979 0 -996 16 -16 33 -15 52 4 14 14 16
72 16 490 0 309 -4 482 -10 495 -12 21 -40 25 -58 7z"/>
<path d="M24085 4426 c-644 -183 -1180 -338 -1192 -344 -48 -26 -34 -114 21
-128 16 -4 429 109 1192 326 643 182 1182 336 1197 342 50 19 61 67 26 112
-13 17 -30 26 -47 25 -15 0 -554 -150 -1197 -333z"/>
<path d="M11152 4380 c-72 -181 -111 -220 -292 -292 -61 -24 -110 -46 -110
-49 0 -3 55 -27 123 -54 168 -67 204 -103 272 -272 28 -68 52 -123 55 -123 3
0 27 55 55 123 68 169 104 205 273 272 67 27 122 51 122 54 0 3 -49 25 -110
49 -181 72 -219 110 -291 292 -24 60 -46 110 -49 110 -3 0 -24 -49 -48 -110z"/>
<path d="M25267 4024 c-104 -30 -200 -62 -213 -71 -31 -20 -64 -83 -64 -120 0
-32 96 -376 116 -415 8 -14 27 -36 44 -48 54 -39 90 -36 285 19 200 57 237 72
261 109 38 58 36 86 -17 277 -60 217 -63 226 -97 257 -27 26 -82 49 -111 47
-9 0 -101 -25 -204 -55z"/>
<path d="M12820 3571 c0 -221 2 -401 4 -401 3 0 93 34 201 75 109 41 202 75
207 75 8 0 294 -106 391 -145 16 -7 17 16 17 393 l0 400 -80 -24 c-126 -36
-228 -47 -379 -41 -124 5 -263 30 -343 62 -17 7 -18 -16 -18 -394z"/>
<path d="M5130 3719 c-307 -16 -512 -70 -616 -161 -174 -153 -65 -446 249
-666 327 -230 755 -249 1102 -49 147 84 247 175 326 296 58 87 79 151 79 238
0 211 -222 317 -720 343 -201 11 -206 11 -420 -1z"/>
<path d="M14543 3663 c-31 -6 -63 -50 -63 -85 0 -19 10 -40 29 -59 l30 -29
1011 2 1012 3 24 28 c42 49 28 108 -31 133 -29 12 -189 14 -1012 13 -538 -1
-988 -4 -1000 -6z"/>
<path d="M7584 3482 c-53 -132 -95 -174 -227 -225 -53 -22 -95 -42 -93 -46 3
-4 44 -23 92 -42 127 -50 173 -95 228 -228 49 -118 42 -119 96 19 46 115 87
155 210 204 52 21 98 41 103 45 4 4 -37 25 -90 46 -131 51 -175 95 -228 223
-21 51 -41 95 -45 97 -4 2 -25 -39 -46 -93z"/>
<path d="M23415 3334 c-191 -55 -294 -90 -303 -101 -21 -29 -11 -83 20 -106
l28 -21 277 79 c153 43 293 82 311 87 100 28 95 150 -5 147 -21 -1 -168 -39
-328 -85z"/>
<path d="M17773 3174 c-34 -28 -39 -73 -14 -106 17 -21 33 -28 79 -34 109 -13
152 -47 288 -229 149 -200 232 -256 390 -263 168 -8 276 51 402 218 132 175
167 214 221 244 45 24 65 29 121 28 114 0 164 -37 306 -228 149 -199 233 -255
390 -262 168 -8 276 51 402 218 132 175 167 214 221 244 45 24 65 29 121 28
114 0 164 -37 306 -228 142 -190 231 -253 370 -262 80 -5 99 3 115 46 13 33
-13 90 -43 96 -13 3 -43 7 -66 11 -92 12 -144 56 -274 230 -142 189 -234 252
-385 263 -95 6 -189 -22 -269 -81 -58 -43 -78 -66 -211 -242 -107 -140 -179
-183 -289 -172 -99 10 -154 54 -282 228 -95 129 -184 211 -259 239 -86 33
-185 37 -271 11 -108 -33 -171 -86 -295 -248 -153 -202 -187 -228 -307 -228
-120 0 -169 36 -307 225 -134 182 -237 255 -378 267 -49 4 -64 2 -82 -13z"/>
<path d="M15372 2988 c-9 -9 -12 -126 -12 -467 0 -497 2 -520 59 -666 118
-306 435 -534 746 -539 87 -1 90 0 93 22 6 38 -15 52 -77 52 -136 0 -326 72
-448 170 -129 103 -230 260 -275 425 -21 75 -22 106 -26 535 -2 297 -7 459
-14 467 -13 16 -31 16 -46 1z"/>
<path d="M27432 2447 c-110 -40 -171 -158 -138 -269 47 -164 261 -213 373 -85
41 47 56 96 51 168 -10 138 -156 233 -286 186z"/>
<path d="M18166 1955 c-41 -108 -81 -147 -193 -193 l-91 -38 86 -34 c98 -39
158 -91 181 -154 7 -21 22 -59 33 -84 l21 -46 35 89 c46 114 83 151 197 195
l86 33 -88 36 c-112 46 -149 82 -193 189 -18 45 -36 82 -40 82 -3 0 -18 -34
-34 -75z"/>
<path d="M2062 1844 c-54 -130 -90 -164 -226 -219 -53 -21 -95 -40 -93 -41 1
-1 50 -23 110 -49 131 -58 161 -88 213 -221 21 -52 40 -94 44 -94 3 0 12 17
19 38 36 101 80 179 119 213 24 20 83 52 139 74 l98 39 -35 14 c-212 85 -242
111 -300 256 -18 48 -37 89 -40 91 -3 2 -25 -44 -48 -101z"/>
</g>
</svg>
