<svg version="1.1" id="Layer_1" xmlns="http://www.w3.org/2000/svg" xmlns:xlink="http://www.w3.org/1999/xlink" x="0px" y="0px"
	 width="100%" viewBox="0 0 249 224" enable-background="new 0 0 249 224" xml:space="preserve">
<path fill="#FFFFFE" opacity="1.000000" stroke="none" 
	d="
M91.000000,225.000000 
	C61.020172,225.000000 31.040344,225.000000 1.030258,225.000000 
	C1.030258,150.403717 1.030258,75.807426 1.030258,1.105567 
	C83.999931,1.105567 166.999939,1.105567 250.000000,1.105567 
	C250.000000,30.101629 250.000000,59.082157 249.745270,88.528206 
	C249.320847,89.000648 249.151169,89.007576 248.759323,88.859787 
	C247.044662,80.487289 236.928085,71.090225 227.776917,70.522713 
	C216.343521,69.813675 205.712601,72.324615 197.741074,81.482513 
	C196.818100,82.542862 196.417313,84.057770 195.774429,85.361923 
	C196.193680,85.682083 196.612915,86.002235 197.032166,86.322395 
	C198.546097,85.025322 200.218307,83.871948 201.547821,82.407471 
	C209.228424,73.947037 218.849121,71.817177 229.566406,74.131378 
	C243.815292,77.208168 250.114090,90.358681 242.594986,102.663719 
	C237.460159,111.066879 230.675705,118.462021 224.802017,126.083092 
	C212.324799,114.351120 200.402374,103.140808 188.333038,91.792366 
	C188.245331,91.858452 187.670059,92.195175 187.212708,92.650375 
	C162.309479,117.437813 137.445816,142.265137 112.486031,166.995453 
	C109.192772,170.258438 109.600204,172.864975 112.652359,175.867691 
	C121.435852,184.508972 130.137924,193.233093 138.862991,201.933670 
	C140.320770,203.387375 141.733566,204.886185 143.932648,207.153336 
	C126.770844,212.043839 110.733284,216.613983 94.241753,221.313477 
	C99.232597,207.684784 103.924126,194.873413 108.615662,182.062042 
	C108.074188,181.685425 107.532707,181.308823 106.991226,180.932205 
	C105.993629,182.145538 104.585953,183.204910 104.063461,184.596619 
	C99.978363,195.477539 95.976837,206.392258 92.163551,217.370895 
	C91.333595,219.760361 91.365204,222.449097 91.000000,225.000000 
M67.500000,12.028316 
	C99.922310,12.028316 132.344620,12.028316 165.412933,12.028316 
	C165.412933,36.693146 165.412933,60.577774 165.412933,84.462402 
	C165.983612,84.568581 166.554276,84.674767 167.124954,84.780952 
	C167.641464,83.041344 168.599197,81.303833 168.607452,79.561821 
	C168.710068,57.897156 168.612366,36.231495 168.730621,14.566982 
	C168.752670,10.525326 167.317902,8.922488 163.220230,8.928205 
	C112.223885,8.999359 61.227337,9.009953 10.231119,8.902647 
	C6.442790,8.894675 5.374523,10.187088 5.379040,13.814300 
	C5.456446,75.976524 5.458812,138.138916 5.375612,200.301132 
	C5.370615,204.034729 6.633825,205.122604 10.315445,205.101334 
	C34.646267,204.960785 58.978313,205.039978 83.309883,205.000015 
	C84.770493,204.997620 86.230423,204.585632 87.690674,204.364227 
	C87.660423,203.615677 87.630173,202.867126 87.599922,202.118576 
	C61.429234,201.722992 35.231663,202.197754 9.185851,201.868820 
	C9.185851,138.218201 9.185851,75.320648 9.185851,12.028351 
	C28.556578,12.028351 47.528290,12.028351 67.500000,12.028316 
M81.499931,57.595558 
	C100.820984,57.595745 120.142128,57.622383 139.462952,57.557209 
	C141.505432,57.550320 143.546097,57.004078 145.587616,56.708054 
	C145.548203,56.105522 145.508789,55.502995 145.469376,54.900463 
	C143.947327,54.627110 142.425583,54.117149 140.903183,54.115147 
	C106.591736,54.069992 72.280182,54.065727 37.968792,54.129498 
	C36.434753,54.132347 34.902039,54.848591 32.193512,55.526825 
	C34.006725,56.631077 34.530224,57.226650 35.059849,57.232143 
	C50.206154,57.389278 65.353073,57.487152 81.499931,57.595558 
M94.493996,96.035278 
	C99.474380,96.035278 104.454765,96.035278 109.435150,96.035278 
	C106.249802,92.229866 36.027241,92.243073 31.885515,96.035316 
	C53.263538,96.035316 73.380096,96.035316 94.493996,96.035278 
M34.587502,136.463409 
	C56.372879,137.941711 78.476959,136.981995 81.270889,133.785782 
	C79.095291,133.545074 77.409149,133.208420 75.720825,133.197113 
	C67.411278,133.141434 59.101154,133.171829 50.791237,133.172363 
	C45.805294,133.172684 40.816944,133.086548 35.834736,133.223389 
	C34.142624,133.269867 31.218409,133.066193 34.587502,136.463409 
z"/>
<path fill="#FFFFFD" opacity="1.000000" stroke="none" 
	d="
M250.000000,96.000000 
	C250.000000,138.933685 250.000000,181.867355 250.000000,225.000000 
	C198.645950,225.000000 147.291626,225.000000 95.642456,224.669952 
	C112.989708,219.030975 131.079132,215.126831 148.915634,208.336197 
	C147.392944,206.391159 146.683350,205.263748 145.764755,204.345428 
	C136.232803,194.816238 126.775574,185.207748 117.051331,175.877945 
	C113.705925,172.668243 113.342323,170.640244 116.912834,167.125824 
	C139.951614,144.449051 162.752731,121.530838 185.643753,98.703789 
	C186.675003,97.675407 187.821320,96.762428 188.014496,96.591530 
	C193.385025,101.328865 198.456116,105.802055 203.621368,110.358299 
	C202.833817,111.464157 202.345734,112.332291 201.688644,113.044479 
	C192.997055,122.464859 184.256378,131.839996 175.579117,141.273514 
	C166.114319,151.563217 156.674896,161.876801 147.316910,172.263336 
	C146.498978,173.171158 146.368713,174.698563 145.919037,175.938171 
	C147.133499,175.471100 148.712830,175.342773 149.507935,174.486359 
	C162.417664,160.581192 175.212952,146.569855 188.067535,132.613297 
	C194.015228,126.155731 200.034729,119.764290 206.382050,112.956345 
	C211.650528,118.502747 216.513565,123.622322 221.858856,129.249588 
	C214.420303,137.640686 207.400726,145.832672 200.077667,153.743759 
	C192.614838,161.805847 184.795486,169.536667 177.239685,177.514297 
	C170.049103,185.106323 161.247528,191.158310 155.302032,200.070557 
	C157.343704,199.823318 158.884125,198.986633 160.150085,197.845505 
	C165.219803,193.275650 170.526108,188.910934 175.164276,183.929688 
	C194.437881,163.230545 213.637451,142.458282 232.567566,121.445633 
	C239.355240,113.911209 245.837982,105.962639 249.217804,95.980530 
	C249.652176,95.996788 249.826096,95.998390 250.000000,96.000000 
z"/>
<path fill="#FFE161" opacity="1.000000" stroke="none" 
	d="
M248.957336,95.965874 
	C245.837982,105.962639 239.355240,113.911209 232.567566,121.445633 
	C213.637451,142.458282 194.437881,163.230545 175.164276,183.929688 
	C170.526108,188.910934 165.219803,193.275650 160.150085,197.845505 
	C158.884125,198.986633 157.343704,199.823318 155.302032,200.070557 
	C161.247528,191.158310 170.049103,185.106323 177.239685,177.514297 
	C184.795486,169.536667 192.614838,161.805847 200.077667,153.743759 
	C207.400726,145.832672 214.420303,137.640686 221.858856,129.249588 
	C216.513565,123.622322 211.650528,118.502747 206.382050,112.956345 
	C200.034729,119.764290 194.015228,126.155731 188.067535,132.613297 
	C175.212952,146.569855 162.417664,160.581192 149.507935,174.486359 
	C148.712830,175.342773 147.133499,175.471100 145.919037,175.938171 
	C146.368713,174.698563 146.498978,173.171158 147.316910,172.263336 
	C156.674896,161.876801 166.114319,151.563217 175.579117,141.273514 
	C184.256378,131.839996 192.997055,122.464859 201.688644,113.044479 
	C202.345734,112.332291 202.833817,111.464157 203.621368,110.358299 
	C198.456116,105.802055 193.385025,101.328865 188.014496,96.591530 
	C187.821320,96.762428 186.675003,97.675407 185.643753,98.703789 
	C162.752731,121.530838 139.951614,144.449051 116.912834,167.125824 
	C113.342323,170.640244 113.705925,172.668243 117.051331,175.877945 
	C126.775574,185.207748 136.232803,194.816238 145.764755,204.345428 
	C146.683350,205.263748 147.392944,206.391159 148.915634,208.336197 
	C131.079132,215.126831 112.989708,219.030975 95.173798,224.669952 
	C93.933327,225.000000 92.866661,225.000000 91.399994,225.000000 
	C91.365204,222.449097 91.333595,219.760361 92.163551,217.370895 
	C95.976837,206.392258 99.978363,195.477539 104.063461,184.596619 
	C104.585953,183.204910 105.993629,182.145538 106.991226,180.932205 
	C107.532707,181.308823 108.074188,181.685425 108.615662,182.062042 
	C103.924126,194.873413 99.232597,207.684784 94.241753,221.313477 
	C110.733284,216.613983 126.770844,212.043839 143.932648,207.153336 
	C141.733566,204.886185 140.320770,203.387375 138.862991,201.933670 
	C130.137924,193.233093 121.435852,184.508972 112.652359,175.867691 
	C109.600204,172.864975 109.192772,170.258438 112.486031,166.995453 
	C137.445816,142.265137 162.309479,117.437813 187.212708,92.650375 
	C187.670059,92.195175 188.245331,91.858452 188.333038,91.792366 
	C200.402374,103.140808 212.324799,114.351120 224.802017,126.083092 
	C230.675705,118.462021 237.460159,111.066879 242.594986,102.663719 
	C250.114090,90.358681 243.815292,77.208168 229.566406,74.131378 
	C218.849121,71.817177 209.228424,73.947037 201.547821,82.407471 
	C200.218307,83.871948 198.546097,85.025322 197.032166,86.322395 
	C196.612915,86.002235 196.193680,85.682083 195.774429,85.361923 
	C196.417313,84.057770 196.818100,82.542862 197.741074,81.482513 
	C205.712601,72.324615 216.343521,69.813675 227.776917,70.522713 
	C236.928085,71.090225 247.044662,80.487289 248.771652,89.294006 
	C248.989868,91.910591 248.973602,93.938232 248.957336,95.965874 
z"/>
<path fill="#FFF3C4" opacity="1.000000" stroke="none" 
	d="
M249.217804,95.980530 
	C248.973602,93.938232 248.989868,91.910591 248.993805,89.448723 
	C249.151169,89.007576 249.320847,89.000648 249.745270,88.996864 
	C250.000000,91.041992 250.000000,93.083984 250.000000,95.562988 
	C249.826096,95.998390 249.652176,95.996788 249.217804,95.980530 
z"/>
<path fill="#FFE05D" opacity="1.000000" stroke="none" 
	d="
M67.000000,12.028334 
	C47.528290,12.028351 28.556578,12.028351 9.185851,12.028351 
	C9.185851,75.320648 9.185851,138.218201 9.185851,201.868820 
	C35.231663,202.197754 61.429234,201.722992 87.599922,202.118576 
	C87.630173,202.867126 87.660423,203.615677 87.690674,204.364227 
	C86.230423,204.585632 84.770493,204.997620 83.309883,205.000015 
	C58.978313,205.039978 34.646267,204.960785 10.315445,205.101334 
	C6.633825,205.122604 5.370615,204.034729 5.375612,200.301132 
	C5.458812,138.138916 5.456446,75.976524 5.379040,13.814300 
	C5.374523,10.187088 6.442790,8.894675 10.231119,8.902647 
	C61.227337,9.009953 112.223885,8.999359 163.220230,8.928205 
	C167.317902,8.922488 168.752670,10.525326 168.730621,14.566982 
	C168.612366,36.231495 168.710068,57.897156 168.607452,79.561821 
	C168.599197,81.303833 167.641464,83.041344 167.124954,84.780952 
	C166.554276,84.674767 165.983612,84.568581 165.412933,84.462402 
	C165.412933,60.577774 165.412933,36.693146 165.412933,12.028316 
	C132.344620,12.028316 99.922310,12.028316 67.000000,12.028334 
z"/>
<path fill="#FFDF5F" opacity="1.000000" stroke="none" 
	d="
M80.999908,57.595100 
	C65.353073,57.487152 50.206154,57.389278 35.059849,57.232143 
	C34.530224,57.226650 34.006725,56.631077 32.193512,55.526825 
	C34.902039,54.848591 36.434753,54.132347 37.968792,54.129498 
	C72.280182,54.065727 106.591736,54.069992 140.903183,54.115147 
	C142.425583,54.117149 143.947327,54.627110 145.469376,54.900463 
	C145.508789,55.502995 145.548203,56.105522 145.587616,56.708054 
	C143.546097,57.004078 141.505432,57.550320 139.462952,57.557209 
	C120.142128,57.622383 100.820984,57.595745 80.999908,57.595100 
z"/>
<path fill="#FFE060" opacity="1.000000" stroke="none" 
	d="
M93.995331,96.035294 
	C73.380096,96.035316 53.263538,96.035316 31.885515,96.035316 
	C36.027241,92.243073 106.249802,92.229866 109.435150,96.035278 
	C104.454765,96.035278 99.474380,96.035278 93.995331,96.035294 
z"/>
<path fill="#FFE26E" opacity="1.000000" stroke="none" 
	d="
M34.214752,136.345734 
	C31.218409,133.066193 34.142624,133.269867 35.834736,133.223389 
	C40.816944,133.086548 45.805294,133.172684 50.791237,133.172363 
	C59.101154,133.171829 67.411278,133.141434 75.720825,133.197113 
	C77.409149,133.208420 79.095291,133.545074 81.270889,133.785782 
	C78.476959,136.981995 56.372879,137.941711 34.214752,136.345734 
z"/>
</svg>